<?xml version="1.0" encoding="UTF-8"?>
<svg xmlns="http://www.w3.org/2000/svg" width="1429.83" height="747.85" viewBox="0 0 1429.83 747.85">
  <g id="b" data-name="Layer 4">
    <path d="M794.08,356.76c-7.8,1.58-15.61,3.14-23.41,4.75-9.79,2.02-18.16,7.22-20.93,17.46-2.02,7.46-.11,15.38,1.2,22.78s2.95,14.63,4.92,21.82c3.6,13.08,7.68,27.54,15.35,38.88,9,13.32,21.68,19.75,37.1,23.17,8.84,1.96,18.1,2.48,26.2-2.33s12.49-13.64,13.44-22.9c.7-6.85-1.07-13.48-3.51-19.83-2.49-6.49-4.33-12.91-5.47-19.78-2.3-13.83-3.4-27.4-9.39-40.3-6.62-14.26-21.79-25.8-38.16-21.31-20.54,5.63-25.58,28.56-20.71,46.72,2.18,8.13,5.98,15.92,10.04,23.27,1.79,3.24,3.67,6.42,5.5,9.63.84,1.48,1.68,2.97,2.5,4.47.54,1,1.08,2,1.6,3,1.28,2.71,1.13,1.97-.44-2.21l2.25-8.33,1.08-1.51c2.43-1.41,4.85-2.83,7.28-4.24l-1.11.27h8.77l-1.04-.38c-8.12-2.97-18.43,3.33-20.3,11.52-2.12,9.32,2.83,17.11,11.52,20.3,8.47,3.1,18.17-1.66,22.29-9.3,4.82-8.93.99-17.69-3.41-25.78-2.45-4.5-5.09-8.88-7.58-13.35-1.1-1.98-2.18-3.97-3.2-5.99-.63-1.26-1.25-2.52-1.82-3.81-.47-1.05-.46-1.02.02.06-.31-.78-.6-1.57-.87-2.37-.83-2.4-1.54-4.85-2.03-7.35.46,2.35-.05-.27-.05-.74,0,.19.48-4.86.04-2.91l-.02.51c.66-2.09.65-2.18-.03-.27-.58-.32,2.94-2.73-.07-.07-2.19,1.94-.86.29-.04.04-1.85.56-2.77.72-4.66.51,4.01.45-1.67-.79.49.21l.6.37c-1.45-1.13-1.46-1.05-.05.24.15.31,1.9,2.69.21.12.54.82,1.07,1.65,1.54,2.51-.07-.13,1.88,4.23,1.18,2.41-.75-1.96,1.02,3.22.88,2.77.83,2.68,1.48,5.41,2.03,8.16,2.11,10.57,2.63,21.43,5.43,31.87,1.29,4.78,3.36,9.26,4.91,13.95.46,1.39.91,2.79,1.17,4.22-.14-.75,0-2.75-.14.01-.16,3.31-.09.04.09-.39-1.31,3.13.62-.96,1.26-1.57s2.85-1.06,3.21-1.5l.71-.07c-1.96-.1-2.05-.02-.26.26-2.1-.19-4.21-.88-6.25-1.39-2.72-.69-5.49-1.38-8.12-2.37.69.26,2.26,1.26-.68-.33-.29-.16-4.34-2.97-1.99-.99-.79-.66-1.44-1.43-2.21-2.1-3.34-2.93.7,1.29-.79-.81-1.34-1.9-2.51-3.92-3.56-5.99-.47-.93-.91-1.88-1.35-2.82,1.22,2.62-.18-.44-.44-1.11-1.18-3.04-2.27-6.12-3.3-9.22-4.04-12.08-7.12-24.49-9.2-37.06-.13-.78-.55-4.74-.3-1.54l-.12-1.35c.04-1.95-.07-1.81-.31.42-.53.63-4.5,6.84-5.59,6.32.63.3,4.79-1,5.41-1.12l21.46-4.36c8.47-1.72,14.14-12.22,11.52-20.3-2.91-8.99-11.22-13.37-20.3-11.52h0Z" style="fill: #d02027;"/>
    <path d="M721.84,276.98c-5.5-2.53-11-4.38-16.7-5.54-.05-.36-.09-.73-.14-1.09-3.38-.68-6.45-3.19-6.78-7.54-.59-7.91-.68-15.84-.68-23.77-1.08-1.26-1.78-2.99-1.8-5.2-.24-24.13-6.19-49.03-15.13-70.78-5.05-12.28-12.18-20.86-15.55-33.58-3.13-11.77-10.73-20.84-16.23-31.49-.29-.56-.51-1.12-.66-1.67-7.32-2.17-15.18-1.55-22.28,3.53-3.19,2.28-5.41,4.98-6.97,8.02-2.11.61-4.11,1.74-5.98,3.31-16.09,13.51-15.68,34.98-16.92,54.07-.62,9.51-3.45,18.61-5.88,27.78-1.3,4.9-2.4,9.83-3.34,14.78,1.04.93,1.85,2.25,2.25,4.02,2.41,10.75,3.94,22.38-6.29,29.31-.9,16.23-.37,32.48.56,48.74,3.72,13.25,10.61,25.56,12.77,39.25,1.91,12.18-.86,23.31-9.17,31.05.01,5.19-.07,10.38-.3,15.56,0,.23-.02.45-.03.68-.48,1.31-.96,2.62-1.43,3.94-11.75,33.49-17.92,71.78-3.81,105.58,4.11,9.85,14.08,12.79,22.56,5.96,9.23-7.43,11.03-19.3,12.18-30.34.09-.91.18-1.83.28-2.74,0-.06.44-3.28.3-2.52.32-1.98.71-3.98,1.38-5.87,1.32-3.72,4.4-7.31,7.61-10.63,8.12-8.38,16.53-16.52,25.02-24.57,14.95.33,29.29-9.59,35.95-22.74,4.04-7.99,5.59-16.64,5.33-25.33,1.99-2.78,3.31-5.54,4.16-8.36-1.11-1.24-1.86-2.87-2-4.92-.53-7.83.39-16.21,2.74-24.2.53-3.06,1.34-5.45,2.28-7.22.1-.18.5-.81.89-1.43,5.51-12.32,14.77-22.66,27.6-26.99.17-.59.33-1.2.45-1.82,1.08-5.41-.6-12.67-6.2-15.25ZM675.42,214.8c-.91,13.66-4.89,29.84-13.07,41.81-5.04,7.38-7.1,12.81-15.07,12.28-3.48,7.91-6.7,15.93-9.75,24.03-1.99-1.21-4.27-1.88-6.69-1.71-7.98.58-14.82,3.97-19.84,9.71-1.27-19.49-2.31-39.05-1.33-58.58.47-9.26,1.39-18.47,3.13-27.58,1.13-5.93-6.59-16.84-5.03-22.66-.66-9.83,7.88-14.57,8.13-24.43.43-17.11,4.51-33.54,13.9-47.99,2.94-4.53,8.64-5.17,12.64-1.63,12.38,10.97,34.25,82.24,32.7,90.62-.13.71-.33,1.34-.58,1.91.64,1.14.98,2.54.87,4.23Z" style="fill: #d02027;"/>
    <path d="M640.88,311.09c17.37,0,17.4-27,0-27s-17.4,27,0,27h0Z" style="fill: #d02027;"/>
    <path d="M458.05,357.47c45.12,23.02-5.67-23.01-7.75-27.67-2.63-5.9-19.2-17.47-13.95-13.73,26.69,19.03-23.85-41.04-3.8-33.04s-8.63-32.11,2-26.85c29.73,14.72,14.84-17.55-8.31-24.55-26.1-7.89,15.13-22.82,5.09-20.73-11.35,2.36,9.25-26.83-2.39-21.41s6.03-37.41-4.38-29.65c-13.63,10.16-5.08-20.67-7.4-32.73l.74-1.74c13.09-8.66-5.92-41.92-17.83-24s-32.58,27.57-46.25,45.45c-14.54,19.02-19.19,41.2-23.33,64.26-3.74,20.81-7.76,41.6-11.25,62.46-.01.08-.04.16-.08.23-2.62,4.63-4.33,9.87-4.88,15.68-.2,2.12.34,4.16,1.38,5.95.08.14.11.3.09.46-1.51,10.64-2.72,21.34-3.24,32.07-.56,11.44-2.33,26.63,4.06,36.78,7.67,12.17,25.99,13.97,38.94,15.25,14.57,1.44,29.5-.15,43.59-4.05,3.31-.92,5.99-3.19,7.56-6.07.09-.16.23-.29.41-.35,12.56-4.18,25.75-6.5,38.94-7.03,9.9-.39,3.53-9.36,12.06-5.01Z" style="fill: #6c130f; opacity: .33;"/>
    <path d="M245.37,314.03c-6.05-25.71-27.26,18.43-30.5,7.52-.64-2.17,4.09-21.2-26.85,2.31-15.18,11.54-22.84,26.29-34.87,41.05,2.49,6.28,7.96,11.15,13.53,15.16,6.64,4.79,17.16,8.35,21.93,1.69,2.85-3.98,3.1-11.05,8.77-10.51.68.06,1.33.27,1.97.51,6.91,2.58,14.87,2.18,21.5-1.04,2.92-1.42,5.87-3.43,9.63-.22,1.89,1.61,3.16,3.85,3.66,6.28,1.01,4.9,4.59,12.71,10.46,10.47,2.39-.91,4.01-3.2,4.33-5.74,2.85-22.46,1.63-45.43-3.55-67.47Z" style="fill: #6c130f; opacity: .33;"/>
    <path d="M155.46,284.57c4.18,18.35,32.06-6.32,36.49-7.9,9.53-3.39,19.17-6.42,29.09-8.29,3.93-.74,8.03-1.35,11.39-3.51,20.99-13.53,4.85-37.41-15.83-31.47-24.24,6.96-62.23,46.44-61.15,51.17Z" style="fill: #6c130f; opacity: .33;"/>
    <path d="M97.96,193.37c22.1,8.39,44.42,16.84,67.83,20.17,2.97.42,6.33.65,8.61-1.29,2.08-1.77,2.55-4.81,2.43-7.54-.5-11.19-8.44-20.93-17.95-26.85s-20.55-8.77-31.26-12.05c-16.9-5.19-33.41-11.66-49.33-19.34-9.9-4.78-70.54-27.79-50.6,5.99,3.14,5.32,23.05,15.87,25.78,17.71,14.46,9.79,28.09,16.96,44.51,23.2Z" style="fill: #6c130f; opacity: .33;"/>
    <path d="M365.44,458.19c-.66-1.93-1.65-3.93-3.48-4.84-1.26-.63-2.84-.69-3.82-1.7-.42-.43-.69-1-1.18-1.34-.28-.19-.61-.29-.94-.38-6.84-1.96-15.12.08-21.05-3.84-.47-.31-24.92-.88-42.3,4.21-.95.28-1.96.62-2.5,1.4-.42.61-.47,1.37-.52,2.1-.54,9.21-1.08,18.41-1.62,27.62-.12,2.05-.24,4.12.16,6.14,1.35,6.9,8.14,11.41,14.35,15.15,4.51,2.72,10.03.44,14.82,2.62,12.23,5.57,10.84-7.03,10.85-11.34.02-11.67-10.24-24.32-6.64-35.42,3.74-11.54,17.61-4.02,20.49-3.75,1.71.16,3.51.01,5.09.68.85.36,15.22,10.36,16.99,13.17.58.92,1.15,1.93,2.11,2.47,1.05-4.25.61-8.79-.81-12.94ZM317.07,468.85c-3.25,2.76-4.88-5.28-.62-5.28s2.69,3.52.62,5.28Z" style="fill: #6c130f; opacity: .33;"/>
    <path d="M152.16,440.01c-2.77-3.22-5.23-8.25-9.43-7.55-2.65.44-4.26,3.15-5.12,5.69-2.28,6.72-1.95,14.21-4.85,20.68-3.41,7.6-10.68,12.62-15.98,19.04-9.03,10.96-11.99,26.61-7.6,40.12,4.76,1.35,9.95,1.1,14.55-.71-1.08,6.91-2.83,13.71-5.22,20.29,19.58-.38,39.13-2.07,58.49-5.05,2.24-.35,4.62-.77,6.28-2.32,2.02-1.89,2.43-4.89,2.71-7.65,1.76-17.27,6.03-40.92-.96-57.53-6.97-16.57-22.81-13.32-32.88-25.01Z" style="fill: #6c130f; opacity: .33;"/>
    <path d="M1368.59,280.8c-23.86-40.61-85.06-84.28-118.29-107.06-7.64.28-15.28.55-22.92.47-7.85-.08-15.72-1.27-23.55-1.17-7.9.1-15.4,1.35-23.32.3-8.42-1.13-16.74-2.82-25.22-3.46-4.51-.08-9.04.43-13.54.48-1.78.02-2.81-1.13-3.1-2.47-.02-.02-.05-.03-.07-.04-16.09,3.73-33.32,1.77-49.9-.26-19.51-2.38-39.95-4.63-58.28,2.46-12.15,4.7-22.41,13.17-32.44,21.5-21.35,17.73-42.69,35.47-64.04,53.2-8.24,6.85-16.87,14.24-20.2,24.43-3.33,10.18-5.45,20.2,5.05,22.38,13.8,16.79,7.74,9.04,29.6,6.13.45-.06.85-.3,1.16-.63,2.79-2.97,14.69-22.16,27.24-28.86s25.78-.9,27.9-2.8c7.34,5.6-9.63,42.54-9.29,51.77,1.26,34.12,14.97,41.89,17.76,71.21,4.33,45.6,6.66,111.26-9.38,161.86,90.32-3.73,196.24-3.77,283.69-26.65-28.98-11-29.47-71.55-25.98-130.29,1.77-29.65,15.39-54.9,16.04-77.02.41-14.06-1.29-28.94-3.76-43.87,18.48,30.21,53.88,84.86,57.15,84.12,71.34-16.18,49.23-56.06,37.67-75.73Z" style="fill: #6c130f; opacity: .33;"/>
  </g>
  <g id="c" data-name="Layer 2">
    <g>
      <path d="M911.04,288.68c-6.35-14.23-2.77-29.77,9.83-38.59l19.35-13.54c6.44-4.51,12.7-9.1,18.69-14.26-1.25-12.26-1.23-22.95-.08-34.98.39-4.05-.17-8.82-1.34-12.49-4.73-14.84-31.36,4.91-37.85,10.2-9.41,7.68-18.57,14.54-28.63,21.42-9.95,6.8-19.96,13.98-26.74,23.99l-19.41,28.66-24.83,33.13c-3.82,5.1-9.48,7.71-16.12,6.2-10.77-2.45-21.43-4.36-32.49-5.51-30.07-3.13-39.21-14.05-63.43-14.3-8.57-.09-15.1-5.13-16.46-14.01-2-13.07-3.15-25.99-4.3-39.5-2.56-30.06-8.95-59.28-23.17-85.97-5.49-10.29-10.18-19.66-14.4-30.41-1.46-3.72-5.66-6.92-8.9-7.71-3.83-.93-9.31.44-12.39,4.01-20.62,23.9-33.21,54.27-34.07,86.21-.32,11.7,1.98,22.86,3.88,33.93,1.18,6.86-1.14,10.32-5.09,15.33-12.89,16.36-2.29,49.54,5.99,68.92,9.29-14.4,19.95-24.55,36.46-27.72,1.7-6.05-2.65-10.13.68-15.44.96-1.53,4.66-3.18,6.59-2.89l8.02,1.24c2.14.33,5.78-.38,7.34-1.75,5.33-4.67.63-17.42,7.99-36.4,6.5-16.78,4.02-23.39,6.83-40.33,13.03.99,4.64,36.28,2,44.04-3.06,9-4.14,17.62-4.69,27.21-.39,6.87-4.27,15.1-11.55,15.55l-13.06.8,1.08,9c.27,2.22-.15,7.1-2.75,7.42-5.24.65-9.1-.06-14.33,2.62-9.75,5-23.75,16.02-23.9,28.41s-.38,19.66-5.16,30.68c-7.52,17.34-12.89,35.81-18.8,54.02-10.03,30.86-2.31,57.38,12.52,85.78,12.41-21.31,14.06-37.77,33.84-55.26l38.13-33.71c7.74-6.84,14.5-14.25,20.09-22.67,6.64-10,8.43-21.34,4.6-32.51-13.25-38.65,40.53-65.39,35.47-52.57-2.68,6.79-13.62,8.59-22.67,22.94-5.85,9.29-7.21,19.32-3.51,29.46,7.98,21.89-4.74,40.47-19.89,55.4-16.61,16.38-31.53,27-48.79,44.2-6.67,6.65-12,14.19-16.03,22.8l-17.88,38.23c-7.08,15.13-13.04,36.79.82,49.81,4.35,4.08,11.52,4.55,17.39,3.22,10.63-2.42,20.51-5.58,30.99-8.81,5.53-1.7,12.49-2.3,16.94-5.99s4.36-10.98,4.68-16.07l-12.2-5.88c-7.12-3.44-12.42-9.29-14.38-17.08-3.97-15.82-9.38-28.44,3.28-43.56,6.45-7.7,16.45-10.94,26.47-9.8,14.28,1.62,28.2,5.15,41.55,10.31,12.78,4.94,19.32,17.49,16.23,30.86-3.95,17.09-17.09,34.55-34.49,36.34l-14.89,1.54c-1.69.17-9.88,14.08-.84,23.39l33.91,34.94c10.37,10.68,23.46,15.86,37.04,7.29,23.84-15.03,22.16-38.84,31.38-38.93,1.29-.01,2.74,3.46,2.34,4.74-5.78,18.54-18.75,40.46-38.3,46.68s-32.08-5.64-44.02-18.16c-2.43-.22-6.04-.03-8.62.44-24.75,4.53-48.51-.98-69.27-16.56-1.59,6.35-1.07,12.3-.8,18.6,1.77,41.38-22.93,69.81-28.04,61.99-.72-1.1-.49-4.04.44-5.29,20.52-27.58,19.01-48.44,18.07-81.89-15.17,2.07-27.1-6.02-30.91-20.3-3.65-13.67-1.07-27.99,5.01-40.95,1.86-3.97,2.11-7.15-.02-10.99-18.89-34.04-25.95-62.12-12.82-99.87l14.94-42.94,6.65-16.22c1.95-4.75,1.33-9.61-.78-14.1-11.49-24.46-24.88-58.94-12.54-84.67,1.92-4,5.15-7.54,7.61-11.71-14.84-44.45.38-95.02,30.34-128.92,6.48-7.33,15.35-9.86,24.21-6.14,6.22,2.61,10.82,7.39,13.28,13.81,2.67,6.95,5.66,13.13,9.49,19.71,14.95,25.73,24.48,53.63,27.35,83.46l4.91,50.97c.55,5.76,4.47,8.81,9.93,8.82,11.82.02,22.91,3.35,33.89,7.45,23.42,8.74,33.86,4.89,59.19,11.77,3.12.85,7.1-.15,9.03-2.66l9.64-12.48c11.26-14.58,21.62-28.75,31.55-44.41,5.66-8.92,13.38-16.95,21.84-23.24l43.03-31.98c12.15-9.03,36.42-24.3,46.18-5.05,8.24,16.26-2.22,30.81,4.55,44.84l21.83-23.27c5.42-5.78,11.38-12.15,19.01-14.79l26.14-9.04c13.86-4.79,31.27-12.56,44.05-4.72,7.06,4.34,18.43-5.88,44.36.53l22.61,5.59c24.48-4.82,48.57-3.61,71.63,5.16,4.11,1.56,8.52,1.31,12.35-.54,10.39-5.04,22.11-4.15,30.99,3.23l14.81,12.31c11.41,9.48,22.93,17.94,36.17,24.66,8.46,4.3,14.76,10.32,19.88,18.34,19.66,30.8,37.76,40.64,47.53,55.49,6.18,9.39,7.21,20.52,2.36,30.8-6.8,14.41-17.25,34.38-31.5,41.54-10.69,5.38-22.62,4.03-31.44-3.94-19-17.18-27.38-40.26-36.43-63.76-.93,18.91-.3,56.43-7.13,72.3l-11.97,27.86c-2.02,7.06-.4,15.79-.85,23.29-.89,14.94-1.47,29.14-1.36,44.01s2.96,27.99,9.87,40.32c9.72,17.36,24.65,19.1,23.05,26.25-.26,1.19-3.59,2.17-4.87,1.7-10.59-3.9-18.52-11.22-24.75-20.48-15.83-23.54-12.91-49.39-11.74-75.88l1-22.78c.02-.43-.54-2.52-.88-2.25l-1.47,1.18-9.05,7.17c-2.75,2.18-4.49,4.9-5.26,8.51-2.38,11.11-9.8,20.27-20.37,23.79-11.68,3.88-23.54,1.01-31.68-9.33-20.09,15.74-54.21,18.01-77.46,10.44-6.95-2.26-13.05-5.74-19.34-9.55-7.66-4.64-10.98,4.91-27.95,4.8-14.1-.09-25.45-9.08-28.12-22.96-.64-3.32-2.13-6.03-4.57-8.24-3.23-2.92-12.1-12.99-12.03-13.31-1.61,7.08,1.43,24.74,3,33.28,5.98,32.58,9.92,56.69-1.51,89.1l-11.99,34.01c-.84,2.38-3.6,5.29-6.05,6.29-.95.39-3.57-.44-4.03-1.34s-.98-3.6-.6-4.6c4.78-12.55,9.79-25.02,13.91-37.88,17.74-55.41-6.34-82.01-2.42-135.68-11.65-22.07-16.59-45.77-13.91-70.54l4.17-38.5-12.7.93c-5.74.42-10.45,2.07-14.14,6.73l-14.06,17.8c-11.77,14.9-17.84.54-23.17,31.45-3.9,22.61-9.06,41.44-29.21,55.24l-16.13,11.04c-5.6,3.83-8.25,10.12-10.45,16.33-2.5,7.03-2.88,13.61.54,20.4,7.56,15.02,13.43,30.27,18.75,46.27,3,9.03,6.71,17.38,11.36,25.61.77,1.36.17,6.04-1.38,6.08-3.35.08-7.36-3.5-8.96-6.71-10.8-21.78-14.57-41.88-26.2-63.13l-1.73,24.66c-.96,13.61-4.12,26.37-10.65,38.44-7.72,14.29-17.33,26.81-28.3,38.8-3.09,3.37-12.24,10.29-15.67,6.3-.88-1.02-.52-4.44.52-5.49,12.96-13.16,24.95-26.46,34.13-42.57,19.7-34.57,2.33-55.88,22.03-100.97,3.17-7.27,8.66-12.03,15.45-15.89,14.69-8.34,30.93-23.04,32.82-40.47-4.11-2.97-8.61-4.65-13.82-5.03-4.46-.33-5,8.41-9.39,8.18-1.22-.07-3-2.48-3.2-3.79-.77-5.25,1.87-9.71,5.56-12.4,3.92-2.86,9.19-2.39,13.93-.37,3.82,1.63,9.98,2.19,11.24-2.95l4.77-19.45c-8.99-3.94-13.94-10.55-17.81-19.21ZM1174.43,343.65c-16.1,16.08-29.51,6.71-30.37,16.51l-1.26,14.35c-.23,2.63,1.03,5.3,3.57,6.59,20.43,10.4,35.42,26.96,45.22,47.55,4.34,9.12,12.95,13.52,22.48,9.53,24.98-10.46,11.96-46.55,21.65-42.35,3.59,1.56,3.29,6.5,4.79,10.79,20.61-20.86,31.09-48.99,32.29-78.23.94-23.08,1.48-45.04.76-68.09-.42-13.35-5.63-26.02-12.38-37.09-5.85-9.6-17.57-12.77-14.65-17.83.65-1.13,3.85-2.14,5.11-1.68,15.44,5.59,24.76,24.8,28.72,39.59l10.11,37.73c6.29,23.5,18.87,54.17,38.55,69.06,11.68,8.84,25.19-2.45,31.84-11.83,6.8-9.59,18.01-27.31,14.23-39.04-2.35-7.28-7.2-13.09-12.53-18.44-13.87-13.91-26.26-28.19-37.9-44.02-5.38-7.32-11.48-13.23-19.46-17.62-16.76-9.22-31.62-20.15-45.95-32.8-7.99-7.05-18.07-9.55-27.57-4.16-4.45,2.52-8.59,1.61-13.4-.16-23.4-8.61-48.71-8.87-73.18-3.81l-22.42-6.2c-12.42-3.44-24.55-3.11-36.97.42-11.63,3.32-9.84-13.05-46.51,3.18-17.12,7.58-26.6,6.21-36.91,16.95l-18.16,18.93c-25.14,26.2-33.19,26.89-57.86,46.02-13.36,10.36-11.12,27.89-.76,38.32,5.32,5.35,14.02,5.24,19.62-.74,20.63-22.04,37.78-46.68,54.14-72.25,8.95-13.99,20.66-26.53,36.72-31.99,1.28-.44,4.78.79,5.1,2.01,1.26,4.8-7.07,6.39-10.13,10.42-16.73,22.09-22.14,50.44-25.47,77.65-4.8,39.28-7.93,66.32,12.03,102.12,4.21,7.54,8.11,14.31,14.17,20.52l2.77-6.98c.41-1.04,2.84-2.28,3.89-2s2.72,2.57,2.74,3.77l.21,14.94c.18,12.56,11.14,22.63,23.73,21.86,6.06-.37,11.27-4.28,15.32-8.49l24.53-25.49c8.3-8.63,18.24-14.85,27.73-22.24,3.11-7.2,2.95-16.6,1.45-24.31-27.8-1.79-30.58-21.97-35.4-25.52-4.03-2.97-7.29-6.43-7.12-11.81.3-9.73,2.11-19.89,7.36-28.15,9.98-15.72,50.51-12.48,66.8-8.59,14.01,3.34,23.09,14.79,24.39,28.87,1.69,18.29.84,17.81-15.62,34.24ZM981.85,263.98c6.19,2.35,16.36-1.79,18.72-8.78,3.29-9.74,5.53-18.87,8.36-29.61-3.85,3.7-6.37,7.75-9.37,12.18l-17.72,26.21ZM1144.74,346.54c12.18-.57,19.99-4.61,27.49-12.4l-9.13-1.72c-6.99-1.32-10.99-7.19-10.17-14.05.71-5.92,4.97-9.62,10.59-9.2,12.71.94,5.62,14.41,12.95,14.89,8.37.54,5.83-16.79,1.74-24.08-3.25-5.79-9.26-9.55-15.86-10.99-14.79-3.22-29.76-3.69-44.77-1.91-6.37.76-11.92,4.58-14.14,10.55-1.93,5.18-7.34,22.61,2.05,22.3,7.65-.25,2.27-14.02,15.03-13.11,3.98.28,7.76,3.34,9.06,7.96,1.48,5.28-1.11,10.29-4.81,13.14-4.14,3.18-9.03,2.67-15.04,2.38,5.6,8.78,13.99,14.5,24.84,15.66l3.16-30.63c.2-1.9,2.14-4.24,3.77-4.51,1.46-.25,4.06,2.53,4.01,4.4l-.78,31.34ZM1173,434.01c3.02-1.63,5.4-4.62,5.92-6.68.5-1.99-.6-6.12-1.91-8.11-9.24-14.11-22.03-24.93-38.2-31.02-7.97-3-40.44,31.13-45.82,39.41,3.47,3.77,7.26,6.54,12.09,8.59,21.65,9.21,46.83,9.23,67.91-2.18ZM686.74,497.24l-4.77,21.17c-2.4,10.66,19.64,3.65,24.55-3.47-7.7-1.78-14.29-5.58-14.33-13.4-.03-5.54,3.53-10.04,8.42-10.2s9.68,2.16,9.59,8.11c-.02,1.58,1.1,4.39,2.38,4.67,5.93,1.32,11.37-13.51,7.24-22.93-2.15-4.91-7.55-8.17-12.71-9.9-11.9-3.99-23.66-6.74-36.19-8.69-4.48-.69-10.53.16-14.26,2.51-7.94,5.01-12.08,14.77-10.13,23.71.38,1.74,3.54,4,5.04,3.82,4.51-.52,5.56-11.69,15.28-7.41,4.29,1.89,5.59,6.95,3.71,11.54-3.34,8.13-11.87,9.35-20.74,6.67,3.24,9.35,11.44,15.31,21.21,17.22,5.37-8.21,4.8-32.65,13.01-31.18,2.27.4,3.26,5.2,2.69,7.75ZM692.35,583.37l-25.86-26.79c-13.44,3.19-25.52,6.46-37.69,11.07,14.05,13.22,31.83,18.42,50.18,18.05,4.73-.1,9.38.4,13.37-2.33Z" style="fill: #6c130f;"/>
      <path d="M374.94,538.37c9.51,9.26-16.47,21.02-22.82,23.17-18.93,6.42-39.58,4.7-57.05-5.09-1.59-.89-3.76-2.65-4.01-4.01-.28-1.58.43-4.62,1.04-7.14-23.03-2.56-42.18-15.19-52.94-35.28-1.78-3.32-10.31-19.02-5.6-20.86.95-.37,3.86.5,4.4,1.47l8.89,15.97c16.05,28.82,52.4,36.96,80.91,22.62,2.42-3.98,1.46-13.34-2.98-15.31-16.9-1.86-31.33-10.41-38.35-26.42-3.71-8.46-4.07-18.75-1.23-27.58,2.57-7.98,8.68-12.68,16.54-15.08,14.83-4.53,50.71-10.71,60.83,4.98,6.5,10.08,8.2,22.94,5.53,34.41-6.07,26.04-29.37,25.9-31.09,30.12-1.54,3.79-.57,11.16,2.62,14.18,12.42,4.83,26.22,3.62,38.34-1.2,22.98-9.14,23-31.98,25.14-51.87.45-4.17,1.24-8.56,6.82-9.97,1.78,32.12.65,63.19-35.01,72.9ZM331.86,479.15l3.21,19.19c1.56,9.32,18.13-2.57,20.21-8.22-5.77-1.13-14.66-.53-17.1-7.96-.75-2.29-.12-6,1.47-8.13,1.27-1.7,4.76-2.99,6.6-2.48,4.43,1.24,4.07,6.86,9.18,7.59,7.13,1.02,6.14-16.44.1-24.33-7.65-9.99-38.55-4.19-50-1.58-13.92,3.17-15.45,19.18-11.29,30.13.65,1.72,5.18,2.47,6.9,1.66,4.78-2.24,2.91-10.32,10.45-10.21,2.46.04,5.37,2.13,6.34,4.83,1.53,4.31.57,8.93-2.36,11.81-2.68,2.64-6.88,3.4-11.58,4.18,2.23,4.62,21.53,14.11,21.41,4.79l-.26-20.81c-.02-1.32,2.13-4,3.37-3.84,1.03.13,3.18,2.27,3.36,3.37ZM366.45,543.4c-4.24-3.4-8-2.82-12.48-3.38l-19.84-2.49c-8.49,2.72-16.03,6.04-24.72,7.33-3.18.48-6.12,2.24-7.21,4.9,21.09,10.48,45.26,7.22,64.25-6.36Z" style="fill: #6c130f;"/>
      <path d="M125.93,167.31c-31.04-12.85-56.03-15.01-90.02-28.84-3.84-1.56-7.97-2.3-11.81-1.33,2.55,21.4,23.95,40.46,39.65,52.39,3.38,2.56,6.83,5.57,9.23,9.01-.8,2.28-4.63,2.8-7.01,1.73-17.21-7.71-31.67-20.36-41.4-36.57-4.35-7.25-17.2-33.77-1.5-35.43,5.88-.62,12.04.13,17.73,2.05,10.29,3.47,20.09,6.73,30.62,9.58,30.45,8.24,61.53,16.23,87.74,34.12,5.01,3.42,20.24,16.19,12.92,23.03-3.84-1.94-6.76-5.25-9.82-8.05-10.56-9.67-23.02-16.18-36.35-21.69Z" style="fill: #6c130f;"/>
      <path d="M390.13,118.06c-10.24,8.83-19.95,16.89-28.41,27.04-12.65,15.17-20.58,32.69-25.97,51.69-.86,3.03-2.66,6.68-5.53,7.25-3.03-2.75-3.26-7.62-2.34-11.7,6.47-28.78,22.64-53.25,45.13-72.05,8.72-7.29,16.76-14.26,24.96-21.98,4.22-3.97,8.32-7.71,14.25-8.94,3.09-.64,6.78.98,8.05,3.9,8.05,18.57,8.09,39.15-.62,57.38-1.35,2.83-4.25,5.88-7.05,6.43-2.18-3.03-1.47-7.18-.6-10.68,2.73-10.91,7.86-38.96.96-48.02l-22.82,19.68Z" style="fill: #6c130f;"/>
      <path d="M221.75,367.77c-9.26,1.93-14.47-7.93-15.66-18.01-7.03,2.56-13.47,18.01-21.27,16.76,1.45-12.04,8.75-22.45,18.94-28.62,21.72-13.17,48.42,10.63,41.06,12.75-.68.2-2.5.43-3.26.16l-10.73-3.89c.5,8.62,1.16,18.71-9.09,20.85Z" style="fill: #6c130f;"/>
      <path d="M375.6,320.86c2.51,8.03,4.85,19.25-3.99,22.84-4.18,1.7-8.82,1.12-12.22-1.76s-4.6-6.85-6.79-11.69l-8.18,10.32c-.43.54-2.59,1.71-2.96,1.16-4.3-6.38,5.66-30.96,26.6-32.07,12.25-.65,24.76,4.95,32,14.42-3.11,8.56-15.73-3.67-24.46-3.21Z" style="fill: #6c130f;"/>
      <path d="M798.22,420.65c-1.99,5.22-7.62,7.62-12.58,6.72s-9.57-5.24-9.22-11.24c.17-2.85.7-5.42,1.26-8.93l-9.87,2.9c-1.04.3-3.58-.04-4.14-.82-3.5-4.93,12.99-18.06,31.34-14.12,10.78,2.31,19.48,10.29,23.8,21.66,1.07,2.83,1.69,7.2.42,9.77-7.28.48-10.28-12.57-17.74-16.65-1.32,4.52-1.99,7.38-3.26,10.72Z" style="fill: #6c130f;"/>
      <path d="M227.02,222.12c-3.25.1-7.57-2.17-7.88-5.49,0-6.57,32.74-3.02,37.8-2.44,16.46,1.88,31.7-1.78,43.97-13.1,1.98-1.83,5.55-4.29,8.26-4.87,3.03.83,4.27,8.12,1.89,10.3-7.98,7.3-17.34,12.66-27.48,16.41-17.45,6.44-32.61-1.57-56.56-.81Z" style="fill: #6c130f;"/>
      <path d="M652.25,377.02c-3.88,7.14-9.34,13.34-16.9,10.78-9.44-3.2-6.64-12.67-4.98-19.88l-13.17,4.36c-.67.22-2.89-.04-3.52-.15-5.03-.88,8.22-17.45,26.72-15.41,19.27,2.12,25.96,24.36,19.65,27.08-.95.41-2.83-.85-3.58-1.75l-4.21-5.02Z" style="fill: #6c130f;"/>
      <path d="M87.71,494.33c-.43,1.32-3.26,3.06-4.42,3.18-6.39.67-1.5-16.16.74-21.1,4.44-9.79,9.57-19.24,16.72-27.36l24.37-27.66c1.17-1.33,4.37-2.62,5.87-2.12,4.54,9.02-12.1,24.92-18.68,32.32-11.24,12.65-19.24,26.27-24.61,42.73Z" style="fill: #6c130f;"/>
      <path d="M163.76,245.82c-4.61-1.19-7.03-2.93-9.51-5.75-17.17-19.51-32.29-34.19-57.96-41.87-1.2-.36-3.24-3.2-2.8-4.35,2.62-6.92,23.34,1.57,29.25,4.69,16.11,8.49,29.32,21.55,39.37,36.68,2.06,3.1,2.61,6.35,1.64,10.6Z" style="fill: #6c130f;"/>
      <path d="M104.7,523.24c-1.24,5.47-2.42,10.04-6.22,13.66-3.44-5.4-4.42-10.88-3.29-16.65,4.04-20.64,12.54-40.39,25.61-56.71,3.52-4.4,8.28-7.39,13.86-6.82-.08,3.23-1.11,6.71-3.12,9.33-12.92,16.88-22.02,35.84-26.84,57.19Z" style="fill: #6c130f;"/>
      <path d="M869.14,327.9c-6.81,5.34-19.15-1.2-21.78-7.88-.59-1.49-.27-4.49.66-5.44,3.72-3.82,10.41,5.34,14.52,5.84,1.91-7.22-1.11-12.82-3.84-18.87-6.05-13.43-5.32-27.85,4.33-39.33.77-.91,3.78-1.97,4.95-1.57,1.69,14.71-9.46,18.3-.18,38.08,3.91,8.32,9.82,22.53,1.34,29.18Z" style="fill: #6c130f;"/>
      <path d="M474.15,342.36c-2.33,2.04-6.61,1.26-9.35.11-14.12-5.9-24.98-15.98-33.3-28.79-3.74-5.76-8.37-10.81-13.36-15.44-.63-.58-1.42-2.46-1.12-3.17s2.38-1.69,3.15-1.61c8.66.91,14.92,9.46,20.42,16.4,7.63,9.63,16.18,17.73,26.83,23.92,2.76,2.11,5.35,4.11,6.75,8.58Z" style="fill: #6c130f;"/>
      <path d="M121.34,287.02c-17.26-.26-32.66,1.84-48.95,6.03-1.34.34-3.97-.23-4.99-.89-1.18-.77-.38-4.86.85-5.68,3.46-2.28,7.49-4.32,11.58-5.42,12.48-3.37,43.1-7.97,53.84,2.34-3.72,2.48-7.85,3.69-12.35,3.62Z" style="fill: #6c130f;"/>
      <path d="M97.11,437.33c-4.63,6.68-26.51,32.06-31.25,24.08-.7-1.17-.39-4.31.81-5.32,11.82-9.84,21.23-20.47,29.82-33.22,3.72-5.52,8.44-10.83,14.42-13.65.92-.44,4.37-.27,4.6.67s-.16,2.82-.87,3.73c-6.2,8.04-11.82,15.46-17.54,23.72Z" style="fill: #6c130f;"/>
      <path d="M117.44,555.71c-2.03,4-8.03,14.76-12.67,12.71-1.16-.51-2.27-3.76-1.7-5.15,6.58-16.04,17.58-40.27,27.49-54.98,9.37,5.22-9.67,40.61-13.12,47.41Z" style="fill: #6c130f;"/>
      <path d="M413.26,243.13c-5.09,2.4-10.93,4.42-16.2,4.24-1.28-1.28-.2-4.6,1.21-5.77,22.59-18.73,55.13-20.4,54.35-10.78-.12,1.44-2.75,3.6-4.49,3.76-12.17,1.12-23.37,3.13-34.87,8.54Z" style="fill: #6c130f;"/>
      <path d="M72.44,426.66c-3.55-1.74-.96-7.47,1.63-9.35,11.32-8.2,19.8-18.22,26.06-30.87,2.28-4.61,8.78-9.78,10.93-7.73.54.52.93,2.64.68,3.34-5.74,16.24-19.7,40.93-39.31,44.6Z" style="fill: #6c130f;"/>
      <path d="M442.35,341.77c19.88,20.37,38.62,14.17,37.46,23.06-.2,1.56-2.9,3.83-4.82,3.74-17.43-.81-31.94-9.73-41.42-23.96-1.87-2.81-2.78-5.29-1.91-8.77,4.56,1.22,7.88,3.06,10.69,5.94Z" style="fill: #6c130f;"/>
      <path d="M97.43,375.54c-4.99,7.98-21.24,24.4-29.46,18.75-.32-2.56,2.55-5.85,4.62-7.34,22.7-16.29,25.32-37.61,37.08-35.82.98.15.92,3.36.36,4.24l-12.6,20.17Z" style="fill: #6c130f;"/>
      <path d="M193.32,223.91c-4.32-3.05-5.51-7.64-6.68-12.22-2.6-10.16-5.6-19.66-10.05-29.1-1.73-3.66-2.43-7.24-1.71-11.68,14.48.51,27.33,45.8,18.44,53Z" style="fill: #6c130f;"/>
      <path d="M483.32,392.97c1.71,9.2-39.59,3.44-48.42-15.51-.44-.94-.27-4.46.68-4.6,5.52-.8,15.65,12.07,43.61,15.94,1.53.21,3.88,2.78,4.14,4.17Z" style="fill: #6c130f;"/>
      <path d="M452.88,271.91c-10.7-5.6-20.27-9.54-31.86-11.59-3.31-.59-7.34-1.83-10.2-4.03-.02-2.31,3.79-4.26,6.15-4.3,13.21-.23,32.18,3.42,40.65,13.7.75.91.77,3.87.53,4.89-.29,1.22-3.87,2.06-5.27,1.33Z" style="fill: #6c130f;"/>
      <path d="M318.41,206.39c-11.01-6.63-1.93-35.34,1.09-44.5.6-1.83,3.44-3.59,4.93-3.39,1.89.26,4.13,3.63,3.67,5.79-2.16,10.14-3.93,19.43-5.39,29.58-.61,4.2-1.54,7.8-4.3,12.52Z" style="fill: #6c130f;"/>
      <path d="M156.98,356.22c-3.8,4.14-28.01,33.04-31.94,25.11-4.22-8.51,18.56-24.65,25.36-29.79,1.8-1.36,6.19-2.69,7.95-1.56,1.29.83-.29,5.06-1.37,6.23Z" style="fill: #6c130f;"/>
      <path d="M162.32,328.85c5.69,6.64-15.49,23.45-31.94,20.92-2.84-.44-.71-6.7,1.23-7.84l21.46-12.67c2.1-1.24,7.76-2.15,9.25-.41Z" style="fill: #6c130f;"/>
      <path d="M364.14,209.71c-9.96-2.79,8.92-44.89,21.76-40.04,2.22.84.94,5.34-.41,6.96-6.35,7.56-11.05,15.31-14.87,24.35-1.31,3.1-3.1,6.21-6.48,8.74Z" style="fill: #6c130f;"/>
      <path d="M94.54,262.84c3.96,7.45-36.79,6.13-39.52,5.98-1.57-.09-3.82-1.96-4.23-3.1-3.79-10.44,40.56-8.91,43.76-2.88Z" style="fill: #6c130f;"/>
      <path d="M444.95,297.67c-11.01-3.75-18.36-13.56-32.45-22.64-.85-.55-1.89-2.38-1.86-3.25.12-3.46,8.89-2.45,16.14,2.71l21.7,15.45c1.29.92,2.56,3.71,2.56,5.15,0,2.03-3.84,3.34-6.09,2.58Z" style="fill: #6c130f;"/>
      <path d="M75.79,213.57c1.44,1.38-1.7,4.4-3.87,4.85-22.77,4.76-42.35-12.2-34.96-15.19,3.95-1.6,8.71-.2,12.4,1.59,8.49,4.12,16.38,6.34,26.43,8.74Z" style="fill: #6c130f;"/>
      <path d="M85.99,240.01c-5.76,8.31-29.81,4.42-37.86,2.53-1.38-.32-3.27-2.67-3.52-3.85-1.44-6.83,14.26-5.39,19.35-4.52l17.29,2.96c1.33.23,3.6,1.42,4.74,2.89Z" style="fill: #6c130f;"/>
      <path d="M106.8,321.28c-1.68,1.63-5.56,3.36-7.65,2.19-9.39-5.26,28.64-33.56,34.07-24.51.77,1.29-.64,4.68-2.14,5.46-9.23,4.77-16.92,9.71-24.27,16.86Z" style="fill: #6c130f;"/>
      <path d="M475.98,426.52c-2.32-.32-5.14-1.46-7.15-2.92-8.71-6.33-17.21-11.16-26.64-16.42-1.19-.67-2.59-3.33-2.37-4.57,1.25-6.98,40.44,8.82,36.16,23.92Z" style="fill: #6c130f;"/>
      <path d="M471.49,452.48c-2.23,3.98-9-.38-13-5.62l-15.04-19.72c-.62-.81-.84-3.4-.25-3.99,3.42-3.4,13.27,5.34,16.54,9.57l11.67,15.09c.69.89.6,3.75.08,4.68Z" style="fill: #6c130f;"/>
      <path d="M341.63,284.01c-.94,7.45-11.23,15.19-15.7,10.93-6.05-5.76,3.94-20.79,8.29-26.54.69-.91,3.09-1.89,4.14-1.58,1.23.36,2.1,4,1.51,5.2l-5.97,12.12,3.95-1.8c.84-.38,3.92.61,3.78,1.68Z" style="fill: #6c130f;"/>
      <path d="M473.67,481.24c-2.72,3.59-7.65.44-9.57-2-5.13-6.5-10.75-11.61-17.2-16.92-.85-.7-1.69-3.22-1.44-4.25,1.91-8.09,34.24,15.2,28.21,23.17Z" style="fill: #6c130f;"/>
      <path d="M210.88,220.22c-4.81-2.31-5.17-6.76-6.14-10.78l-4.89-20.12c-.3-1.26.59-4.84,1.81-4.94s3.23.72,4.87,1.57c7.39,9.4,9.78,22.23,4.35,34.26Z" style="fill: #6c130f;"/>
      <path d="M440.41,549.2c-3.41,0-4.81-4.91-4.31-7.84,2.71-15.88-3.99-22.97.71-24.63,1.05-.37,3.28.63,4.12,1.68,9.77,12.04,5.05,30.79-.53,30.79Z" style="fill: #6c130f;"/>
      <path d="M111.67,331.99c-7.66,15.72-23.78,20.91-25.17,17.62-.46-1.09-.26-4.24.75-5.18,5.63-5.23,12.59-11.21,18.59-16.11.74-.6,3.47-.7,4.39-.56,1.1.16,1.98,3.16,1.45,4.24Z" style="fill: #6c130f;"/>
      <path d="M94.49,299.68c7.8,3.52-17.83,27.61-24.17,21.7-4.54-4.23,15.97-18.43,20.14-21.52.74-.55,3.23-.54,4.04-.18Z" style="fill: #6c130f;"/>
      <path d="M459.52,505.32c-.4,1.37-3.77,2.56-4.79,2.02-4.66-2.49-4.29-9.92-12.09-21.6-.55-.83-.59-3.45-.19-4.33,2.13-4.7,21.1,10.04,17.07,23.92Z" style="fill: #6c130f;"/>
      <path d="M448.92,210.15c-18.08,13.99-32.17,5.15-24.27,1.71,5.18-2.26,9.87-4.53,14.72-7.3,2.79-1.59,6.28-2.52,9.56-1.11,2.01.86,1.66,5.41-.01,6.7Z" style="fill: #6c130f;"/>
      <path d="M133.47,573.89c-9.54-9.55-4.03-22.18,2.46-31.31,8.82,7.58,2.18,21.68-2.46,31.31Z" style="fill: #6c130f;"/>
      <path d="M439.71,190.89c-4.1,3.15-20.43,16.07-23,7.49,1.83-4.72,20.62-21.2,24.2-13.41.62,1.36.09,4.93-1.21,5.92Z" style="fill: #6c130f;"/>
      <path d="M391.67,212.43c-3.64,6.81-9.82-.15-17.74,10.87-.72,1-3.3,2.05-4.36,1.68s-1.74-3.2-1.39-4.54c2.46-9.4,13.41-14.24,22.09-12.58,1.08.46,1.93,3.59,1.4,4.57Z" style="fill: #6c130f;"/>
      <path d="M389.18,232.6c-.75.78-3.92,1.84-4.44.81-2.12-4.24,1.07-10.41,6.05-11.44l12.43-2.56c1.15-.24,3.6.09,4.26.88s.5,3.59-.15,4.53c-4.84,6.99-12.37,1.74-18.14,7.77Z" style="fill: #6c130f;"/>
      <path d="M427.81,158.07c7.63,6.1-14.9,21.19-17.32,16.25-.35-.71-.54-3.2,0-3.98,2.35-3.45,12.13-16.43,17.33-12.27Z" style="fill: #6c130f;"/>
      <path d="M887.42,341.62c5.94.7-.33,22.18-6.88,21.14-1.42-.23-3.49-2.82-3.51-4.62-.07-6.15,5.17-17.14,10.39-16.52Z" style="fill: #6c130f;"/>
      <path d="M879.89,332.71c6.13,2.32-10.17,20.04-14.73,16-.77-.68-1.58-3.25-1.46-4.55.73-8.38,12.39-12.89,16.2-11.45Z" style="fill: #6c130f;"/>
      <path d="M297.45,264.14c-.25,7.68,8.84,3.99,5.63,11.11-.58,1.29-3.1,3.31-4.56,2.81-9.19-3.16-8.03-14.14-5.52-21.87,3.47,1.57,4.56,4.41,4.44,7.95Z" style="fill: #6c130f;"/>
      <path d="M315.61,262.37c3.32,1.03,5.85,22.46-1.93,22.19-5.82-.2-3.6-17.47,1.93-22.19Z" style="fill: #6c130f;"/>
      <path d="M1230.98,261.93c-.42,8.8-2.63,18.93-12.47,18.87-4.75-.03-9.49-2.95-10.92-8.27-.99-3.69-.14-7.6.29-12.3-6.86.76-14.43,10.62-17.5,7.4-4.64-4.88,5.97-15.13,15.87-18.41,26.7-8.86,47.4,17.75,43.01,24.18-.49.72-3.48.41-4.31-.26l-13.97-11.22Z" style="fill: #6c130f;"/>
      <path d="M1077.41,249.52c-.15,8.26-3.41,18.55-11.98,18.68-3.51.05-7.25-1.87-9.33-4.99-3.12-4.67-2.18-9.17-1.14-15.79-6.1.51-17.45,12.01-22.01,6.86,7.63-15.39,25.87-22.77,41.75-17.76,14.46,4.56,23.12,18.82,18.57,22.6-3.33,2.76-10.59-7.22-15.85-9.6Z" style="fill: #6c130f;"/>
    </g>
  </g>
</svg>