<?xml version="1.0" encoding="UTF-8"?>
<svg id="a" data-name="Layer 1" xmlns="http://www.w3.org/2000/svg" width="818.93" height="1421.04" viewBox="0 0 818.93 1421.04">
  <path d="M379.35,542.71c-.09-10.46-1.64-26.18-1.97-35.8-1.76-51.84-3.26-85.39-26.28-133.16,23.02,47.77,24.52,81.32,26.28,133.16.33,9.62,1.88,25.34,1.97,35.8Z" style="fill: #6c0f08;"/>
  <path d="M818.15,1389.1c-4.49-21.32-21.58-40.93-31.86-60.32-8.83-16.65-15.36-21.68-19.82-41.11,10.79-3.89,35.74-15.18,40.91-25.72,2.89-5.9-14.61-86.92-16.89-98.52-15.93-81.06-31.53-162.15-41.6-244.18-4.63-38.02-8.96-76.08-13-114.16-4.75-47.84-8.2-105.27-23.36-150.23,28.47-28.55,80.71-76.82,82.05-121.82.53-17.7-11.72-55.34-16.52-74.51,4.76-2.52,11.13-5.19,13.71-9.84.91-4.65-12.94-36.11-15.33-42.05-13.34-33.21-21.18-65.04-37.7-97.04-1.73.76-3.09,1.48-4.96,1.82,16.09,28.86,20.82,50.97,32.07,81.93,6.5,17.88,15.62,36.09,21.41,53.86-8.3,5.97-83.65,45.78-88.58,36.41-5.15-9.76-17.68-52.29-25.26-59.97l-1.64.07c-2.27,4.63,9.44,28.41,11.88,33.98-2.9,9.55-7.25,29.93-5.41,38.87,7.59,37.08,32.71,61.12-20.36,75.33-39.9,10.69-81.23,6.61-121.08-5.93-28.11-8.84-58.26-23.54-88.58-17.15-4.59.9-16.2,2.92-18.67,6.41l.45,1.31c5.02,1.84,15.94-2.99,21.82-3.53,6.31-.58,12.57-.58,18.88-.65-14.3,8.13-24.83,17.39-41.51,18.04-25.36-11.35-15.77-39.61-13.53-60.83.82-7.87.84-15.8.03-23.67-2.54-25.27-11.91-46.1-11.8-71.7.74-21.85,6.8-42.7,10.69-64.25,2.09-11.54-3.16-72.09-14.89-72.69-1.12,3.2,4.64,18.03,6.02,23.23-22.91-23.12-27.52-18.42-53.66-31.79-16.52-8.45-10.41-16.28-36.84-20.38-.28-8.01-.71-8.59,5.67-13.57,36.29-.61,64.49-7.09,99.37-9.13l-.25-4.66h0,0c-10.01-.11-24.34,2-34.62,3.38-20.59,2.78-38.61,5.29-59.55,5.61,10.35-13,18.52-22.12,22.28-39.11,4.16-18.79,23.85-44.37,5.7-61.68,5.24-40.72-6.88-90.05-54.86-97.4-4.7-.72-9.25-.37-13.97.09-7.17-3.99-13.13-4.44-21.27-3.58-47.32,5.03-80.39,48.27-73.49,94.93-19.74,17.82-8.3,45.9,11.73,58.09-25.16,16.58-34.9,41.33-24.06,70.15-33.07-.93-51.19,8.99-74.84,31.41-12.2,11.57-25.66,25.95-26.15,43.84-.05,2.24-.07,4.49-.06,6.74-4.03,5.35-9.76,12.43-12.69,18.41-17.71,36.1-20.14,78.33-41.25,113.2-6.67,11.03-15.46,21.51-19.7,33.73-3.08,8.8-3.97,18.21-2.59,27.43.98,6.63,2.7,11.52,5.5,17.53-5.12,32.7,9.95,61.79,44.36,67.14,11.75,1.82,21.38-.87,29.27-9.92,8.59.88,14.85,1.31,23.55,1.01-4.01,20.47-7.89,40.96-11.64,61.47-2.01,11.03-4.59,22.44-4.94,33.62-.26,8.39,6.37,14.35,12.2,19.3-5.53,21.73-8.12,51.5-9.04,73.77-2.52,61.12,2.07,123.99,13.48,184.1,5.4,28.44,4.15,54.4,4.9,83.16.68,25.71,4.86,51.36,5.77,76.72-1.33,2.54-3.29,6.03-4.39,8.58,1,3.26,1.82,6.3,3.38,9.33l-6.99,1.97c-23.41-11.26-35.21-5.73-59.16.69-5.33,1.44-10.33,6.2-12.49,11.25-9.91,26.29,6.83,53.86,9.42,79.8.57,9.15-1.07,18.62-2.33,27.66-2.96,20.39-1.39,39.33,5.82,58.55,7.69,20.5,28.13,46.68,52.8,36.85,31.2-12.43,17.53-47.39,19.62-72.5.67-8.06,8.28-9.27,4.29-18.47l-.25-.55c1.01-7.98,4.89-6.57,2.73-17.1,6.56-8.35,5.8-7.71,6.27-17.89.23-4.85,4.03-8.34,3.12-14.36l-.13-.98c-.11-.81-.24-1.62-.4-2.42l6.32-7.27c1.38,4.24,4.79,13.8,5.17,17.86,3.1,33.1,5.3,42.42,41.69,43.59.16,1.79.92,9.89.63,10.91-3.82,13.7-6.1,27.16-7.52,41.03-2.03,19.91-.06,21.2,9.16,37.8,3.66,6.59,3.17,18.44,13.18,24.08,17.6,14.07,42.3,15.96,63.89,13.9,19.52-1.86,31.8-7.96,29.27-29.19-3.57-29.91-26.98-46.95-38.26-73.6-3.81-9.04-7.07-21.6-8.42-31.35,22.97-8.86,16.17-18.65,13.02-39.17-.23-1.51-2.75-4.18-3.88-5.25-.5-11.27-.9-22.54-1.19-33.8,32.35-27.93,63.1-57.66,92.11-89.04,27.15-29.03,54.28-54.85,57.61-96.63.28-3.93.5-7.86.66-11.8,1.75,8.15,2.44,18.51,3.26,26.94l3.79,38.42c5.83,62.12,9.72,124.63,17.33,186.59,1.3,10.6.64,24.15,11.16,29.59,16.73,9.3,37.43,11.33,56.09,13.06-11.58,10.89-22.82,22.44-34.27,32.99-18.06,15.87-45.19,23.76-46.63,52.02-.21,4.19,1.54,12.65,5.13,15.34,18.34,13.5,52.35,13.46,73.62,7,12.84-3.91,25.87-13.13,39.47-18.94,15.24-6.51,45.53-4.85,42.91-28.37-1.32-11.88-4.79-24.92-7.22-36.72-3.99-11.67-6.29-13.69-9.21-27.16,13.42-3.73,20.88-7.99,20.13-23.46-.52-10.81-1.41-21.6-2.2-32.39l-4.4-60.8c-5.09-65.78-8.8-131.65-11.13-197.58-.63-17.02-2-36.62-2.18-53.4l.33.81c2.38,5.95,4.88,15.82,6.68,22.2l10.85,38.37c19.83,69.57,37.19,144.84,53.79,215.48l12.92,55.78c1.59,6.75,5.19,24.67,7.91,29.68,8.11,14.96,49.37,15.19,62.59,14.46,1.41,14.84.34,19.34-3.5,33.71-2.72,10.19-3.89,28.15-1.93,38.41,2.24,2.71,4.44,5.46,6.84,8.02l.16,1c1.85,11.74-2.53,25.89,9.06,33.36,17.16,10.92,41.01,11.3,60.48,8.62,17.85-2.45,31.78-10.21,27.49-30.55ZM352.47,135.07c8.38,3.78,2.05,25.8-.15,32.13l-.98,1.27c-.99-2.39.86-28.94,1.12-33.4ZM188.84,130.34c8.1-11.76,21.95,3.12,27.33,9.41.99,1.16,2.29,1.1,3.59.87,4.18-6.01,8.67-42.77,14.44-52.97,7.07-13.74,23.76-19.62,38.19-21.45,3.84-.48,15.52.79,17.23-2.72-4.1-6.99-31.48.61-37.73,3.35-22.7,9.97-35.88,35.45-45.26,57.08-4.75-1.93-6.72-2.39-11.77-2.47-.15-1.42-.28-2.84-.38-4.27-3.25-46.42,29.86-81.08,75.68-84.12,23.83-1.98,19.41,26.34,26.85,28.72,3.62-5.18-4.21-21.2-6.95-25.98,13.39-.04,26.35,4.73,36.51,13.46,16.02,13.74,21.47,31.43,23.1,51.66-6.12-16.4-13.91-31.3-31.76-37.1-5.06-1.65-12.37-1.5-17.06,1.12l-.22,1.04c5.73,5.47,18.46-2.58,30.92,12.04,16.13,17.51,15.77,36.72,15.57,58.79-.34,38.62,1.55,66.3-29.49,94.45-29.21,26.49-61.81,7.62-83.38-16.97-11.41-13.5-15-22.18-17.39-39.55-23.6,10.82-39.28-28.01-27.99-44.4ZM210.15,126.23c5.79-10.34,7.73-17.02,15.02-27.67.47,2.21-6.72,32.17-8.44,34.02l-1.73-1.37-4.86-4.99ZM212.08,181.28c1.41,1.36,1.77,4.49,2.59,6.57,6.08,15.55,5.95,26.64,6.64,42.88-9.03,3.73-16.05,7.11-23.03,14.05-2.71,2.69-5.74,6.08-8.73,8.3-3.34-.61-6.28-1.34-7.66-4.95-10.84-28.52,4.04-54.19,30.19-66.85ZM95.96,296.54c24.21-24.96,41.71-38.63,77.28-40.74,5.49.19,9.64.48,15.1,1.04-9.51,18.48-23.43,26.61-36.12,42.72.6,6.83,3.4,22.28-3.75,26.06-18.69,2.68.08-36.3-17.57-27.26-7.54,11.27,16.61,43.8,13.19,55-12.2,13.28-28.42-44.64-30.51-46.31-8.07,4.76,5.99,26.84,8.61,33.52,2.26,5.77,12.77,15.62,11.71,20.83-8.36,5.78-16.64-8.44-20.75-14.17-4.68-7.58-9.05-15.47-11.42-24.1-.66-2.42-.88-5.05-2.42-7.01l-.89.47c-4.59,11.71,8.34,29.66,14.84,39.07,1.86,2.7,4.66,4.6,6.33,7.44-1.35,1.7-3.76,3.45-5.91,2.48-10.71-4.85-18.09-17.97-22.58-28.34-1.62-3.74-2.67-6.97-4.59-9.95l-1.21-.21c-3.04,9.3,8.67,26.34,14.09,33.57-26.94-13.28-21.45-45.53-3.43-64.11ZM29.53,597.6c-33.29-24.35-22.67-83.66,20.4-89.11,22.97-1.68,43.05,6.76,57.47,24.68l-2.81,6.25c-8.01-6.83-16.66-12.81-27.47-13.68-10.13-.78-20.15,2.5-27.85,9.12-15.22,13.17-17.39,38.94-3.76,54.19,9.95,8.03,16.99,9.96,29.74,10.99-15.33,9.32-31.07,8.29-45.72-2.43ZM51.67,587.51c-20.51-15.88-8.32-54.98,18.3-56.72,16.14-1.05,22.68,4.55,34.23,13.79-2.02,2.16-5.48,5.64-5.69,8.48-.56,7.44-2.96,24.98.71,31.12l1.04.23c3.07-6.18,3.19-21.7,2.04-29.4,2.02-3.18,3.53-4.59,6.16-7.28,1.37-9.08,2.52-15.62,12.67-18.25,14.08-.97,61.52,1.9,69.33,15.4.56,2.49.13,2.92-.95,5.41-3.96,3.44-62.08-14.93-66.03-5.88l.67,1.47c3.05,1.48,9.73,1.42,13.42,1.74,13.48,1.15,50.82,5.63,59.3,15.51l-.37,2.42c-10.45,7.48-68.02-8.5-72.93-1.1l.54,1.66c4.76,2.57,53.69,4.42,65.16,8.12,1.76,1.82,1.4.79,1.42,3.05-6.83,8.79-44.1,1.4-60.83,4.61l-.99.2c-2.63.73-3.29.75-4.87,2.62l.76.99c4.79,1.22,14.85-.1,20.22.11,9.1.36,19.17.29,28.18,1.29l.55.7c-5.08,6.78-41.16,12.18-50.44,14.46-8.82,2.17-11.73-.71-18.01-5.45-15.02.8-42.04-.36-53.6-9.32ZM210.48,454.5c2.79,3.16,5.8,35.46,6.06,41.67-19.1-5.82-51.62-5.79-71.15-1.81-2.07.6-3.03,1.33-4.58.58-1.51-7.91,2.52-31.32,4-40.09,18.66,4.75,47.78,6.92,65.67-.34ZM148.53,450.62c7.58-1.94,12.1-2.86,19.81-3.58,12.3-1.29,29.15.23,41.06,3.65-7.94,2.1-13.25,2.67-21.25,3.2-13.3,1.02-26.67-.08-39.62-3.27ZM210.24,499.27c-7.39,2.89-9.79,2.95-17.61,3.69-7.75.12-40.14,1.64-44.08-3.59,2.83-2.39,12.44-2.61,16.49-2.8,11.48-1.15,33.76-.05,45.19,2.71ZM216.37,500.87l.61.72c2.63,15.82-11.08,31.22-23.24,39.45-11.81-9.52-28.3-11.97-42.84-15.19-6.55-4.65-9.98-15.86-11.98-23.22,18.92,5.47,60.38,7.56,77.45-1.75ZM175.73,593.74c2.32-2.56,3-4.56,4.39-7.71,4.06,5.5-3.01,30.34,4.6,36.86,5.08,4.35,18.3,5,22.65,9.01l-.53,1.09c-6.22,3.08-20.95,3.41-28.07,3.23-12.51-.66-20.95-1.18-32.91-4.93,31.03-11.02,30.18,1.07,29.87-37.55ZM88.72,1365.92c-34.6-5.07-46.18-54.18-43.17-83.55,1.6-17.47,5.39-29.57,1.67-47.28-4.45-21.21-16.66-47.82-7.01-68.81,2.26-4.9,7.53-6.59,12.21-7.76l1.57.34c-.29,2.66-1.73,7.08-2.25,10.82-3.13,22.45,4.78,43.8,6.42,64.96,2.06,30.93-8.07,60.29,4.22,90.36,8.49,20.78,16.89,34.41,40.86,37.31-5.78,2.26-8.33,3.06-14.5,3.61ZM107.33,1355.85c-22.23,5.44-34.75-17.67-41-34.86-10.24-28.17-2.11-54.71-3.03-83.59-1.04-25.96-12.72-52.86-3.71-78.61,1.31-3.42,13.78-5.43,17.71-6.11,8.21-.75,15.41,1.43,23.08,3.83-13.8,11.52-16.38,32.01-14.08,49.23,1.27,9.56,7.66,15.99,15.51,21.06-.2,4-.73,8.64-1.09,12.68-1.08-.19-2.16-.36-3.24-.52-2.85-.4-3.16-.21-5.16,1.31l.26,1.43c1.95,2.25,4.78,2.5,7.71,3.13-.32,2.76-.41,7.08-1.94,8.87-3.07.76-5.18.83-6.42,4.06,1.75,1.83,2.74,1.38,5.73,2.14,2.18,2.95,1.23,7.02.99,11.06-2.76.93-6.22,1.89-8.65,3.33l-.42,2.04c1.98,1.76,4.85,1.38,7.91,1.54,1.37,1.87,1.43,12.64.63,15.05-4.85,2.34-8.45-2.71-14.55-.05l-.49,1.95c7.69,6.31,22.95,3.53,31.46.35-.27,6.86-.07,13.4.1,20.25.78,9.03,4.28,37.6-7.3,40.43ZM116.04,1288.93c-3.46,2.86-8.01,3.44-12.35,4.33-.16-4.94-.02-10.11.05-15.08,4.86.21,13.89-.67,15.74,4.21-.39,2.91-1.69,4.23-3.43,6.54ZM113.83,1261.81v.97s-1.91,1.24-1.91,1.24c-2.52,1.26-4.61,2.73-7.12,2.55-1.25-2.68-.57-3.83-.24-7.18,3.57,1.03,5.48.94,9.28,2.42ZM105.07,1245.25c4.29.97,7.27.28,11.32,1.42l.07.87-2.47,1.6c-2.96,1.47-5.41,3.31-8.31,3.15-1.35-2.64-.76-3.72-.61-7.04ZM120.43,1270.66c-3.77,2.97-6.61,2.8-11.1,2.59l-.58-.56c.57-1.5,10.73-7.64,13.1-9.21,1.26,1.98.51,5.65-1.43,7.18ZM113.45,1256.44l-.1-.81c6.07-3.88,9.31-6.17,14.53-11.02,1.89,8.93-7.03,12.3-14.43,11.83ZM121.28,1240.6c-4.88.67-10.49-.25-15.46-.81.67-10.04-1.23-14.12,9.69-15.81,1.2.07,2.41.16,3.61.25,16.56,1.35,13.15,9.24,2.16,16.37ZM130.65,1221.48c-.56.55-3.6-.73-4.76-1.11-8.59-1.71-20.17,1.67-25.17-.32-8.96-3.58-11.04-20.22-10.07-28.89,2.43-21.67,3.98-27.43,24.29-34.85,1.47,1.26,12.91,20.25,15.76,23.95,6.57,8.55,12.33,14.27,19.83,21.92-4.88,5.24-14.4,13.99-19.87,19.3ZM292.22,1379.31c1.16,3.63.1,9.11-.91,12.75-14.56,17.77-74.76,10.96-87.65-6.23-5.31-7.1-11.89-28.59-17.25-37.68-.32-.54-.38-11.98-.39-13.59,6.45,4.98,12.98,27.2,17.28,34.35,5.95,9.93,19.05,14.5,30.29,16.68,16.65,3.21,41.88,3.12,56.75-5.87,1.21-.73.22-.5,1.88-.41ZM254.33,1305.04c4.05,9.63,10.17,18.22,15.46,27.26,5.12,8.84,29.41,34.31,16.52,44.14-9.1,6.93-35.01,6.9-45.93,5.4l-.95-.13c-8.68-1.22-27.24-6.04-30.93-14.62-11.75-27.36-22.9-33.92-18.4-64.31,12.23,23.48,19.03,1.91,30-7.48,2.93-2.51,5.91-3.54,9.58-4.71,12.4-1.44,19.95,3.23,24.67,14.45ZM193.78,1278.61c19.54.16,31.04-1.39,50.1-4.35l1.26.09c1.32,2.82,2.79,11.25,3.49,14.71-23.73-9.59-33.01,1.01-46.48,19.46-1.1-.06-1.85-.41-2.92-.76-5.36-5.07-5.02-21.34-5.45-29.15ZM408.74,619.92c-7.37,30.69-11.02,62.41-12.55,93.9-.63,13.03.37,26.7-1.3,39.66-2.02-9.43-2.16-21.4-2.57-31.15l-1.63-39.28c-1.32-31.02-3.52-60.95-7.22-91.77-1.58-13.15-2.08-32.03-4.19-44.45-1.1,4.76.29,10.1.05,15.5-1.86,4.43-.37,6.1-2.51,8.8l1.88,24.04c-14.21,4.33-23.39,6.71-38.26,8.7-.6-8.52-1.16-16.85-2.16-25.34l-1.07-1.24-1.27.02c-1.11,2.02-.8,7.12-1.02,10.07h0c-.22,5.77,1.49,24.46,1.93,31.09,1.75,26.05,1.85,52.69-2.36,78.53-3.14,19.32-13.5,31.76-29.18,42.56,6.47-42.07,8.54-84.69,6.18-127.18-.33-6.93-.69-21.76-1.67-28.03l-.95-7.97c-1.36.67-2.54,1.09-3.51,2.23,1.42,44.24,4.19,86.86-1,131.09-.6,5.09-4.66,31.76-2.99,34.48,9.08,4.13,30.37-22.72,33.04-30.64,10.61-31.48,9.75-72.58,6.38-105.31,12.64-1.5,26.67-3.86,38.48-8.79,3.5,30.8,5.88,61.71,7.15,92.68l1.79,41.25c.23,5.22-.77,14.79,1.85,20.26-.74,12.01-1.19,24.03-1.95,36.03-.2,3.11,2.07,4.69,4.49,4.75.24,40.52,12.23,179.03,10.98,207.89-.44,10.28-2.12,20.41-5.44,30.18-12.99,38.22-95.52,115.02-127.83,144.3-10.14,9.18-21.69,17.52-31.25,27.19-1.68,1.7-2.56,2.99-2.85,5.39l1.22,1.34c3.24.04,13.29-10.16,16.41-13.04-.05,9.91-.29,20.51.98,30.37.23,1.81,2.35,4.1,3.37,6-16,14.27-58.08,15.78-79.11,14.05-5.64-.47-20.65-3.99-24.87-1.22l.53,1.59c7.97,6.08,46.88,4.89,57.56,4.29,17.49-.99,33.01-3.99,47.36-14.52.57,5.36,3.67,17.04,1.54,21.53-3.2,6.78-19.8,10.1-26.45,10.91-22.78,2.76-50,6.29-71.99-1.58-9.28-3.32-9.27-26.56-11.03-34.9-1.5-6.87-3.93-13.47-6.14-20.08l7.21-7.29c9.95,11.52,33.2,25.5,47.58,31.07,11.2,4.34,24.97-2.98,28.12-14.63l-.59-.82c-7.62.42-11.49,18.22-30.24,9.64-33.39-15.27-67.89-53.61-81.99-86.79,4.32-2.41,21.21-13.96,18.62-18.84l-1.84-.56c-2.28,1.2-11.77,9.76-15.1,12.36,1.05-3.05,1.48-5.7,1.25-8.92-1.93-26.78-4.54-53.48-5.72-80.33-.76-17.41.66-34.96-.8-52.31-.63-7.45-2.54-15.1-3.64-22.51-1.61-9.52-3.28-18.95-4.7-28.51-4.76-31.21-7.76-62.65-8.98-94.19-2.24-49.12.55-84.03,8.3-131.94,33.12,22.18,64.64,33.57,104.31,39.36,4.16.61,15.19,2.38,18.81,1.79,2.74-2.75,4.65-20.87,5.64-25.91,7.97-40.72,14.01-81.57,16.71-123,.66-10.13,1.72-21.34,1.77-31.43-1.79-14.77.11-25.78-.34-39.53-.47-14.53-1.14-29.55-1.72-44.1-.26-6.6-1.36-12.69-1.46-19.17-.74,4.22.05,16.17.23,21.13.66,17.35,1.32,34.68,1.25,52.05-.02,4.77,1,9.57-1.74,13.44-3.33,46.57-4.94,92.15-13.86,138.24-3.21,16.59-7.63,36.97-9,53.59-5.91-.73-11.82-1.53-17.72-2.36-32.68-4.84-65.11-15.44-92.87-33.61-7.77-5.09-22.43-13.54-21.26-24.35,3.28-30.45,10.58-60.79,15.77-91.07,12.82,7.78,34.16-3.05,48.31-4.35,3.53-.33,11.63-2.54,14.95-3.93-.1,3.81.7,20.38-1.26,22.13-5.87,5.23-22.54,4.49-27.46,11.06-.66,4.16,1.08,4.76,4.64,6.67,10.61,5.69,64.82,9.66,67.79-4.23-2.1-7.46-19.62-7.85-26.32-13.21-2.95-5.1-1.96-25.93-1.98-32.59,3.26-1.22,6.18-2.57,8.16-5.53.18-11.7,15.19-13.7.67-26.43-.7-.62,1.28-8.44,1.51-10.35,30.22-19.94,25.99-48.37,21.15-79.47-1.51-9.68-.4-17.64-11.83-19.83-16.02-3.84-48.19-3.77-62.44,2.78-6.74,3.1-9.78,55.59-5.82,64.7,2.27,5.23,3.83,8.59,7.04,13.04-11.1-1.26-16.9-1.73-27.9.16-.7-14.13-.99-28.28-.9-42.42.09-17.67,3.61-75.74-4.21-87.98l-1.02-.13c-2.58,5.65.99,22.43,1.14,29.6.56,26.58-1,53.1-.77,79.7.05,5.74-3.22,14.6-4.85,20.33-5.79-5.9-11.19-9.41-18.07-13.74-7.51-16.53-27-25.93-44.62-24.94-4.84.27-11.23-.18-13,5.28,6.48,4.51,27.33-10.3,51.42,17.41-33.67-11.02-58.45-4.71-73.58,29.08-1.18-3.53-2.06-7.16-2.64-10.84-1.43-9.05-.58-18.31,2.46-26.96,4.08-11.48,10.81-19.06,17.14-29.15,5.44-8.84,10.05-18.17,13.78-27.86,10.96-28.24,15.64-57.24,27.63-84.59,2.49-5.68,7.55-12.49,11.3-17.58,2.31,9,7.23,19.85,17.45,22.91,4.22.16,7.41-.22,10.87,2.56,8.71,7.01,12.81,2.03,18.04.9,5.55-1.2,9.7,6.22,14.45-4.96l.39-.93c2.07-1.91,3.16-1.67,5.59-2.51,11.61-4.02,1.68-20.09-1.74-27.02,18.85-.34,15.5-17.08,13.99-30.29,6.61-7.86,17.56-18.46,24.95-25.98-1.84,11.06-13.93,63.47-12.67,69.74.42,2.1,1.16,2.54,2.8,3.66,7.86,1.1,28.37-17.46,38.23-21.81l.79-.34c3.18,8.17,5.97,15.66,13.23,21.17,3.49,2.65,11.45,9.98,15.24,9.66l.74-1.26c-1.93-6.08-14.56-12.62-18.7-17.48-4.07-4.79-2.67-13.84-9.99-16.64-7.96,1.1-28.54,16.91-38.47,22.14l9.51-45.46c6.26-30.89,5.37-48.24,37.75-62.22-.3,2.07-.65,4.13-1.03,6.18-.94,4.82-4.8,17.73-8.89,20.49l-1.15-.43c-.69-5.18,2.32-9.92,1.57-14.47-9.44,1.48-6.09,17.49-4.76,23.04,7.24,30.17,16.75,53.71,34.41,79.24,2.59,3.74,4.51,20.38,5.13,25.38,3.76,9.94-.08,22.39,1.15,34.1,1.24-14.71.48-27.51,2.74-41.49-.96-22.26-12.46-31.59-22.44-50.02-4.48-8.27-6.72-15.63-9.34-24.62,15.08,16.52,40.21,38.78,63.56,41.36,29.28,3.23,42.04-15.55,45.26-42.65,5.62,18.69,6.79,48.6,14.64,68.49,4.88,4.32,7.04,11.66,9.79,12.84-3.11-9.34-6.61-18.49-8.95-28.05-5.62-22.91-7.81-46.66-13.73-69.47-1.14-4.39-4.67-13.92-9.89-14.65l-1.32.77c-.32,3.07,3.22,7.9,4.01,11.57,5.74,26.71-5.82,61.2-38.96,56.53-26.85-3.79-48.11-25.99-65.53-45.26-2.25-2.58-3.85-11.77-5.67-16.09,14.05-12.63,16.4-40.32,13.62-58.25,20.79,23.24,52.45,51.22,85.4,31.65-.12,6.6-2.29,32.4,5.34,33.68,1.91-3.54-1.02-10.32-.88-14.66.47-15.08,18.13-3.33,23.11,2.11,10.55,11.53,17.4,25.44,26.06,38.34,5.73,8.44,11.86,16.67,17.92,24.88-11.4-3.16-30.82-14.84-33.71,5.74-.59,4.22-3.43,14.57-2.57,17.76l1.23.91c6.53-3.46,4.48-21.83,10.07-25.32,9.64-1.14,25.28,9.76,31.36,5.18.57-2.08.26-3.51-1.06-5.32-12.17-16.8-23.04-32.47-33.67-50.34,16.51,5.85,47.31,17.66,53.46,34.59,11.37,31.35-6.55,69.81-7.52,100.94-.91,29.14,10.89,53.38,12.29,82.04,1.27,20.47-5.59,35.43-4.09,54.89.64,8.24,5.33,15.19,10.11,21.66,1.04,20.38-4.1,30.87-8.78,50.34ZM508.07,1291.08c16.71.93,32.57-.34,49.14-2.54l1.65-.09.98,1.21c3.03,21.31-9.37,25.23-25.17,35.66.78-8.67.28-13.19-4.66-20.38-9.4-8.65-13.55-7.75-25.59-10.48l-.18-1.16c1.04-1.06,2.11-2.31,3.83-2.22ZM500.68,1300.35c25.04-2.26,41.15,15.87,18.61,35.88l-6.72-5.37c-10.8-9.95-19.55-10.62-33.53-11.49,6.97-8.16,11.69-14.57,21.64-19.02ZM573.61,1341.44c3.12,3.3,2.26,17.38-1.1,20.84-4.52,4.65-17.7,7.72-23.91,8.84-19.13,3.45-33.57,16.5-51.39,22.36-7.67,2.52-15.66,3.96-23.73,4.28-13.3.58-35.88-1.32-45.93-10.52-3.59-6.87-2.89-11.13-2.93-18.93.97.99,1.97,1.93,3.01,2.84,10.59,9.16,32.24,9.91,45.76,9.13,24.4-1.41,40.55-11.62,62.22-21.12,14.07-6.17,27.25-5.23,37.99-17.72ZM568.3,1313.98c12.23,34.59-13.21,31.5-34.62,40.76-25.88,11.2-46.14,24.01-75.82,20.57-10.34-1.2-21.42-1.73-28.8-10.47.57-12.14,21.28-22.41,30.18-29.32,5.14-3.99,10.75-8.09,15.95-12.11,24.81,2.42,25.32,3.65,44.04,19.21,4.07-2.91,8.6-6.66,12.81-9.81,11.67-8.75,25.02-13.73,32.07-26.81,1.69,2.65,3.14,5.1,4.19,7.98ZM683.13,496.51c-1.36-9.55,1.28-21.7,3.31-31.19,2.6,2.83,5.22,17.01,7.34,21.2,4.18,8.31,8.78,2.66,13.83,4.47,5.3,5.49,12.62,33.51,14.46,42.06-10.89,17.1-16.13,33.58-24.9,51.37l-4.55,9.01c-3.81-8.08-7.41-17.05-10.91-25.33,29.07-20.31,5.13-45.57,1.43-71.59ZM698.19,692.34l-1.7.33c-6.18-2.72-30.57-39.06-35.29-46.4-6.33-9.84-22.23-40.6-19.64-51.66,2.57,1.58,14.33,31.4,16.95,37.12l.73-3.19c1.03,9.19,23.79,38.39,30.56,47.86l-.91.76c2.78,3.4,10.34,11.13,9.29,15.18ZM693.34,672.85c-6.86-7.9-15.54-20.98-21.77-29.8-1.78-2.68-7.14-10.52-6.63-12.42.88-3.28,16.16-16.14,19.69-19.68,19.68-19.76,23.88-44.6,37.55-68.37,7.92-13.76,14.89-14.65,21.08-22.6l-.2-.98c-6.87.09-12.33,5.63-16.77,10.12-2.99-14.32-7.66-27.22-13.26-40.67,20.82-7.23,39.81-17.56,59.38-27.57,1.74.71,5.7,17.47,6.32,20.31,3.17,14.53,13.11,41.33,10.71,55.9-5.92,35.68-35.15,69.42-60.28,94.07-14.17,13.93-26.42,25.02-35.82,41.68ZM788.14,1344.14c-8.18-2.52-14.74-4.07-23.37-4.32-11.72.12-19.35,1.74-29.27,8.24-2.3-5.7-2.84-7.64-4.2-13.61,3.92-11.16,8.9-16.02,20.79-17.5,21.69,1.05,28.35,8.27,36.05,27.19ZM759.89,1289.83c.18.11,1.28.61,1.31.75,1.07,5.94,8.82,22.24,10.73,26.22-14.99-5.98-24.77-8.2-37.86,2.79-2.51,2.67-4.37,5.97-6.29,9.11-1.58-11.26-2.15-21.12-2.92-32.48,11.87-.92,23.61-3.06,35.03-6.39ZM721.73,1326.25c6.65,6.54,4.61,33.8,19.35,24.63,17.04-10.58,32.42-6,50.39-.69,6.01,6.72,20.94,26.22,19.09,34.77-.62.5-1.24.99-1.87,1.47-12.49,9.49-39.2,9.45-53.27,7.5-21.58-2.99-25.87-12.49-27.59-31.66-.4-4.4-7.72-14.5-7.88-21.05-.16-6.27.56-8.97,1.78-14.97ZM718.2,1352.46c3.95,4.35,5.29,13.06,5.64,18.74-6.95-3.86-5.68-11.84-5.64-18.74ZM812.34,1403.3c-6.03,10.94-26.67,12.56-38.25,12.73-13.71.21-32.53-1.39-43.07-10.93-5.51-5-4.46-14.36-4.37-21.19,2.12,1.63,4.49,4.47,6.81,6.38,16.78,13.85,64.27,12.62,79.82-1.32.28,5.84.37,8.67-.95,14.33Z" style="fill: #6c0f08;"/>
  <path d="M695.8,215.24c-1.89-9.69,3.32-20.49-.72-30.49,4.04,10-1.17,20.8.72,30.49Z" style="fill: #d11200;"/>
  <path d="M733.78,311.43c1.87-.35,3.23-1.06,4.96-1.82.07-2.34,1.53-6.83,2.31-11.21-.78,4.38-2.25,8.87-2.31,11.21-1.73.76-3.09,1.48-4.96,1.82Z" style="fill: #d11200;"/>
  <path d="M695.8,215.24c.14.69.31,1.38.52,2.06-.21-.68-.38-1.37-.52-2.06Z" style="fill: #d11200;"/>
  <polygon points="423.06 220.5 420.03 220.97 420.03 220.97 423.06 220.5" style="fill: #d11200;"/>
  <path d="M465.86,229.14c2.77-9.16,9.03-15.36,16.88-20.59,3.36-.2,5.77.23,7.59-2.91-.23-1.01-.89-2.14-1.73-3.33-1.4-1.99-3.3-4.14-4.55-6.13l-.37-.6c-15.48-30.53-17.5-64.39-7.57-96.93.41-1.33,4.29-15.03,4.29-14.89-.21-28,16.9-54.94,44.65-62.51,2.66-.73,6.14-1.01,9.07.92h0c13.54.07,21.19,2.32,31.39,12.17,0,0,0,0,0,0t0,0c9.1,4.63,8.97,13.22,14.22,20.87.17.25.34.49.53.74,4.27,5.77,12.17,8.26,14.85,14.91.18.44.33.91.46,1.39.59,2.18.92,4.4,1.11,6.64.57,6.72-.13,13.65.89,20.42,1.16,7.72,4.98,13.37,6.9,19.77.87,2.91,1.36,5.97,1.02,9.45,1.27,2.17.63,1.77,2.6,2.79.31-.11.6-.25.87-.41,1.92-1.15,3.12-3.54,4.49-5.59,21.5-16.63,29.59,37.32-2.56,51.56.62,4.88,1.45,14.58-4.74,16.43-6.55-.48-5.87-4.65-9.87-7.61,1.19-1.43.76.45,4.12-2.53h0c-3.37,2.97-2.94,1.1-4.12,2.52-6.75,7.21-9.45,30.55-10.41,41,.18.14.37.28.58.4,6.61-.3,15.51.08,18.39,7.36.05,2.15-1.63,4.7-3.49,5.61-10.47,12.07-17.36,32.55-9.97,47.69.77,1.64,1.59,3.16,2.1,4.89,2.33,3.96,7.47,8.01,6.94,12.33,2.57,7.69-7.35,15.78-8.75,21.89-3.83,12.27-5.83,20.51.35,33,4.28,8.41,16.23,16.2,12.19,27.19-3.33,9.06-12,15.42-6.59,26.32,2.64,5.32,11.66,13.77,17.97,12.02,2.55-3.27,1.02-4.99-.52-8.57,2.27-7.97,4.62-13.5,12.31-17.79,1-.55,2.02-1.08,3.05-1.57-1.71,9.74-4.33,21.09,1.81,29.82,3.24,4.61,10,10.08,15.23,5.08.28-3.9-1.72-10.57-1.17-12.29,3.35-10.59,13.23-13.74,17.82-24.45-.26-2.55-1.32-10.25-.81-12.29l.42-.07,5.18-.34c.52-11.19,15.77-12.44,17.12-27.05,1.17-12.62-8.36-17.14-9.22-27.69-.71-8.66,10.92-17.05,11.8-28.65.93-12.01-9.98-21.8-7.4-31.71,5.7-3.74,16.77,4.25,21.21,7.63,12.95,9.82,22.67,22.44,31.39,36,1.87-.35,3.23-1.06,4.96-1.82.07-2.34,1.54-6.83,2.31-11.21.35-1.99.57-3.96.44-5.69-1.38-18.62-14.66-15.46-23.32-25.77-3.2-3.8.97-16.53-1.89-23.89-4.28-11-14.73-13.92-19.19-23.72-.3-.67-.56-1.34-.77-2.02-.21-.68-.38-1.37-.52-2.06-1.89-9.69,3.32-20.49-.72-30.49-6.78-16.8-25.08-18.22-24.66-39.51.21-10.76,2.73-23.09-2.06-33.19-6.16-12.96-15.34-14.02-22.06-28.02-3.01-1.93-3.68-2.65-4.38-6.18-1.55-7.95-1.89-16.27-2.47-24.34,6.42,13.66,4.35,17.26,6.15,27.22-1.8-9.96.27-13.55-6.15-27.22-7.74-14.59-18.87-23.59-34.6-28.81-14.8-18.81-23.39-23.23-47.63-20.21-11.3-8.59-37.51-4.2-42.2,7.84-17.28,3.67-28.62,9.65-39.3,24.81-6.73,9.54-5.27,18-9.93,26.66-3.61,6.71-12.36,11.72-15.62,20.65-4.25,11.61,1.45,22.74-.76,33.59-3.13,15.32-21.2,28.62-17.22,46.27,1.83,8.12,11.66,16.84,5.53,24.92-7.72,10.16-15.97,16.38-14.65,31.28,7.01,3.58,31.87,2.67,41.17,8.15.39.23,1.17.38,1.63.49Z" style="fill: #d11200;"/>
  <polygon points="459.77 230.45 459.77 230.45 459.47 230.81 459.77 230.45" style="fill: #d11200;"/>
  <path d="M613.1,131.88h0c2.13-2.98,3.72-5.5,6.62-5.79-2.9.29-4.49,2.8-6.62,5.79Z" style="fill: #d11200;"/>
  <path d="M619.72,126.09c.48-.05,1-.04,1.57.05-.56-.08-1.08-.1-1.57-.05Z" style="fill: #d11200;"/>
  <polygon points="607.83 178.63 607.83 178.63 609.75 178.74 610.88 176.87 609.75 178.74 607.83 178.63" style="fill: #d11200;"/>
  <path d="M604.46,119.07c-1.92-6.4-5.74-12.05-6.9-19.77-1.02-6.77-.32-13.7-.89-20.42.57,6.72-.13,13.65.89,20.42,1.16,7.72,4.98,13.37,6.9,19.77Z" style="fill: #6c0f08;"/>
  <path d="M595.1,70.85c-2.68-6.66-10.58-9.14-14.85-14.91,4.27,5.77,12.17,8.26,14.85,14.91Z" style="fill: #6c0f08;"/>
  <path d="M579.72,55.21c-5.25-7.65-5.12-16.24-14.22-20.87t0,0c9.1,4.63,8.97,13.22,14.22,20.87Z" style="fill: #6c0f08;"/>
  <path d="M590.94,72.24c2.95,8.21.81,18.09,2.34,27.35,1.73,10.4,8.85,22.21,9.67,31.29.59-.78,1.51-1.05,2.53-2.35.34-3.48-.15-6.55-1.02-9.45-1.92-6.4-5.74-12.05-6.9-19.77-1.02-6.77-.32-13.7-.89-20.42-.19-2.24-.52-4.46-1.11-6.64-.13-.48-.29-.95-.46-1.39-2.68-6.66-10.58-9.14-14.85-14.91-.18-.24-.36-.49-.53-.74-5.25-7.65-5.12-16.24-14.22-20.87,4.96,8.07,5.82,15.06,10.79,22.5,3.03,4.54,12.76,10.1,14.66,15.4Z" style="fill: #6c0f08;"/>
  <path d="M613.45,125.31h0c-1.37,2.05-2.57,4.45-4.49,5.59,1.92-1.15,3.12-3.54,4.49-5.59Z" style="fill: #8b1e13;"/>
  <path d="M608.08,131.31c-1.96-1.02-1.32-.62-2.6-2.79,1.27,2.17.63,1.77,2.6,2.79Z" style="fill: #8b1e13;"/>
  <path d="M602.96,130.87c.38,2.85.32,3.57,2.21,5.67,2.61,1.21,1.48,1.08,4.25.58,2.29-1.73,2.53-2.65,3.68-5.24l.35-6.57c-1.37,2.05-2.57,4.45-4.49,5.59-.27.16-.56.3-.87.41-1.96-1.02-1.32-.62-2.6-2.79-1.02,1.3-1.93,1.58-2.53,2.35Z" style="fill: #8b1e13;"/>
  <path d="M544.41,178.02c5.61-3.87,12.8-11.65,15.14-18.05,0,0,0,0,0,0-2.34,6.4-9.53,14.18-15.14,18.05Z" style="fill: #d11200;"/>
  <path d="M508.6,164.32c-2.87-1.15-7.77-3.58-10.76-4.7-.48.32-.96.63-1.44.95-1,5.63,8.13,16.03,11.32,20.35,10.25,6.25,27.78,5.64,36.7-2.9,1.91-5.35,9.16-8.75,9.06-13.7-16.06,2.78-29.16,6.31-44.88,0Z" style="fill: #d11200;"/>
  <polygon points="559.55 159.97 559.55 159.97 559.55 159.97 559.55 159.97" style="fill: #8b1e13;"/>
  <path d="M551.9,159.45s0,0,0,0l.66-1.24.59,1.12c-1.29,2.78-2.66,2.32-5.99,4.14.4.13.77.23,1.12.29,2.43.43,3.73-.77,6.43-1.03,1.01-.1,1.62-.25,2.05-.45.95-.45,1.06-1.17,2.79-2.31-2.47-10.58-52.73-14.26-62.31-12.58-3.66.65-3.95.98-5.38,3.94l4.57,1.03c15.71-1.28,40.97.73,55.47,7.09Z" style="fill: #8b1e13;"/>
  <polygon points="559.55 159.97 559.55 159.97 559.55 159.97 559.55 159.97" style="fill: #6c0f08;"/>
  <path d="M559.55,159.97c-1.73,1.14-1.84,1.86-2.79,2.31-.43.2-1.04.35-2.05.45-2.71.27-4.01,1.46-6.43,1.03-.35-.06-.72-.16-1.12-.29,3.33-1.82,4.69-1.36,5.99-4.14l-.59-1.12-.66,1.24c-5.02,3.52-14.72,5.24-22.11,5.37-1.7.03-3.28-.02-4.66-.16-.83-.08-1.63-.16-2.41-.25-11.67-1.26-18.12-3-26.3-12.05l-4.57-1.03c3.29,12.92,4.01,22.52,15.85,29.59-3.19-4.32-12.32-14.72-11.32-20.35.48-.32.96-.63,1.44-.95,2.99,1.12,7.89,3.54,10.76,4.7,15.72,6.31,28.82,2.79,44.88,0,.1,4.94-7.15,8.35-9.06,13.7,5.61-3.87,12.8-11.65,15.14-18.05Z" style="fill: #6c0f08;"/>
  <path d="M496.43,152.36c8.17,9.05,14.63,10.79,26.3,12.05-11.67-1.26-18.12-3-26.3-12.05Z" style="fill: #6c0f08;"/>
  <path d="M529.79,164.82c7.39-.13,17.09-1.85,22.11-5.37,0,0,0,0,0,0-5.02,3.52-14.72,5.24-22.11,5.37Z" style="fill: #6c0f08;"/>
  <path d="M556.76,162.28c.95-.45,1.06-1.17,2.79-2.31,0,0,0,0,0,0,0,0,0,0,0,0-1.73,1.14-1.84,1.86-2.79,2.31Z" style="fill: #6c0f08;"/>
  <polygon points="551.9 159.45 551.9 159.45 552.56 158.21 551.9 159.45 551.9 159.45" style="fill: #6c0f08;"/>
  <path d="M548.28,163.76c2.43.43,3.73-.76,6.43-1.03-2.71.27-4.01,1.46-6.43,1.03Z" style="fill: #6c0f08;"/>
  <path d="M513.42,123.49c3.47-6.71,24.23-33.55,11.72-40.88-2.27,4.6-1.24,13.07-3.07,18.19-4.04,11.28-25.71,24.44-4.48,32.66,6.43,2.49,12.21,2.5,18.87.4.34-2.97.74-2.28-.6-4.14-2.87.14-26.46,1.54-22.45-6.22Z" style="fill: #6c0f08;"/>
  <path d="M581.96,87.34l1.98-.82c.42-1.19.84-1.38.18-2.5-6.71-11.44-22.36-12.69-33.84-11.33-2.03,1.79-1.99,1.15-2.18,3.16,5.15,4.55,17.61-4.27,33.86,11.48Z" style="fill: #6c0f08;"/>
  <path d="M506.09,71.69l.85.07c5.76.5,12.39,4.13,15.62,3.22l1.04-1.46c-1.07-5.35-13.94-6.87-18.64-6.81-5.47,1.14-13.77,5-15.71,10.54,3.18,2.24,11.31-4.48,16.84-5.56Z" style="fill: #6c0f08;"/>
  <path d="M567.6,105.91c1.64,2.63,1.13,2.77,3.67,3.79.69-.51,1.31-.65,1.33-1.38.23-10.05-10.65-13.71-18.35-13.25-2.75.81-6.28,2.42-7.73,5.03l.71.98c9.34,1.23,13.23-5.39,20.38,4.82Z" style="fill: #6c0f08;"/>
  <path d="M489.92,95.99l.28,1.19c5.36,0,6.72-3.38,12.2-4.31,2.68,1.71,4.98,3.74,7.94,3.53l.97-.99c-.89-5.26-7.22-7.26-11.9-7.18-5.23,2.45-6.36,2.89-9.49,7.77Z" style="fill: #6c0f08;"/>
  <path d="M553.53,141.42l-.92,2.35c2.1,3.65,5.64,3.19,8.67,6.06,3.8,3.6,1.55,9.69,6.35,11.67,4.21-10.15-4.45-18.66-14.1-20.09Z" style="fill: #6c0f08;"/>
  <path d="M494.46,137.96c-1.21-.37-1.78-.67-3.03-.55-3.53,2.98-6.6,5.78-7.87,10.4l.45,1.68c1.42.52,1.23.69,2.54.54,2.43-3.7,7.35-8.8,8.39-10.86l-.48-1.22Z" style="fill: #6c0f08;"/>
  <path d="M610.84,156.36c3.54-3.17,7.69-7.17,6.46-12.34-.45-.35-1.53-1.26-1.97-1.48-2.25,3.29-5.67,7.74-6.76,11.42.67,2.11.04,1.25,2.27,2.41Z" style="fill: #6c0f08;"/>
  <path d="M602.54,235.03l-.68.57c-2.37-4.42-5.62-7.9-10.81-6.04-1.73,2.12-1.66,4.43-2.41,7.36,4.42-4.44.17-4.53,3.86-7.19,4.92.61,7.99,5.77,8.83,10.32,1.87-.91,3.54-3.46,3.49-5.61-2.88-7.28-11.78-7.65-18.39-7.36,5.21,3.13,16.78-.74,16.1,7.95Z" style="fill: #6c0f08;"/>
  <path d="M613.45,125.31l-.35,6.57c2.13-2.98,3.72-5.5,6.62-5.79.48-.05,1-.04,1.57.05.56.08,1.17.24,1.84.47,3.77,3.56,4.74,9.67,4.8,14.25.19,15-7.99,33.79-25.86,31.49-1.16-.15-2.76-.14-3.61.91-4.74,7.46-6.62,12.39-11.22,18.42-1.06,1.39-2.27,2.84-3.69,4.4,4.25-.78,5.34-3.65,8.19-7.53-1.01,4.24-2.57,7-3.49,11.56-1.3,6.47-1.35,19.31-3.81,24.73.33.78.82,1.38,1.42,1.86.97-10.45,3.66-33.79,10.41-41,1.19-1.43.76.45,4.12-2.53,1.79-4.88,2.68-3.99,7.43-4.53l1.91.11,1.14-1.87c32.15-14.24,24.07-68.19,2.56-51.56h0s0,0,0,0Z" style="fill: #6c0f08;"/>
  <path d="M602.06,172.34c17.87,2.3,26.05-16.49,25.86-31.49.19,15-7.99,33.78-25.86,31.49-1.16-.15-2.76-.14-3.61.91-4.74,7.46-6.62,12.39-11.22,18.42,4.6-6.03,6.48-10.97,11.22-18.42.85-1.05,2.45-1.06,3.61-.91Z" style="fill: #6c0f08;"/>
  <rect x="609.98" y="128.59" width="6.58" height="0" transform="translate(452.14 734.13) rotate(-86.94)" style="fill: #6c0f08;"/>
  <path d="M487.24,196.26c-1.28.05-2.21-.31-3.57-.69h0c1.36.37,2.29.74,3.57.69Z" style="fill: #6c0f08;"/>
  <path d="M483.67,195.58c1.36.37,2.29.74,3.57.69.18,0,.37-.02.57-.05-18.38-34.24-18.07-62.8-8.49-99.65,4.44-17.08,2.13-32.34,14.62-48.36,1.12-1.43,2.21-2.79,3.28-4.09,10.4-12.54,19.4-18.97,36.88-21.95-2.93-1.93-6.41-1.64-9.07-.92-27.75,7.57-44.86,34.51-44.65,62.51,0-.14-3.88,13.56-4.29,14.89-9.93,32.54-7.91,66.4,7.57,96.93,0,0,0,0,0,0h0Z" style="fill: #6c0f08;"/>
  <path d="M497.22,44.12c10.4-12.54,19.4-18.97,36.88-21.95,0,0,0,0,0,0-17.48,2.97-26.48,9.41-36.88,21.95Z" style="fill: #6c0f08;"/>
  <polygon points="420.03 220.97 420.28 225.64 420.03 220.97 420.03 220.97" style="fill: #8b1e13;"/>
  <path d="M420.28,225.64c14.06.41,22.86,1.16,36.06,3.45-13.2-2.29-22-3.05-36.06-3.45Z" style="fill: #8b1e13;"/>
  <polygon points="459.77 230.45 459.04 229.57 459.77 230.45 459.77 230.45" style="fill: #8b1e13;"/>
  <path d="M420.28,225.64c14.06.41,22.86,1.16,36.06,3.45.88.15,1.78.31,2.7.48l.73.88h0s0,0,0,0l-.29.36,3.41,2.85,2.69-2.47.28-2.05c-.46-.11-1.24-.26-1.63-.49-9.3-5.48-34.16-4.57-41.17-8.15l-3.03.47.25,4.66Z" style="fill: #8b1e13;"/>
  <path d="M607.83,178.63c.29,4.57.63,8.95-4.49,10.93-3.16-1.56-2.92-2.89-2.94-6.4h0c-3.37,2.97-2.94,1.1-4.12,2.53,4,2.96,3.32,7.13,9.87,7.61,6.18-1.85,5.35-11.55,4.74-16.43l-1.14,1.87-1.91-.11Z" style="fill: #8b1e13;"/>
  <path d="M641.92,77.84c.69,3.53,1.37,4.25,4.38,6.18-.28-1.18-.51-2.28-.7-3.31-1.8-9.96.27-13.55-6.15-27.22.58,8.08.92,16.4,2.47,24.34Z" style="fill: #8b1e13;"/>
  <path d="M498.8,209.05c.94.71,1.91,1.37,2.88,2-.97-.63-1.93-1.28-2.88-2Z" style="fill: #8b1e13;"/>
  <path d="M528.26,218.55c-10.41.02-20.56-2.76-29.46-9.49.94.71,1.91,1.37,2.88,2,8.18,5.28,17.28,7.51,26.58,7.49Z" style="fill: #8b1e13;"/>
  <path d="M591.74,188.54c-1.01,4.24-2.57,7-3.49,11.56.92-4.56,2.48-7.32,3.49-11.56Z" style="fill: #8b1e13;"/>
  <path d="M584.44,224.83c2.46-5.42,2.52-18.26,3.81-24.73.91-4.56,2.48-7.32,3.49-11.56-2.85,3.88-3.94,6.75-8.19,7.53-1.4,1.17-2.85,2.31-4.35,3.43-21.63,16.17-53.53,27.04-77.53,11.55-.97-.63-1.93-1.28-2.88-2,.03,2.12-.12,4.19.52,6.18,24.9,17.37,66.09,3.91,86.7-15.07-1.49,10.32-3.4,23.4-4.12,34.09-.66.78-1.23,1.45-1.69,2,.64,1.65,1.19,3.19,2.01,4.77l6.43-4.11c.75-2.93.67-5.24,2.41-7.36,5.19-1.86,8.44,1.62,10.81,6.04l.68-.57c.69-8.69-10.89-4.81-16.1-7.95-.21,0-.41.02-.62.03.01-.14.03-.28.04-.43-.6-.48-1.1-1.08-1.42-1.86Z" style="fill: #8b1e13;"/>
  <path d="M501.68,211.05c23.99,15.49,55.9,4.62,77.53-11.55-.75.56-1.51,1.11-2.29,1.66-13.93,9.85-31.63,17.35-48.66,17.38-9.3.02-18.4-2.21-26.58-7.49Z" style="fill: #8b1e13;"/>
  <path d="M586.44,227.08c-.2-.12-.39-.25-.58-.4-.01.14-.03.29-.04.43.2-.01.41-.02.62-.03Z" style="fill: #8b1e13;"/>
  <path d="M476.31,320.68c9.14,24.87,23.81,42.72,44.2,59.17,4.87,3.96,10.84,20.47,19.2,16.13,18.6-9.67,30.23-33.76,41.19-50.8,3.8-6.03,7.35-13.84,10.76-18.32,1.4-6.11,11.31-14.21,8.75-21.89-5.53,7.74-10.73,15.71-15.58,23.89-11.05,18.91-28.28,53.88-48.97,63.26-3.89-3.96-7.88-12.22-11.45-15.13-21.55-17.47-37.07-37.27-46.13-63.84-7.4-21.71-24.95-57.09-15.4-79.47l-3.41-2.85c-13.67,21.22,9.04,68.66,16.84,89.87Z" style="fill: #6c0f08;"/>
  <path d="M483.67,195.58l.37.6c1.25,1.99,3.15,4.14,4.55,6.13-1.4-1.99-3.3-4.14-4.55-6.13l-.37-.6Z" style="fill: #7b160d;"/>
  <path d="M486.65,210.99c3.81-.49,2.48-.78,5.56.59,3.68,3.95,2.93,10.69,3.76,16.35,1.09,5.93,1.82,10.15,2.34,16.19-1.71-5.23-2.82-8.84-4.04-14.26l-1.49-1.4-1.23.49c-3.29,10.75,7.91,24.07,18.23,26.42,21.95,5.02,48.46-.87,67.89-11.5,1.57-.86,3.08-1.81,4.54-2.84-.81-1.58-1.36-3.11-2.01-4.77-7.23,5.2-17.01,9.54-26.6,12.31-4.36,1.26-8.67,2.19-12.68,2.73-40.05,5.38-37.7-2.56-41.61-36.06-.64-1.99-.49-4.07-.52-6.18-5.23-5.37-6.34-6.73-10.99-12.84-1.6.2-2.59-.21-4.14-.64l.37.6c1.25,1.99,3.15,4.14,4.55,6.13.84,1.19,1.5,2.33,1.73,3.33-1.82,3.14-4.23,2.71-7.59,2.91l3.34.96.57,1.48Z" style="fill: #7b160d;"/>
  <polygon points="483.67 195.58 483.67 195.58 484.04 196.18 483.67 195.58" style="fill: #7b160d;"/>
  <path d="M468.43,246.99c14.29,34.69,50.69,59.46,88.44,45.32,3.46-1.3,10.11-4.89,11.58-8.32-1.13-.64-2.38-1.09-3.68-.52-7.49,3.28-12.04,5.98-20.52,7.36-7.39,1.19-14.95.9-22.24-.83-19.39-4.51-33.24-17.35-43.59-33.71-12.03-19-11.78-33.06,8.23-45.3l-.57-1.48-3.34-.96c-7.85,5.23-14.11,11.43-16.88,20.59l-.28,2.05c-.3,5.88.55,10.2,2.85,15.8Z" style="fill: #73160d;"/>
  <polygon points="486.65 210.99 486.08 209.51 482.74 208.55 486.08 209.51 486.65 210.99" style="fill: #73160d;"/>
  <path d="M512.47,337.94c.39,2.2-.14,1.31,1.79,2.66,20.43,1.43,61.91-34.76,79.2-47.97-.51-1.73-1.33-3.25-2.1-4.89-16.97,14.03-37.65,29.79-56.33,41.71-7.83,5-18.85,5.88-22.56,8.48Z" style="fill: #6c0f08;"/>
  <path d="M667.8,412.56c1.01-.17,2.39-1.27,2.97-2.08,8.83-12.23,10.08-18-1.88-27.58l-5.18.34c1.58,2.73,6.92,8.02,9.23,10.44-1.25,5.23-8.18,15.68-5.14,18.88Z" style="fill: #6c0f08;"/>
  <path d="M658.5,631.74l.73-3.19-.73,3.19c-2.62-5.72-14.38-35.54-16.95-37.12-2.59,11.06,13.31,41.81,19.64,51.66,4.72,7.34,29.11,43.67,35.29,46.4l1.7-.33c1.05-4.05-6.52-11.78-9.29-15.18-8.48-9.18-25.07-34.19-30.39-45.42Z" style="fill: #6c0f08;"/>
  <path d="M688.89,677.16l.91-.76c-6.77-9.46-29.53-38.67-30.56-47.86l-.73,3.19c5.32,11.23,21.91,36.25,30.39,45.42Z" style="fill: #dfa9a1;"/>
  <path d="M290.66,776.96c-4.11,7.9-8.43,42.2-10.51,53.24-3.54,18.81-6.48,40.01-10.19,59.03-5.45,27.98-11.52,55.88-16.14,84.02-1.7,10.35-4.65,22.98-5.38,33.2-3.9,3.63-112.37,118.62-112.11,118l.59,1.34c3.16.88,3.34.42,5.76-2,33.95-32.52,64.39-67.71,97.02-101.48,7.72-7.99,15.93-14.65,24.78-21.34,7.52-5.69,13.33-11.89,12.92-21.96-.88-21.37-5.64-42.59-6.73-63.96-.18-3.43,2.43-17.15,3.12-20.98l6.45-36.04,7.94-47.41c1.48-8.86,3.21-17.49,4.8-26.3,3.11-17.29,54.45-27.86,58.73-35.68-1.1-1.82-.35-1.24-2.14-1.99-11.4,4.16-53.58,20.05-58.91,30.29ZM271.74,983.57c-.95,7.17-9.05,11.76-14.36,15.77-.55.52-1.24.78-1.95,1.15l-.61-1.21c.2-8.2,9.6-61.74,12.17-69.02,1.17,5.42,5.34,48.92,4.76,53.31Z" style="fill: #6c0f08;"/>
  <path d="M232.82,1212.55c-28.41-5.97-52.27-25.76-71.85-46.49-4.81-5.01-9.32-10.31-13.5-15.85-2.55-3.44-6.37-10.59-10.05-11.65-1.7,8.12,10.98,21.1,16.32,27.03,15.43,17.16,54.82,52.59,79.65,50.14-.01-.65.22-3.02-.56-3.18Z" style="fill: #6c0f08;"/>
  <path d="M289.49,985.57c-.44,1.48-.97,2.13-.35,3.19,3.74,6.35,25.31,17.68,25.65,24.41-5.07,3.77-17.77-2.46-22.65-1.14l-.7.99c1.32,1.8,1.36,1.87,3.3,2.93,6,2.53,20.35,6.65,24.71-1.01,4.38-7.69-25.15-28.31-29.95-29.37Z" style="fill: #6c0f08;"/>
  <path d="M252.52,605.39c4.93,5.77,36.24,4.94,44.87,4.24l.13-2.77c-2.48-1.92-18.72-1.28-22.98-1.61-7.35-.57-14.41-1.35-21.73-2.37l-.29,2.51Z" style="fill: #6c0f08;"/>
  <path d="M377.38,506.91c-1.76-51.84-3.26-85.39-26.28-133.16-2.75-1.18-4.91-8.53-9.79-12.84-.26,3.83-.93,6.48-3.38,9.51-24.63,30.56-61.23,28.19-88.09,3.53-1.04,7.16,0,14.61-.62,21.94-1.09,12.79-2.61,25.59-3.25,38.41l.09,21.69c.93,17.13,3.15,34.69,4.09,51.62,1.12,20.21.85,40.72.79,60.95,14.16,4.46,37.61,5.48,52.73,5.93,30.92-.34,46.5-.66,75.65-12.14.24-5.41-1.15-10.74-.05-15.5.06-1.25.07-2.63.06-4.13-.09-10.46-1.64-26.18-1.97-35.8Z" style="fill: #d11200;"/>
  <path d="M246.07,455.98l-.09-21.69c-.17,3.42-.29,6.85-.31,10.27.05,3.78.2,7.59.4,11.42Z" style="fill: #8b1e13;"/>
  <path d="M249.23,395.88c.63-7.33-.42-14.78.62-21.94.34-1.62-.04-3.88-.22-5.59-2.26,13.98-1.49,26.78-2.74,41.49-1.23-11.71,2.6-24.16-1.15-34.1l.24,58.55c.64-12.83,2.16-25.63,3.25-38.41Z" style="fill: #8b1e13;"/>
  <path d="M250.95,568.55c.06-20.23.34-40.74-.79-60.95-.94-16.93-3.16-34.49-4.09-51.62l.45,108.2c2.74-3.87,1.72-8.66,1.74-13.44.07-17.37-.59-34.7-1.25-52.05-.18-4.96-.97-16.91-.23-21.13.1,6.48,1.2,12.57,1.46,19.17.58,14.55,1.25,29.57,1.72,44.1.45,13.76-1.45,24.76.34,39.53.21-2.1.27-5.75,1.41-7.28.72.18,6.07,1.43,6.21,1.52,5.88,3.68,44.81,2.31,47.46,4.01.97-1.14,2.15-1.56,3.51-2.23l.95,7.97c.14-2.29-.08-4.36,1.32-5.97,6.74-.89,15.99-.97,22.97-1.22.05,1.1.09,2.43.15,3.8.1,2.29.27,4.71.65,6.41h0c.23-2.94-.08-8.05,1.02-10.07l1.27-.02,1.07,1.24c.91-3.29,5.04-2.7,8.4-3.2,6.84-1,13.59-2.52,20.2-4.53,2.61-.79,6.87-2.7,9.03-3.02l.9,3.35c2.14-2.7.65-4.37,2.51-8.8-29.15,11.47-44.73,11.79-75.65,12.14-15.12-.45-38.57-1.47-52.73-5.93Z" style="fill: #8b1e13;"/>
  <path d="M272.41,192.59c-3.23-.48-12.77-2.55-15.09-2.48,2.46,13.47,39.64,32.85,56.04,12.56,2.67-3.59,6.32-8.21,8.59-11.94-18.61,5.19-30.51,4.66-49.54,1.86ZM310.66,198.26l-4.07,4.65c-11.71,8.4-27.92,3.79-37.38-5.89,14.57,2.1,26.87,2.06,41.45,1.24Z" style="fill: #6c0f08;"/>
  <path d="M278.38,167.38c-.83,1.92-.51,1.41.4,4.05,4.8,4.19,10.5,7.58,16.8,6.73,24.62-3.33,13.86-17.61,7.89-32.25-1.71-4.21.17-18.04-1.46-20.91l-2.27-.54c-3.64,6.78-2.33,15-.77,21.99,2.04,9.17,13.95,21.98.41,26.8-8.88,3.16-16.65-6.6-21-5.86Z" style="fill: #6c0f08;"/>
  <path d="M261.68,138.33c3.04-2.89,3.6-3.82,4.81-8.09,2.68,1.78,4.65,3.6,7.73,3.56l.95-.99c-1.34-6.41-12.09-8.7-17.72-8.37-4.73.94-12.42,4.14-13.84,9.29l1.35,1.3c5-.74,5.3-3.9,9.13-3.99,3.01,3.48.47,7.49,7.58,7.29Z" style="fill: #6c0f08;"/>
  <path d="M318.64,127.34c-3.64,1.27-6.76,2.03-8.57,5.56.41,2.32-.16,1.46,1.58,2.78,3.62-.73,5.95-2.97,8.07-2.78-.38,1.69-.52,1.81-1.32,3.28.97,3.63,5.47,3.89,8.08,1.85l2.51-3.49c2.74.32,5.33,3.32,9.09,2.47-.44-7.01-13.56-9.92-19.44-9.68Z" style="fill: #6c0f08;"/>
  <path d="M254.84,113.5c5.05-.89,24.16.42,24.26.34-.62-5.78-13.91-6.22-18.41-5.84-6.06.66-20.49,4.71-21.45,12.03,3.5,1.84,10.8-4.84,15.6-6.54Z" style="fill: #6c0f08;"/>
  <path d="M340.49,124.71c2.29-.66,1.7-.13,2.88-1.8-3.91-10.96-21.99-12.07-31.52-11.26-2.71,1.75-1.98.81-3.16,3.45,4.14,4.59,18.23-4.54,31.8,9.61Z" style="fill: #6c0f08;"/>
  <path d="M203.58,140.46c-.9-.83-1.36-1.4-2.48-1.86-1.56,6.55-.38,18.57,7.36,20.52.42-4.31-3.27-14.35-4.88-18.66Z" style="fill: #6c0f08;"/>
  <path d="M320.13,183.25c-.16,3.73,5.72,12.18,8.99,13.38,1.54-6.68-2.13-12.47-8.99-13.38Z" style="fill: #6c0f08;"/>
  <path d="M254.89,182.46c-2.97,2.75-5.53,5.08-5.98,9.33.83,2.26.19,1.49,2.44,2.71,1.72-3.14,5.61-8.22,6.14-10.58-1.16-1.55-.4-.97-2.6-1.46Z" style="fill: #6c0f08;"/>
  <path d="M238.48,1304.17c-7.15,1.08-19.06,5.25-23.93,10.36l.57,1.36c4.23.53,15.28-4.43,21.25-5.84l2.17,8.47c-4.52,1.32-19.46,4.87-18.08,10.49l1.24.81c6.2-1.62,10.96-4.37,17.6-6.22.48,2.68.97,5.86,1.56,8.48-5.68,2-13.33,4.41-18.17,7.82v2.23s1,.89,1,.89c6.33-.63,14.22-5.41,20.83-6.72,4.18-.81,17.49.13,19.75-2.27-.42-2.31.12-1.36-1.72-2.9-5.92-1.31-11.18-.81-17.18-.17l-1.55-7.85c3.46.23,6.93.87,9.9-.72l.87-1.23c-2.43-3.65-7.49-3.03-11.54-3.04l-2.07-8.95c3.44.23,7.85.92,10.81-.55l1.01-1.3c-3.08-4.41-9.61-3.54-14.3-3.15Z" style="fill: #6c0f08;"/>
  <path d="M319.46,585.93c-1.91.73-3.26,2.45-3.54,4.47-.28,2.02.56,4.04,2.19,5.26,1.63,1.23,3.8,1.47,5.67.64,2.78-1.24,4.07-4.48,2.9-7.29-1.17-2.81-4.37-4.18-7.21-3.08Z" style="fill: #8b1e13;"/>
  <path d="M150.9,525.85c14.54,3.22,31.04,5.67,42.84,15.19,12.16-8.22,25.87-23.63,23.24-39.45l-.61-.72c-17.08,9.31-58.54,7.22-77.45,1.75,1.99,7.36,5.42,18.57,11.98,23.22Z" style="fill: #d11200;"/>
  <path d="M165.05,496.56c-4.05.19-13.67.41-16.49,2.8,3.94,5.23,36.33,3.71,44.08,3.59,7.82-.74,10.22-.79,17.61-3.69-11.43-2.76-33.71-3.85-45.19-2.71Z" style="fill: #d11200;"/>
</svg>