<?xml version="1.0" encoding="UTF-8"?>
<svg xmlns="http://www.w3.org/2000/svg" width="665.23" height="775.36" viewBox="0 0 665.23 775.36">
  <g id="a" data-name="Layer 1">
    <path d="M308.34,340.45c-.04-4.65-.73-11.64-.88-15.91-.78-23.04-1.45-37.95-11.68-59.18,10.23,21.23,10.9,36.14,11.68,59.18.15,4.28.84,11.26.88,15.91Z" style="fill: #6c130f;"/>
    <path d="M164.97,665.66c.09-.02.18-.05.28-.05.64,0,1.27-.47,1.91-.63.34-5.16.88-10.37.71-15.77-.07-1.87-.28-3.75-.54-5.64-.25-.83-.5-1.65-.77-2.48-.52-1.6-1.05-3.2-1.65-4.78-.43-1.14-1.07-2.18-1.35-3.35-.23-.64-.43-1.28-.61-1.93,0,0,0-.01,0-.02.79,5.74,2.2,11.37,2.64,16.97.4,6-.23,11.86-.62,17.68Z" style="fill: #6c130f;"/>
    <path d="M250.84,339.61c-.21-6.46-.51-13.13-.76-19.6-.12-2.93-.6-5.64-.65-8.52-.33,1.88.02,7.19.1,9.39.29,7.71.59,15.41.56,23.13,0,2.12.44,4.25-.77,5.97-1.48,20.7-2.2,40.96-6.16,61.44-1.43,7.37-3.39,16.43-4,23.82-2.63-.32-5.25-.68-7.88-1.05-10.29-1.52-20.52-4.34-30.01-8.72.02.11.04.23.04.36,0,.6-.34,1.25-.85,1.66,9.74,4.54,19.81,7.35,31.46,9.05,1.85.27,6.75,1.06,8.36.8,1.22-1.22,2.07-9.28,2.51-11.52,3.54-18.1,6.23-36.25,7.43-54.67.29-4.5.76-9.48.79-13.97-.8-6.56.05-11.46-.15-17.57Z" style="fill: #6c130f;"/>
    <path d="M503.34,716.61l.02.02c-2-9.48-9.59-18.19-14.16-26.81-3.92-7.4-6.83-9.64-8.81-18.27,4.8-1.73,15.88-6.75,18.18-11.43,1.28-2.62-6.49-38.63-7.51-43.79-7.08-36.03-14.01-72.07-18.49-108.52-2.06-16.9-3.98-33.81-5.78-50.74-2.11-21.26-3.64-46.79-10.38-66.77,12.65-12.69,35.87-34.14,36.47-54.14.24-7.87-5.21-24.6-7.34-33.12,2.12-1.12,4.95-2.31,6.09-4.37.4-2.07-4.54-18.13-5.61-20.77-5.93-14.76-3.72-22.36-11.07-36.58-.77.34-2.59-.62-3.42-.47,7.15,12.83,4.24,17.21,9.24,30.97,2.89,7.95,6.27,18.29,8.85,26.19-3.69,2.65-37.18,20.35-39.37,16.18-2.29-4.34-7.86-23.24-11.23-26.65l-.73.03c-1.01,2.06,4.2,12.63,5.28,15.1-1.29,4.24-3.22,13.3-2.4,17.28,3.37,16.48,14.54,27.16-9.05,33.48-17.73,4.75-36.1,2.94-53.81-2.64-12.49-3.93-25.89-10.46-39.37-7.62-2.04.4-7.2,1.3-8.3,2.85l.2.58c2.23.82,7.08-1.33,9.7-1.57,2.8-.26,5.59-.26,8.39-.29-6.36,3.61-11.04,7.73-18.45,8.02-11.27-5.04-7.01-17.6-6.01-27.04.36-3.5.37-7.02.01-10.52-1.13-11.23-5.29-20.49-5.24-31.87.33-9.71,3.02-18.98,4.75-28.56.93-5.13-1.4-32.04-6.62-32.31-.5,1.42,2.06,8.01,2.68,10.32-10.18-10.28-12.23-8.19-23.85-14.13-7.34-3.76-4.63-7.24-16.37-9.06-.12-3.56-.32-3.82,2.52-6.03,16.13-.27,28.66-3.15,44.16-4.06l-.11-2.07c-4.45-.05-10.82.89-15.39,1.5-9.15,1.24-17.16,2.35-26.47,2.49,4.6-5.78,8.23-9.83,9.9-17.38,1.85-8.35,10.6-19.72,2.53-27.41,2.33-18.1-3.06-40.02-24.38-43.29-2.09-.32-4.11-.16-6.21.04-3.19-1.77-5.84-1.97-9.45-1.59-21.03,2.24-35.73,21.45-32.66,42.19-8.72,7.87-3.75,20.25,5.06,25.72.91.12,1.82.21,2.73.39.29.06.53.17.74.31.39-.21.79-.41,1.19-.61.63.6.79,2,1.15,2.92,2.7,6.91,2.64,11.84,2.95,19.06-4.01,1.66-7.13,3.16-10.24,6.24-1.2,1.2-2.55,2.7-3.88,3.69-.3-.06-.6-.11-.88-.18-.13.01-.27.02-.42,0-1.4-.11-2.76-.23-3.92-.7.02.05.03.1.05.15-14.7-.41-22.75,4-33.26,13.96-5.42,5.14-11.4,11.53-11.62,19.48-.02,1-.03,2-.03,3-1.79,2.38-4.34,5.52-5.64,8.18-7.87,16.04-8.95,34.81-18.33,50.31-2.96,4.9-6.87,9.56-8.76,14.99-1.37,3.91-1.76,8.09-1.15,12.19.44,2.95,1.2,5.12,2.44,7.79-2.28,14.53,4.42,27.46,19.72,29.84,5.22.81,9.5-.39,13.01-4.41,3.82.39,6.6.58,10.47.45-1.78,9.1-3.51,18.2-5.17,27.32-.89,4.9-2.04,9.97-2.2,14.94-.05,1.53.43,2.87,1.17,4.08.15.05.29.11.41.19.09-.17.19-.34.33-.48.33-.33.73-.5,1.14-.55-.07-.18-.13-.36-.17-.54-.02-.12-.04-.22-.05-.32-.46-.94-.69-1.94-.57-2.99,1.46-13.53,4.7-27.02,7.01-40.48,5.7,3.46,15.18-1.36,21.47-1.93,1.57-.15,5.17-1.13,6.64-1.75-.04,1.69.31,9.06-.56,9.84-2.61,2.32-10.02,2-12.2,4.92-.29,1.85.48,2.12,2.06,2.96,4.72,2.53,28.81,4.29,30.13-1.88-.93-3.32-8.72-3.49-11.7-5.87-1.31-2.27-.87-11.52-.88-14.48,1.45-.54,2.75-1.14,3.63-2.46.08-5.2,6.75-6.09.3-11.75-.31-.28.57-3.75.67-4.6,13.43-8.86,11.55-21.5,9.4-35.32-.67-4.3-.18-7.84-5.26-8.81-7.12-1.71-21.42-1.68-27.75,1.24-3,1.38-4.35,24.71-2.59,28.76,1.01,2.32,1.7,3.82,3.13,5.8-4.93-.56-7.51-.77-12.4.07-.31-6.28-.44-12.57-.4-18.85.04-7.85,1.6-33.66-1.87-39.1l-.45-.06c-1.15,2.51.44,9.97.51,13.16.25,11.81-.44,23.6-.34,35.42.02,2.55-1.43,6.49-2.16,9.04-2.57-2.62-4.97-4.18-8.03-6.11-3.34-7.35-12-11.52-19.83-11.08-2.15.12-4.99-.08-5.78,2.35,2.88,2,12.15-4.58,22.85,7.74-14.96-4.9-25.98-2.09-32.7,12.92-.52-1.57-.92-3.18-1.17-4.82-.64-4.02-.26-8.14,1.09-11.98,1.81-5.1,4.8-8.47,7.62-12.96,2.42-3.93,4.47-8.08,6.12-12.38,4.87-12.55,6.95-25.44,12.28-37.6,1.11-2.52,3.36-5.55,5.02-7.81,1.03,4,3.21,8.82,7.76,10.18,1.88.07,3.29-.1,4.83,1.14,3.87,3.12,5.69.9,8.02.4,2.47-.53,4.31,2.76,6.42-2.2l.17-.41c.92-.85,1.4-.74,2.48-1.12,5.16-1.79.75-8.93-.77-12.01,8.38-.15,6.89-7.59,6.22-13.46,2.94-3.49,7.8-8.2,11.09-11.55-.82,4.92-6.19,28.21-5.63,31,.19.93.52,1.13,1.24,1.63,3.49.49,12.61-7.76,16.99-9.69l.35-.15c1.41,3.63,2.65,6.96,5.88,9.41,1.55,1.18,5.09,4.44,6.77,4.29l.33-.56c-.86-2.7-6.47-5.61-8.31-7.77-1.81-2.13-1.19-6.15-4.44-7.4-3.54.49-12.68,7.52-17.1,9.84l4.23-20.2c2.78-13.73,2.39-21.44,16.78-27.65-.13.92-.29,1.84-.46,2.75-.42,2.14-2.13,7.88-3.95,9.11l-.51-.19c-.31-2.3,1.03-4.41.7-6.43-4.2.66-2.71,7.77-2.12,10.24,3.22,13.41,7.44,23.87,15.29,35.22,1.15,1.66,2,9.06,2.28,11.28,1.67,4.42-.04,9.95.51,15.16.55-6.54.21-12.23,1.22-18.44-.43-9.89-5.54-14.04-9.97-22.23-1.99-3.68-2.99-6.95-4.15-10.94,6.7,7.34,17.87,17.24,28.25,18.38,13.01,1.44,18.68-6.91,20.12-18.96,2.5,8.31,3.02,21.6,6.51,30.44,2.17,1.92,3.13,5.18,4.35,5.71-1.38-4.15-2.94-8.22-3.98-12.47-2.5-10.18-3.47-20.74-6.1-30.88-.51-1.95-2.08-6.19-4.4-6.51l-.59.34c-.14,1.36,1.43,3.51,1.78,5.14,2.55,11.87-2.59,27.2-17.32,25.12-11.93-1.68-21.38-11.55-29.12-20.12-1-1.15-1.71-5.23-2.52-7.15,6.24-5.61,7.29-17.92,6.05-25.89,9.24,10.33,23.31,22.76,37.96,14.07-.05,2.93-1.02,14.4,2.37,14.97.85-1.57-.45-4.59-.39-6.52.21-6.7,8.06-1.48,10.27.94,4.69,5.12,7.73,11.31,11.58,17.04,2.55,3.75,5.27,7.41,7.96,11.06-5.07-1.4-13.7-6.6-14.98,2.55-.26,1.88-1.52,6.48-1.14,7.89l.55.4c2.9-1.54,1.99-9.7,4.48-11.25,4.28-.51,11.24,4.34,13.94,2.3.25-.92.12-1.56-.47-2.36-5.41-7.47-10.24-14.43-14.96-22.37,7.34,2.6,21.03,7.85,23.76,15.37,5.05,13.93-2.91,31.03-3.34,44.86-.4,12.95,4.84,23.72,5.46,36.46.56,9.1-2.48,15.75-1.82,24.4.28,3.66-.41,8.71,9.93,12.44-5.26,7.97-16.09,58.71-15.5,78.94-.9-4.19-.96-9.51-1.14-13.84l-.72-17.46c-.59-13.79-1.56-27.09-3.21-40.79-.7-5.84-.92-14.24-1.86-19.76-.49,2.12.13,4.49.02,6.89-.83,1.97-.16,2.71-1.12,3.91l.84,10.68c-6.32,1.92-10.4,2.98-17,3.87-.27-3.79-.52-7.49-.96-11.26l-.48-.55h-.56c-.49.91-.36,3.17-.45,4.48-.1,2.56.66,10.87.86,13.82.78,11.58.82,23.42-1.05,34.9-1.4,8.59-6,14.12-12.97,18.92,2.88-18.7,3.8-37.64,2.75-56.52-.15-3.08-.31-9.67-.74-12.46l-.42-3.54c-.6.3-1.13.48-1.56.99.63,19.66,1.86,38.6-.44,58.26-.27,2.26-2.07,14.12-1.33,15.32,4.04,1.84,13.5-10.1,14.68-13.62,4.72-13.99,4.33-32.26,2.84-46.8,5.62-.67,11.85-1.72,17.1-3.91,1.56,13.69,2.61,27.43,3.18,41.19l.8,18.33c.1,2.32-.34,6.57.82,9-.33,5.34,6.56,97.69,6.01,110.52-.2,4.57-.94,9.07-2.42,13.41-5.77,16.99-42.45,51.12-56.81,64.13-4.51,4.08-9.64,7.79-13.89,12.08-.75.76-1.14,1.33-1.27,2.4l.54.6c1.44.02,5.91-4.52,7.29-5.8-.02,4.4-.13,9.12.44,13.5.1.8,1.04,1.82,1.5,2.67-7.11,6.34-25.81,7.01-35.16,6.24-2.51-.21-9.18-1.77-11.05-.54l.24.71c3.54,2.7,20.84,2.17,25.58,1.91,7.77-.44,14.67-1.77,21.05-6.45.25,2.38,1.63,7.57.68,9.57-1.42,3.01-8.8,4.49-11.76,4.85-10.12,1.23-22.22,2.8-32-.7-4.12-1.48-4.12-11.8-4.9-15.51-.67-3.05-1.75-5.99-2.73-8.92l3.2-3.24c4.42,5.12,14.76,11.33,21.15,13.81,4.98,1.93,11.1-1.32,12.5-6.5l-.26-.36c-3.39.19-5.11,8.1-13.44,4.28-14.84-6.79-30.17-23.83-36.44-38.57,1.92-1.07,9.43-6.2,8.28-8.37l-.82-.25c-.91.48-4.39,3.58-6.17,5.05-.71.72-1.48,1.36-2.35,1.93-.49.32-.99.6-1.51.86.23.76.46,1.5.72,2.22.16.2.31.39.47.6.66.9,1.05,1.94,1.47,2.96.09.21.14.44.17.67,1.54,2.22,5.34,8.48,6.42,9.87,2.92,3.8,5.48,6.34,8.81,9.74-2.1,2.26-6.12,5.96-8.58,8.34.11.03.22.06.33.09.78.22,1.41.57,1.92,1.01l2.39-2.75c.61,1.88,2.13,6.13,2.3,7.94,1.38,14.71,2.36,18.85,18.53,19.37.05.54.22,2.38.28,3.64.09.23.14.47.14.71,0,.74.05,1.48.13,2.22,0,.01,0,.01,0,.03.03.19.06.37.1.56.06.32.13.65.2.97.12.5.27.99.42,1.49.59-1.53,1.16-3.08,1.17-4.65,0-.21.03-.41.07-.6-.09-1.67-.12-3.25-.19-4.41,8.68.07,13.8-.62,22.27-1.93l.56.04c.34.72.7,2.28,1,3.76.12.28.19.61.2.98.14.71.26,1.35.35,1.81-.02,0-.04-.02-.07-.02.22.79.53,1.56.75,2.36.03.11.05.22.08.33.46.97.85,2,1.13,3.08.23.43.44.87.64,1.35h0c.06.15.14.3.21.46.87.96,1.55,2.15,2.08,3.4.4-.21.86-.31,1.34-.3.09-.1.19-.2.3-.29-.69-1.25-1.33-2.55-1.9-3.9-1.69-4.02-3.14-9.6-3.74-13.93,10.21-3.94,7.19-8.29,5.79-17.41-.1-.67-1.22-1.86-1.72-2.33-.22-5.01-.4-10.02-.53-15.02,14.38-12.41,28.04-25.63,40.94-39.57,12.07-12.9,24.12-24.38,25.6-42.95.12-1.75.22-3.49.29-5.24.78,3.62,1.08,8.23,1.45,11.97l1.68,17.08c2.59,27.61,4.32,55.39,7.7,82.93.58,4.71.28,10.73,4.96,13.15,7.44,4.13,16.64,5.04,24.93,5.8-5.15,4.84-10.14,9.97-15.23,14.66-8.03,7.05-20.08,10.56-20.72,23.12-.09,1.86.68,5.62,2.28,6.82,8.15,6,23.27,5.98,32.72,3.11,5.71-1.74,11.5-5.84,17.54-8.42,6.77-2.89,20.24-2.16,19.07-12.61-.59-5.28-2.13-11.08-3.21-16.32-1.77-5.19-2.8-6.08-4.09-12.07,5.96-1.66,9.28-3.55,8.95-10.43-.23-4.8-.63-9.6-.98-14.4l-1.96-27.02c-2.26-29.24-3.91-58.51-4.95-87.81-.28-7.56-.89-16.28-.97-23.73l.15.36c1.06,2.64,2.17,7.03,2.97,9.87l4.82,17.05c8.81,30.92,16.53,64.37,23.91,95.77l5.74,24.79c.71,3,2.31,10.96,3.52,13.19,3.6,6.65,21.94,6.75,27.82,6.43.63,6.6.15,8.6-1.56,14.98-1.21,4.53-1.73,12.51-.86,17.07,1,1.2,1.97,2.43,3.04,3.56l.07.44c.82,5.22-1.12,11.51,4.03,14.83,7.63,4.85,18.23,5.02,26.88,3.83,7.93-1.09,14.12-4.54,12.22-13.58ZM231.91,380.1l-.24.48c-2.76,1.37-9.31,1.52-12.48,1.44-5.56-.29-9.31-.52-14.63-2.19,13.79-4.9,13.41.48,13.28-16.69,1.03-1.14,1.33-2.03,1.95-3.43,1.8,2.44-1.34,13.48,2.04,16.38,2.26,1.93,8.13,2.22,10.07,4ZM214.56,297.93c5.47-.57,12.96.1,18.25,1.62-3.53.93-5.89,1.19-9.44,1.42-5.91.45-11.85-.04-17.61-1.45,3.37-.86,5.38-1.27,8.8-1.59ZM204.1,301.41c8.29,2.11,21.24,3.08,29.19-.15h0c1.24,1.4,2.58,15.76,2.69,18.52-8.49-2.59-22.94-2.57-31.62-.8-.92.27-1.35.59-2.04.26-.67-3.52,1.12-13.92,1.78-17.82ZM233.17,321.15c-3.28,1.28-4.35,1.31-7.82,1.64-3.44.05-17.84.73-19.59-1.6,1.26-1.06,5.53-1.16,7.33-1.24,5.1-.51,15-.02,20.08,1.2ZM201.48,322.64c8.41,2.43,26.84,3.36,34.42-.78h0s.27.32.27.32c1.17,7.03-4.92,13.88-10.33,17.53-5.25-4.23-12.58-5.32-19.04-6.75-2.91-2.07-4.44-7.05-5.32-10.32ZM193.58,334.57c6.26-.43,27.34.84,30.81,6.84.25,1.11.06,1.3-.42,2.4-1.76,1.53-27.59-6.64-29.35-2.61l.3.65c1.36.66,4.32.63,5.96.77,5.99.51,22.59,2.5,26.36,6.89l-.16,1.08c-4.64,3.32-30.23-3.78-32.41-.49l.24.74c2.12,1.14,23.86,1.96,28.96,3.61.78.81.62.35.63,1.36-3.04,3.91-19.6.62-27.04,2.05l-.44.09c-1.17.32-1.46.33-2.16,1.16l.34.44c2.13.54,6.6-.04,8.99.05,4.04.16,8.52.13,12.52.57l.24.31c-2.26,3.01-18.29,5.41-22.42,6.43-3.92.96-5.21-.32-8-2.42-6.68.36-18.68-.16-23.82-4.14h0c-9.12-7.05-3.7-24.43,8.13-25.2,7.17-.47,10.08,2.02,15.21,6.13-.9.96-2.44,2.51-2.53,3.77-.25,3.31-1.32,11.1.32,13.83l.46.1c1.36-2.75,1.42-9.64.91-13.07.9-1.41,1.57-2.04,2.74-3.24.61-4.04,1.12-6.94,5.63-8.11ZM161.93,325.25c10.21-.75,19.13,3,25.54,10.97l-1.25,2.78c-3.56-3.04-7.4-5.69-12.21-6.08-4.5-.35-8.96,1.11-12.38,4.05-6.76,5.85-7.73,17.31-1.67,24.08,4.42,3.57,7.55,4.43,13.22,4.88-6.81,4.14-13.81,3.68-20.32-1.08h0c-14.8-10.83-10.08-37.19,9.07-39.61ZM207.4,232.39c.27,3.04,1.51,9.9-1.67,11.58-8.31,1.19.04-16.13-7.81-12.12-3.35,5.01,7.38,19.47,5.86,24.44-5.42,5.9-12.63-19.84-13.56-20.58-3.59,2.12,2.66,11.93,3.83,14.9,1,2.56,5.68,6.94,5.2,9.26-3.72,2.57-7.4-3.75-9.22-6.3-2.08-3.37-4.02-6.88-5.08-10.71-.29-1.08-.39-2.24-1.08-3.12l-.4.21c-2.04,5.2,3.71,13.18,6.6,17.36.83,1.2,2.07,2.04,2.81,3.31-.6.76-1.67,1.53-2.63,1.1-4.76-2.16-8.04-7.99-10.04-12.6-.72-1.66-1.19-3.1-2.04-4.42l-.54-.09c-1.35,4.13,3.85,11.71,6.26,14.92-11.97-5.9-9.53-20.24-1.52-28.49,10.76-11.09,18.54-17.17,34.35-18.11,2.44.08,4.28.21,6.71.46-4.23,8.21-10.41,11.83-16.05,18.99ZM296.39,159.28h0c3.72,1.68.91,11.47-.07,14.28l-.44.56c-.44-1.06.38-12.86.5-14.84ZM243.85,194.49c-5.07-6-6.67-9.86-7.73-17.58-10.49,4.81-17.46-12.45-12.44-19.73h-.01c3.6-5.22,9.76,1.39,12.15,4.19.44.52,1.02.49,1.6.39,1.86-2.67,3.85-19.01,6.42-23.54,3.14-6.11,10.56-8.72,16.97-9.53,1.71-.21,6.9.35,7.66-1.21-1.82-3.11-13.99.27-16.77,1.49-10.09,4.43-15.95,15.76-20.12,25.37-2.11-.86-2.99-1.06-5.23-1.1-.07-.63-.12-1.26-.17-1.9-1.44-20.63,13.27-36.04,33.64-37.39,10.59-.88,8.63,11.71,11.93,12.76,1.61-2.3-1.87-9.42-3.09-11.55,5.95-.02,11.71,2.1,16.23,5.98,7.12,6.11,9.54,13.97,10.27,22.96-2.72-7.29-6.18-13.91-14.12-16.49-2.25-.73-5.5-.67-7.58.5l-.1.46c2.55,2.43,8.2-1.15,13.74,5.35,7.17,7.78,7.01,16.32,6.92,26.13-.15,17.16.69,29.47-13.11,41.98-12.98,11.77-27.47,3.39-37.06-7.54ZM233.14,155.35h0c2.57-4.59,3.44-7.56,6.68-12.29.21.98-2.99,14.3-3.75,15.12l-.77-.61-2.16-2.22ZM365.55,673.07c7.43.41,14.48-.15,21.84-1.13l.73-.04.44.54c1.35,9.47-4.16,11.21-11.19,15.85.35-3.85.12-5.86-2.07-9.06-4.18-3.84-6.02-3.44-11.37-4.66l-.08-.52c.46-.47.94-1.03,1.7-.99ZM394.68,695.45h0c1.39,1.47,1,7.72-.49,9.26-2.01,2.07-7.87,3.43-10.63,3.93-8.5,1.53-14.92,7.33-22.84,9.94-3.41,1.12-6.96,1.76-10.55,1.9-5.91.26-15.95-.59-20.41-4.68-1.6-3.05-1.28-4.95-1.3-8.41.43.44.88.86,1.34,1.26,4.71,4.07,14.33,4.4,20.34,4.06,10.84-.63,18.02-5.16,27.65-9.39,6.25-2.74,12.11-2.32,16.88-7.88ZM392.32,683.24h0c5.44,15.37-5.87,14-15.39,18.12-11.5,4.98-20.51,10.67-33.7,9.14-4.6-.53-9.52-.77-12.8-4.65.25-5.4,9.46-9.96,13.41-13.03,2.28-1.77,4.78-3.6,7.09-5.38,7.83.76,10.23,1.28,13.94,3.98.23.07.47.13.71.18.14.03.27.05.41.07,0,0,0,0,0,0-.29-.05-.15-.03.01,0,.13-.08.26-.15.39-.23.12-.1.24-.21.35-.34,0,0,.01-.02.02-.03.06-.1.14-.17.22-.24.03-.16.06-.33.09-.49-4.58-4-8.41-4.3-14.41-4.68,3.1-3.63,5.2-6.48,9.62-8.45,10.49-.95,17.45,6.16,9.81,14.43,0,.02-.02.03-.03.05-.02.06-.1.23-.11.27-.05.13-.09.26-.12.4-.07.25-.15.53-.16.79,0-.36,0,.07-.01.15-.01.11-.02.23-.03.34-.03.54-.05,1.07-.08,1.6,1.52-1.15,3.14-2.45,4.66-3.59,5.19-3.89,11.12-6.1,14.25-11.92.75,1.18,1.4,2.27,1.86,3.55ZM442.73,351.74c12.92-9.03,2.28-20.25.64-31.82h0c-.6-4.24.57-9.64,1.47-13.86,1.16,1.26,2.32,7.56,3.26,9.42,1.86,3.69,3.9,1.18,6.15,1.99,2.36,2.44,5.61,14.89,6.43,18.69-4.84,7.6-7.17,14.92-11.07,22.83l-3.36,6.01c-1.53-3.24-5.46-7.83-6.87-11.2-.15-.37,1.93-.99,3.36-2.06ZM450.05,406.96l-.76.15c-2.75-1.21-13.59-17.36-15.68-20.62-2.81-4.37-9.88-18.04-8.73-22.96,1.14.7,6.37,13.96,7.53,16.5l.32-1.42c.46,4.08,10.57,17.06,13.58,21.27l-.4.34c1.24,1.51,4.6,4.95,4.13,6.75h0ZM447.89,398.29h0c-3.05-3.51-6.91-9.32-9.68-13.24-.79-1.19-3.17-4.68-2.95-5.52.39-1.46,7.18-7.17,8.75-8.75,8.75-8.78,10.61-19.82,16.69-30.39,3.52-6.12,6.62-6.51,9.37-10.04l-.09-.44c-3.05.04-5.48,2.5-7.45,4.5-1.33-6.36-3.4-12.1-5.89-18.08,9.25-3.21,17.69-7.8,26.39-12.25.77.32,2.53,7.76,2.81,9.03,1.41,6.46,5.83,18.37,4.76,24.84-2.63,15.86-15.62,30.85-26.79,41.81-6.3,6.19-11.74,11.12-15.92,18.52ZM477.47,672.51c.08.05.57.27.58.33.48,2.64,3.92,9.88,4.77,11.65-6.66-2.66-11.01-3.64-16.83,1.24-1.12,1.19-1.94,2.65-2.8,4.05-.7-5-.96-9.39-1.3-14.44,5.28-.41,10.49-1.36,15.57-2.84ZM458.94,700.35c1.76,1.93,2.35,5.8,2.51,8.33-3.09-1.72-2.52-5.26-2.51-8.33ZM459.72,695.35c-.07-2.79.25-3.99.79-6.65.65.64,1.11,1.71,1.51,2.96.32,1.02,1.62,1.33,2.37.56.32-.34.57-.59.59-.62,0,0,0-.01.01-.02.01-.01,4.04-6.4,9.01-7.02,9.64.47,12.6,3.68,16.02,12.08-3.64-1.12-6.55-1.81-10.39-1.92-3.67.04-6.45.43-9.3,1.66.01.14,0,.28-.04.42-.06.16-.11.33-.14.5,0,.03,0,.05,0,.07,0,.03,0,.07,0,.1,0,.03,0,.07.01.11,0,.02.01.04.02.05.01.02.03.04.04.06.05.05.11.11.16.16.03.02.07.04.1.07.1.06.21.12.32.18.07.04.15.07.23.1-.09-.05-.15-.11.1.04.05.02.11.04.16.06.08.03.15.06.23.08,6.65-2.99,12.87-1.15,20.01.96,2.67,2.99,9.31,11.65,8.48,15.45-.28.22-.55.44-.83.65-5.55,4.22-17.42,4.2-23.68,3.33-9.59-1.33-11.5-5.55-12.26-14.07-.18-1.96-3.43-6.44-3.5-9.36ZM500.78,722.94h0c-2.68,4.86-11.85,5.58-17,5.66-6.09.09-14.46-.62-19.14-4.86-2.45-2.22-1.98-6.38-1.94-9.42.94.72,2,1.99,3.03,2.84,7.46,6.16,28.56,5.61,35.48-.59.12,2.6.16,3.85-.42,6.37Z" style="fill: #6c130f;"/>
    <path d="M465.87,237.66c.83-.16,1.44-.47,2.2-.81.03-1.04.68-3.04,1.03-4.98-.35,1.95-1,3.94-1.03,4.98-.77.34-1.37.66-2.2.81Z" style="fill: #d02027;"/>
    <polygon points="327.77 197.25 326.42 197.46 326.42 197.46 327.77 197.25" style="fill: #d02027;"/>
    <polygon points="344.09 201.67 344.09 201.67 343.95 201.83 344.09 201.67" style="fill: #d02027;"/>
    <path d="M356.29,186.48c-.57.02-.98-.14-1.59-.31h0c.6.16,1.02.33,1.59.31Z" style="fill: #6c130f;"/>
    <polygon points="326.42 197.46 326.53 199.53 326.42 197.46 326.42 197.46" style="fill: #8c1f1c;"/>
    <path d="M326.53,199.53c6.25.18,10.16.52,16.03,1.53-5.87-1.02-9.78-1.36-16.03-1.53Z" style="fill: #8c1f1c;"/>
    <polygon points="344.09 201.67 343.76 201.28 344.09 201.67 344.09 201.67" style="fill: #8c1f1c;"/>
    <path d="M326.53,199.53c6.25.18,10.16.52,16.03,1.53.39.07.79.14,1.2.21l.32.39h0l-.13.16,1.52,1.27,1.2-1.1.12-.91c-.2-.05-.55-.12-.72-.22-4.13-2.44-15.18-2.03-18.3-3.62l-1.35.21.11,2.07h0Z" style="fill: #8c1f1c;"/>
    <path d="M351.44,241.77c4.06,11.05,10.58,18.99,19.64,26.3,2.16,1.76,4.82,9.1,8.53,7.17,8.27-4.3,13.44-15,18.31-22.58,1.69-2.68,3.27-6.15,4.78-8.14.62-2.72,5.03-6.32,3.89-9.73-2.46,3.44-4.77,6.98-6.92,10.62-4.91,8.4-12.57,23.95-21.76,28.12-1.73-1.76-3.5-5.43-5.09-6.72-9.58-7.76-16.48-16.56-20.5-28.37-3.29-9.65-11.09-25.37-6.84-35.32l-1.52-1.27c-6.08,9.43,4.02,30.52,7.48,39.94h0Z" style="fill: #6c130f;"/>
    <path d="M354.71,186.17l.16.27c.56.88,1.4,1.84,2.02,2.72-.62-.88-1.47-1.84-2.02-2.72l-.16-.27Z" style="fill: #7c1916;"/>
    <path d="M347.93,209.02c6.35,15.42,22.53,26.43,39.31,20.14,1.54-.58,4.49-2.17,5.15-3.7-.5-.28-1.06-.48-1.64-.23-3.33,1.46-5.35,2.66-9.12,3.27-3.28.53-6.64.4-9.88-.37-8.62-2-14.77-7.71-19.37-14.98-5.35-8.44-5.24-14.69,3.66-20.13l-.25-.66-1.48-.43c-3.49,2.32-6.27,5.08-7.5,9.15l-.12.91c-.13,2.61.24,4.53,1.27,7.02h0Z" style="fill: #731913;"/>
    <polygon points="356.03 193.02 355.78 192.37 354.29 191.94 355.78 192.37 356.03 193.02" style="fill: #731913;"/>
    <path d="M367.51,249.45c.17.98-.06.58.8,1.18,9.08.64,27.52-15.45,35.2-21.32-.23-.77-.59-1.44-.93-2.17-7.54,6.24-16.73,13.24-25.04,18.54-3.48,2.22-8.38,2.61-10.03,3.77h0Z" style="fill: #6c130f;"/>
    <path d="M432.41,380.02l.32-1.42-.32,1.42c-1.16-2.54-6.39-15.8-7.53-16.5-1.15,4.92,5.92,18.58,8.73,22.96,2.1,3.26,12.94,19.41,15.68,20.62l.76-.15c.47-1.8-2.9-5.24-4.13-6.75-3.77-4.08-11.14-15.2-13.51-20.19h0Z" style="fill: #6c130f;"/>
    <path d="M445.92,400.21l.4-.34c-3.01-4.2-13.12-17.19-13.58-21.27l-.32,1.42c2.36,4.99,9.74,16.11,13.51,20.19h0Z" style="fill: #dfaaa2;"/>
    <path d="M268.93,444.57c-1.83,3.51-3.75,18.76-4.67,23.66-1.57,8.36-2.88,17.78-4.53,26.24-2.42,12.44-5.12,24.84-7.17,37.34-.76,4.6-2.07,10.21-2.39,14.76-1.73,1.61-49.94,52.72-49.83,52.44l.26.6c1.4.39,1.48.19,2.56-.89,15.09-14.45,28.62-30.09,43.12-45.1,3.43-3.55,7.08-6.51,11.01-9.48,3.34-2.53,5.92-5.28,5.74-9.76-.39-9.5-2.51-18.93-2.99-28.43-.08-1.52,1.08-7.62,1.39-9.32l2.87-16.02,3.53-21.07c.66-3.94,1.43-7.77,2.13-11.69,1.38-7.68,24.2-12.38,26.1-15.86-.49-.81-.16-.55-.95-.88-5.07,1.85-23.81,8.91-26.18,13.46h0ZM260.52,536.39c-.42,3.19-4.02,5.23-6.38,7.01-.24.23-.55.35-.87.51l-.27-.54c.09-3.64,4.27-27.44,5.41-30.68.52,2.41,2.37,21.74,2.12,23.69h0Z" style="fill: #6c130f;"/>
    <path d="M243.22,638.16c-12.63-2.65-23.23-11.45-31.93-20.66-2.14-2.23-4.14-4.58-6-7.04-1.13-1.53-2.83-4.71-4.47-5.18-.76,3.61,4.88,9.38,7.25,12.01,6.86,7.63,24.36,23.37,35.4,22.28,0-.29.1-1.34-.25-1.41h0Z" style="fill: #6c130f;"/>
    <path d="M268.41,537.28c-.2.66-.43.95-.16,1.42,1.66,2.82,11.25,7.86,11.4,10.85-2.25,1.68-7.9-1.09-10.07-.51l-.31.44c.59.8.6.83,1.47,1.3,2.67,1.12,9.04,2.96,10.98-.45,1.95-3.42-11.18-12.58-13.31-13.05h0Z" style="fill: #6c130f;"/>
    <path d="M251.97,368.31c2.19,2.56,16.11,2.2,19.94,1.88l.06-1.23c-1.1-.85-8.32-.57-10.21-.72-3.27-.25-6.4-.6-9.66-1.05l-.13,1.12h0Z" style="fill: #6c130f;"/>
    <path d="M307.47,324.54c-.78-23.04-1.45-37.95-11.68-59.18-1.22-.52-2.18-3.79-4.35-5.71-.12,1.7-.41,2.88-1.5,4.23-10.95,13.58-27.21,12.53-39.15,1.57-.46,3.18,0,6.49-.28,9.75-.48,5.68-1.16,11.37-1.44,17.07l.04,9.64c.41,7.61,1.4,15.42,1.82,22.94.5,8.98.38,18.1.35,27.09,6.29,1.98,16.72,2.44,23.44,2.64,13.74-.15,20.67-.29,33.62-5.4.11-2.4-.51-4.77-.02-6.89.03-.56.03-1.17.03-1.84-.04-4.65-.73-11.64-.88-15.91h0Z" style="fill: #d02027;"/>
    <path d="M249.11,301.91l-.04-9.64c-.08,1.52-.13,3.04-.14,4.56.02,1.68.09,3.37.18,5.08Z" style="fill: #8c1f1c;"/>
    <path d="M250.51,275.2c.28-3.26-.19-6.57.28-9.75.15-.72-.02-1.72-.1-2.48-1,6.21-.66,11.9-1.22,18.44-.55-5.2,1.16-10.74-.51-15.16l.11,26.02c.28-5.7.96-11.39,1.44-17.07h0Z" style="fill: #8c1f1c;"/>
    <path d="M251.28,351.94c.03-8.99.15-18.11-.35-27.09-.42-7.52-1.4-15.33-1.82-22.94l.2,48.09c1.22-1.72.76-3.85.77-5.97.03-7.72-.26-15.42-.56-23.13-.08-2.2-.43-7.52-.1-9.39.04,2.88.53,5.59.65,8.52.26,6.47.56,13.14.76,19.6.2,6.12-.64,11,.15,17.57.09-.93.12-2.56.63-3.24.32.08,2.7.64,2.76.68,2.61,1.64,19.92,1.03,21.09,1.78.43-.51.96-.69,1.56-.99l.42,3.54c.06-1.02-.04-1.94.59-2.65,3-.4,7.11-.43,10.21-.54.02.49.04,1.08.07,1.69.04,1.02.12,2.09.29,2.85h0c.1-1.31-.04-3.58.45-4.48h.56s.48.54.48.54c.4-1.46,2.24-1.2,3.73-1.42,3.04-.44,6.04-1.12,8.98-2.01,1.16-.35,3.05-1.2,4.01-1.34l.4,1.49c.95-1.2.29-1.94,1.12-3.91-12.96,5.1-19.88,5.24-33.62,5.4-6.72-.2-17.14-.65-23.44-2.64h0Z" style="fill: #8c1f1c;"/>
    <path d="M260.81,184.85c-1.44-.21-5.68-1.13-6.71-1.1,1.09,5.99,17.62,14.6,24.91,5.58,1.19-1.6,2.81-3.65,3.82-5.31-8.27,2.31-13.56,2.07-22.02.83ZM277.81,187.37l-1.81,2.07c-5.2,3.73-12.41,1.68-16.61-2.62,6.48.93,11.94.92,18.42.55Z" style="fill: #6c130f;"/>
    <path d="M256.05,160.73c1.35-1.28,1.6-1.7,2.14-3.6,1.19.79,2.07,1.6,3.44,1.58l.42-.44c-.6-2.85-5.37-3.87-7.88-3.72-2.1.42-5.52,1.84-6.15,4.13l.6.58c2.22-.33,2.36-1.73,4.06-1.77,1.34,1.55.21,3.33,3.37,3.24h0Z" style="fill: #6c130f;"/>
    <path d="M281.36,155.85c-1.62.56-3,.9-3.81,2.47.18,1.03-.07.65.7,1.24,1.61-.32,2.64-1.32,3.59-1.24-.17.75-.23.8-.59,1.46.43,1.61,2.43,1.73,3.59.82l1.12-1.55c1.22.14,2.37,1.48,4.04,1.1-.2-3.12-6.03-4.41-8.64-4.3h0Z" style="fill: #6c130f;"/>
    <path d="M253.01,149.69c2.24-.4,10.74.19,10.78.15,0-1.44-.17-1.11-.63-1.46-1.75-1.32-5.97-1.27-7.56-1.14-2.69.29-10.66,3.18-11.09,6.43.64.34,1.53-1.04,2.56-1.57,1.45-.76,4.68-1.98,5.93-2.42h0Z" style="fill: #6c130f;"/>
    <path d="M291.07,154.68c.69.47.26-.66-.34-1.6-1.74-4.87-8.24-5.01-12.48-4.65-1.4.15-.79.8-1.32,1.97.94,1.05,2.45.17,5.1.23,2.51.06,5.99.07,9.04,4.04Z" style="fill: #6c130f;"/>
    <path d="M230.22,161.68c-.4-.37-.6-.62-1.1-.83-.69,2.91-.17,8.25,3.27,9.12.19-1.92-1.45-6.38-2.17-8.29Z" style="fill: #6c130f;"/>
    <path d="M281.73,359.66c-.85.32-1.45,1.09-1.57,1.99-.12.9.25,1.8.97,2.34.72.55,1.69.65,2.52.28,1.24-.55,1.81-1.99,1.29-3.24s-1.94-1.86-3.2-1.37h0Z" style="fill: #8c1f1c;"/>
    <path d="M206.81,332.96c6.46,1.43,13.8,2.52,19.04,6.75,5.4-3.65,11.5-10.5,10.33-17.53l-.27-.32c-7.59,4.14-26.02,3.21-34.42.78.88,3.27,2.41,8.25,5.32,10.32h0Z" style="fill: #d02027;"/>
    <path d="M213.1,319.94c-1.8.08-6.08.18-7.33,1.24,1.75,2.32,16.15,1.65,19.59,1.6,3.48-.33,4.54-.35,7.83-1.64-5.08-1.23-14.98-1.71-20.08-1.2h0Z" style="fill: #d02027;"/>
  </g>
  <g id="c" data-name="Layer 2">
    <path d="M263.76,116.42c-6.56-1.35-13.12,2.03-18.71,5.07-6.27,3.42-11.89,7.67-17.48,12.1-1.01.8.42,2.21,1.41,1.41,5.22-4.15,10.49-8.15,16.34-11.38,5.24-2.89,11.68-6.56,17.9-5.27,1.26.26,1.79-1.67.53-1.93h0Z" style="fill: #6c130f;"/>
    <path d="M263.85,121.26c-4.3-.73-8.51,1.08-12.37,2.81-3.65,1.64-7.14,3.65-10.41,5.97-6.53,4.64-12.13,10.47-16.48,17.2-.7,1.08,1.03,2.09,1.73,1.01,4.09-6.31,9.34-11.85,15.44-16.25,2.98-2.15,6.16-4.04,9.48-5.62,3.59-1.72,8-3.88,12.08-3.19,1.26.21,1.8-1.71.53-1.93h0Z" style="fill: #6c130f;"/>
    <path d="M275.96,125.83c9.96-1.59,17.95,7.52,19.1,16.75.16,1.26,2.16,1.28,2,0-.64-5.17-3.1-10.4-6.9-14.01s-9.4-5.52-14.74-4.67c-1.27.2-.73,2.13.53,1.93h0Z" style="fill: #6c130f;"/>
    <path d="M274.78,121.49c7.03-.73,13.62,4.42,16.76,10.37.6,1.14,2.33.13,1.73-1.01-3.44-6.52-10.81-12.16-18.49-11.36-1.27.13-1.28,2.13,0,2h0Z" style="fill: #6c130f;"/>
    <path d="M273.2,117.97c2.04-.07,4.15.21,6.14.62,1.02.21,1.85.48,2.73.94,1.46.77,2.81,1.71,4.17,2.64,1.06.73,2.06-1,1.01-1.73-2.3-1.59-4.6-3.21-7.38-3.79-2.16-.45-4.46-.77-6.67-.7-1.28.05-1.29,2.05,0,2h0Z" style="fill: #6c130f;"/>
    <path d="M243.81,134.6c-3.38,2.94-7,5.59-10.35,8.57-3.08,2.74-6.74,6.01-7.96,10.1-.37,1.24,1.56,1.76,1.93.53.53-1.78,1.72-3.34,2.92-4.72,1.51-1.74,3.19-3.32,4.91-4.83,3.24-2.85,6.72-5.4,9.97-8.23.97-.85-.45-2.26-1.41-1.41h0Z" style="fill: #6c130f;"/>
    <path d="M224.06,174.17c-4.28,2.66-3.32,8.45-.93,12.06,1.2,1.82,2.86,3.41,4.88,4.29,2.16.94,4.57.9,6.82.33,1.11-.28,2.11-.66,2.77-1.65.47-.71.65-1.55.74-2.38.14-1.28-1.86-1.27-2,0-.04.38-.22,1.19-.66,1.58-.67.59-2.06.73-2.91.82-2.3.26-4.43-.4-6.16-1.95-1.63-1.46-2.82-3.45-3.35-5.57s-.16-4.57,1.8-5.79c1.09-.68.09-2.41-1.01-1.73h0Z" style="fill: #6c130f;"/>
    <path d="M221.59,172.68c-2.51,1.22-3.62,4.02-3.63,6.68-.02,2.89.77,6.07,1.91,8.71.92,2.14,2.39,4.17,4.65,5,2.01.74,4.33.59,6.39.14,2.3-.5,4.68-1.48,6.34-3.18.9-.92-.51-2.33-1.41-1.41-1.51,1.54-3.72,2.34-5.8,2.74-1.91.37-4.44.49-6.05-.81-2.26-1.82-3.04-5.02-3.6-7.72-.6-2.88-.95-6.88,2.22-8.41,1.16-.56.15-2.29-1.01-1.73h0Z" style="fill: #6c130f;"/>
    <path d="M236.09,183.78c-.7.12-1.45,0-2.16-.28-.66-.25-1.31-.69-1.84-1.19-1.24-1.17-2.03-2.71-2.74-4.24-.23-.49-.93-.61-1.37-.36-.5.29-.59.88-.36,1.37.82,1.79,1.81,3.6,3.33,4.9s3.58,2.09,5.66,1.73c.53-.09.83-.75.7-1.23-.16-.56-.7-.79-1.23-.7h0Z" style="fill: #6c130f;"/>
    <path d="M229.45,174.97c-.64,1.22-1.29,2.65-.75,4.04.31.8.85,1.36,1.65,1.68.34.13.72.18,1.09.21s.73.03,1.08-.07c.51-.14.94-.48,1.14-.97.09-.22.15-.45.13-.69-.02-.37-.17-.64-.39-.93-.15-.19-.48-.29-.71-.29-.25,0-.54.11-.71.29-.4.44-.35.97,0,1.41-.13-.13-.2-.28-.19-.46v.05c.03-.17.03-.21,0-.1l.05-.13c-.09.17.15-.16.01-.02.11-.08.14-.11.07-.07-.07.03-.04.02.08-.04-.03.01-.07.02-.1.03-.08.02-.04.01.09,0-.04-.01-.17,0-.21,0-.15,0-.29-.01-.43-.02-.21-.01.19.05-.03,0-.07-.02-.14-.03-.21-.05-.06-.02-.17-.03-.21-.07l.11.04s-.07-.03-.1-.05c-.03-.02-.25-.14-.1-.06.13.08-.03-.04-.06-.07-.02-.02-.04-.04-.06-.07-.05-.06-.05-.06,0,0,.05.07.05.07,0,0-.02-.03-.03-.05-.05-.08,0-.01-.06-.14-.07-.14.06.14.07.16.03.06l-.02-.06c-.02-.06-.04-.12-.05-.18,0-.04,0-.16-.04-.19.02.15.02.18.02.11,0-.03,0-.06,0-.1,0-.06,0-.13,0-.19,0-.05.02-.14.01-.19-.02.14-.02.16-.01.08,0-.04.01-.08.02-.12.03-.16.07-.31.12-.46.02-.08.05-.15.08-.22.07-.2-.08.15.02-.06.13-.29.28-.57.43-.86.24-.46.13-1.11-.36-1.37-.46-.24-1.11-.14-1.37.36h0Z" style="fill: #d02027;"/>
    <path d="M227.49,174.36c1.29,0,1.29-2,0-2s-1.29,2,0,2h0Z" style="fill: #d02027;"/>
    <path d="M225.53,171.43c1.29,0,1.29-2,0-2s-1.29,2,0,2h0Z" style="fill: #d02027;"/>
    <path d="M295.86,174.69c.15.15.29.3.42.46l-.16-.2c.24.32.44.66.6,1.03l-.1-.24c.15.37.26.75.32,1.15l-.04-.27c.02.15.04.3.03.45l.04-.27v.04c.02-.08.06-.16.09-.24l-.02.04.16-.2-.03.03.2-.16-.04.02.24-.1h-.05c.09,0,.18-.01.27-.03-.12.01-.23.01-.35,0l.27.04c-.08-.01-.16-.03-.24-.06l.24.1c-.06-.03-.12-.06-.17-.1l.2.16s-.06-.06-.1-.09l.16.2s-.07-.1-.09-.15l.1.24s-.03-.08-.03-.13l.04.27s0-.08,0-.13l-.04.27s.01-.06.02-.08c.17-.49-.2-1.12-.7-1.23-.56-.13-1.05.17-1.23.7-.31.9.42,1.83,1.3,1.98.59.1,1.26.05,1.6-.52.25-.41.16-.88.09-1.32-.17-1.15-.76-2.25-1.59-3.06-.37-.37-1.05-.4-1.41,0s-.4,1.02,0,1.41h0Z" style="fill: #d02027;"/>
    <path d="M296.88,171.88c1.29,0,1.29-2,0-2s-1.29,2,0,2h0Z" style="fill: #d02027;"/>
    <path d="M259.32,243.84c-.36.81-.69,1.63-.98,2.47-.06.17-.12.34-.15.52-.07.47,0,.92.33,1.27.4.43,1,.51,1.55.37.79-.2,1.5-.81,1.97-1.45s.67-1.52.43-2.3c-.29-.95-1.11-1.71-2.14-1.71-.52,0-1.02.46-1,1s.44,1,1,1c.06,0,.11,0,.17.01l-.27-.04c.06.01.12.04.18.05.08,0-.19-.1-.12-.05.03.02.06.03.09.05,0,0,.07.05.07.05-.01.01-.22-.19-.09-.06.01.01.14.13.13.14,0,0-.15-.22-.08-.1.02.02.03.05.05.07.03.04.13.26.05.08s.01.04.02.09c.02.07.03.14.04.22l-.04-.27c.02.13.02.26,0,.4l.04-.27c-.02.11-.05.22-.09.33-.06.18.11-.22.02-.06-.02.04-.05.09-.07.13-.03.06-.07.11-.11.17-.1.14.16-.18.03-.04-.07.08-.15.16-.23.24-.04.04-.09.08-.13.12-.13.11.19-.14.04-.03-.09.06-.18.13-.28.18s-.19.1-.28.15c.25-.15.16-.07.07-.04-.06.02-.12.03-.18.04l.27-.04c-.06,0-.11,0-.17,0l.27.04s-.05,0-.08-.02c.17.08.22.1.13.05.1.06.19.14.25.24.06.16.07.19.05.08l.04.27s0-.07,0-.11l-.04.27c.03-.22.12-.44.19-.65.08-.23.17-.47.26-.7s.17-.44.26-.66c0,0,.06-.15.06-.15-.05.13-.07.16-.04.09.01-.03.03-.06.04-.09.05-.12.1-.24.16-.36.11-.25.18-.49.1-.77-.06-.23-.24-.48-.46-.6-.44-.23-1.14-.15-1.37.36h0Z" style="fill: #6c130f;"/>
    <path d="M262.89,244.18l-.7,2.16c-.12.37-.25.73-.36,1.1-.19.62-.01,1.27.57,1.6.35.2.82.2,1.21.19.33,0,.67-.04.98-.16.43-.17.78-.41,1.04-.8s.31-.83.35-1.27c.07-.88.11-1.76-.11-2.62-.13-.51-.72-.86-1.23-.7s-.83.69-.7,1.23c.03.13.04.28.08.41,0,0-.02-.21-.01-.09,0,.03,0,.07.01.1,0,.08.01.16.01.24.01.29,0,.58-.02.87,0,.14-.02.28-.03.42,0,.07-.01.13-.02.2,0,.03-.02.14,0,0,.02-.16,0,0,0,.02-.01.06-.03.12-.05.18-.02.1.03-.09.04-.1-.01,0-.04.06-.05.08-.04.1.08-.13.08-.11,0,0-.04.04-.05.05,0,0-.04.05-.05.05,0,0,.22-.14.09-.07-.03.01-.09.07-.12.07-.03,0,.24-.07.13-.06-.02,0-.05.02-.07.02-.05.01-.1.03-.14.03-.02,0-.05,0-.07.01-.12.02.24-.02.11-.02-.23,0-.45.01-.67,0,0,0-.07,0-.07,0,.03-.11.49.3.36.19l.21.17.11.35s-.05.22-.01.13c.06-.14.09-.29.14-.43l.29-.89.66-2.02c.16-.5-.19-1.11-.7-1.23-.55-.13-1.06.17-1.23.7h0Z" style="fill: #6c130f;"/>
    <path d="M266.15,245.35l-.1,1.74c-.02.28-.05.56-.05.84,0,.6.36,1.11.94,1.27.28.08.58.05.86.02.38-.05.74-.11,1.07-.32.64-.4.91-1.06.99-1.78.06-.59-.13-1.17-.06-1.76l-.04.27c0-.06.02-.12.04-.18.13-.55-.17-1.05-.7-1.23s-1.1-.25-1.65-.2c-.27.03-.51.09-.71.29-.17.17-.3.46-.29.71.02.5.44,1.05,1,1,.25-.02.51-.02.76.01l-.27-.04c.21.03.42.08.63.15l-.7-1.23c-.1.44-.1.86-.05,1.31.04.32.07.63.03.95l.04-.27c-.02.14-.05.27-.1.4l.1-.24c-.04.08-.08.16-.13.23l.16-.2c-.06.07-.12.14-.19.19l.2-.16c-.07.05-.14.09-.22.12l.24-.1c-.13.05-.25.08-.39.1l.27-.04c-.19.02-.39.05-.58.03l.27.04s-.08-.02-.12-.03l.24.1-.03-.02.2.16s-.04-.04-.06-.06l.16.2-.02-.05.1.24v-.05c0,.09.01.18.02.27-.02-.22.01-.44.03-.66l.04-.66.08-1.36c.03-.52-.48-1.02-1-1-.57.03-.97.44-1,1h0Z" style="fill: #6c130f;"/>
    <path d="M238.33,240.34c3.84,3.57,7.67,7.14,11.51,10.71,3.4,3.17,6.7,6.69,10.59,9.26,3.55,2.34,7.69,3.3,11.84,2.14s7.7-3.88,10.46-7.06c3.11-3.58,5.31-7.88,6.29-12.52.4-1.88-2.49-2.69-2.89-.8-1.52,7.16-6.54,14.65-13.69,17.18-3.8,1.35-7.38.57-10.67-1.65-3.53-2.38-6.53-5.62-9.63-8.51l-11.69-10.88c-1.41-1.31-3.54.8-2.12,2.12h0Z" style="fill: #6c130f;"/>
    <path d="M224.57,177.02c-.24,1.95.29,3.91,1.06,5.7.61,1.42,1.54,2.89,2.97,3.6,2.46,1.22,5.48.8,8.13.79,1.29,0,1.29-2,0-2-1.19,0-2.37.07-3.56.05s-2.38-.06-3.45-.51-1.81-1.65-2.29-2.76c-.66-1.53-1.06-3.19-.86-4.86.06-.54-.51-1-1-1-.59,0-.94.46-1,1h0Z" style="fill: #6c130f;"/>
    <path d="M188.9,607.79c-3.78,2.61-8.06,4.23-12.62,4.75-2.32.27-4.67.34-6.99.61-2.03.24-4.25.53-6.05,1.55-3.51,1.99-3.4,6.42-3.16,9.94.33,4.69,1.4,9.3,3.17,13.65.48,1.18,2.41.66,1.93-.53-1.64-4.04-2.71-8.31-3.06-12.66-.15-1.88-.33-3.92.11-5.77.52-2.16,2.05-3.14,4.11-3.65,4.22-1.05,8.64-.73,12.89-1.59,3.83-.77,7.47-2.36,10.68-4.58,1.05-.73.05-2.46-1.01-1.73h0Z" style="fill: #6c130f;"/>
    <path d="M162.89,637.64c1.59,4.28,2.88,8.94,3.07,13.52.05,1.28,2.05,1.29,2,0-.2-4.76-1.5-9.6-3.15-14.05-.44-1.2-2.38-.68-1.93.53h0Z" style="fill: #6c130f;"/>
    <path d="M170.82,691.38c6.75-2.98,14.31-4.86,21.72-4.41,1.29.08,1.28-1.92,0-2-7.78-.46-15.66,1.56-22.73,4.69-1.17.52-.16,2.24,1.01,1.73h0Z" style="fill: #6c130f;"/>
    <path d="M202.41,639.36c-6.6,2.14-9.56,8.85-10.7,15.18-.69,3.87-.96,7.63-.55,11.55.27,2.56.65,5.1.84,7.67.29,3.98.17,7.99-.43,11.94-.19,1.26,1.74,1.8,1.93.53.61-4.08.8-8.18.51-12.3-.24-3.4-.85-6.77-1.05-10.18-.27-4.52.45-9.44,1.96-13.71,1.36-3.84,4.01-7.46,8.02-8.75,1.22-.39.7-2.33-.53-1.93h0Z" style="fill: #6c130f;"/>
    <path d="M191.57,661.74c-9.29-.45-18.84-.77-27.56,2.96-1.18.5-.16,2.23,1.01,1.73,8.35-3.57,17.68-3.12,26.55-2.69,1.29.06,1.28-1.94,0-2h0Z" style="fill: #6c130f;"/>
    <path d="M152.15,619.04c5.97,11.78,8.07,25.45,9.21,38.46.46,5.26.72,10.54.84,15.82.03,1.28,2.03,1.29,2,0-.36-15.69-1.64-31.93-6.78-46.87-.99-2.88-2.15-5.71-3.53-8.43-.58-1.15-2.31-.14-1.73,1.01h0Z" style="fill: #6c130f;"/>
    <path d="M152.09,617.96c-1.14.2-2.23.5-3.31.91-.55.21-1,.89-.6,1.47,3.03,4.38,4.29,9.59,4.8,14.83.12,1.26.2,2.52.26,3.78.05,1.16-.09,2.46.18,3.59.55,2.28,2.83,1.17,4.41,1.18,1.29,0,1.29-2,0-2-.66,0-1.81.54-2.41.33-.29-.1-.05,0-.07-.04-.09-.2-.02-.65-.03-.88-.02-.59-.04-1.19-.06-1.78-.1-2.35-.28-4.69-.62-7.02-.67-4.61-2.06-9.14-4.73-13.01l-.6,1.47c1.08-.41,2.17-.71,3.31-.91,1.27-.22.73-2.15-.53-1.93h0Z" style="fill: #6c130f;"/>
    <path d="M162.2,673.33c.43,4.48,1.67,8.77,3.15,13.01,1.38,3.95,2.62,8.15,5.36,11.4,2.43,2.88,6.14,5.43,10.06,4.93,1.86-.23,3.72-.83,5.43-1.6,1.58-.72,3.42-1.59,4.57-2.93,2.5-2.93,1.86-7.54,1.99-11.1.05-1.29-1.95-1.29-2,0-.13,3.55.73,8.65-2.8,10.81-1.69,1.03-3.41,1.85-5.32,2.39-1.3.36-2.65.68-4,.44-1.18-.21-2.26-.8-3.26-1.45-4.06-2.63-5.75-6.83-7.32-11.19-1.72-4.77-3.39-9.62-3.87-14.69-.12-1.27-2.12-1.28-2,0h0Z" style="fill: #6c130f;"/>
    <path d="M231.37,705.33c-.89-3.77,5.42-5.23,7.97-5.84,4.4-1.05,9.09-1.59,13.61-1.55,4.04.04,8.08.73,11.56,2.88,1.1.68,2.1-1.05,1.01-1.73-6-3.7-13.39-3.47-20.14-2.66-4.44.54-9.61,1.19-13.38,3.79-1.92,1.33-3.12,3.26-2.56,5.64.3,1.25,2.22.72,1.93-.53h0Z" style="fill: #6c130f;"/>
    <path d="M257.66,684.32c-.58-1.92-2.98-2.49-4.7-2.77-3.07-.49-6.23-.35-9.31.03-3.79.46-7.56,1.3-11.13,2.66-1.72.65-3.41,1.42-4.99,2.36-1.27.75-3.4,1.81-3.61,3.38-.79,5.87,2.36,10.76,5.25,15.56.66,1.1,2.39.1,1.73-1.01-2.28-3.79-5.03-7.72-5.12-12.32-.01-.52-.06-1.16.07-1.67.11-.43.26-.55.63-.83.58-.45,1.19-.86,1.82-1.24,1.38-.84,2.83-1.55,4.33-2.14,5.71-2.25,12.22-3.46,18.36-3,1.13.08,2.28.23,3.36.6.37.13.75.28,1.07.53.18.14.29.31.31.39.37,1.23,2.3.71,1.93-.53h0Z" style="fill: #6c130f;"/>
    <path d="M263.5,701.32c1.08,1.41,2.87,3.03,2.81,4.95-.04,1.2-.74,2-1.7,2.63-2.23,1.48-5.06,2.1-7.65,2.57-5.13.93-10.21.92-15.21-.69-1.86-.6-3.71-1.42-5.25-2.64-.73-.58-1.37-1.28-2.06-1.91-.88-.8-1.78-1.57-2.43-2.58-.69-1.08-2.43-.08-1.73,1.01,1.13,1.75,2.87,3.2,4.43,4.57,1.4,1.24,3.04,2.14,4.76,2.84,3.02,1.24,6.36,1.89,9.62,2.05,2.8.14,5.66-.23,8.41-.73,2.95-.54,6.24-1.3,8.67-3.15,1.19-.91,1.98-2.08,2.12-3.6.24-2.57-1.61-4.44-3.06-6.33-.77-1.01-2.51-.01-1.73,1.01h0Z" style="fill: #6c130f;"/>
    <path d="M258.44,699.4c.51,1.39,1.36,2.53,2.29,3.66.76.93,2.07,2.1,2.26,3.35.56,3.69-7.3.51-8.67,0-.73-.27-1.37-.58-2.15-.48-.83.11-1.61.45-2.41.69-.85.26-1.12.12-1.95-.18-.89-.32-1.81-.53-2.74-.68-2.02-.34-4.08-.41-6.09-.83-.71-.15-2.05-.34-2.64-.78-.53-.4-.76-1.28-.86-1.89-.21-1.27-2.14-.73-1.93.53.16.99.67,2.23,1.5,2.87,1.33,1.02,3.53,1.26,5.14,1.48,1.85.25,3.72.35,5.54.78.89.21,1.68.62,2.54.87.61.18,1.26-.02,1.86-.19.66-.2,1.34-.54,2.03-.64.78-.11,1.62.38,2.36.65,1.71.63,3.44,1.26,5.26,1.47,1.49.17,3.09.12,4.18-1.02.78-.81,1.19-1.85.99-2.98-.5-2.89-3.61-4.54-4.59-7.23-.44-1.2-2.37-.68-1.93.53h0Z" style="fill: #6c130f;"/>
    <path d="M226.68,688.22c-.05-2.41-.59-4.8-.97-7.17s-.77-4.82-.21-7.12c.31-1.25-1.62-1.78-1.93-.53-1.21,4.92,1,9.91,1.1,14.82.03,1.29,2.03,1.29,2,0h0Z" style="fill: #6c130f;"/>
    <path d="M187.86,686.62c.02,1.89.15,3.79.15,5.68,0,.27.07.96-.23,1.11-.33.16-.9-.34-1.12-.52-.86-.69-1.82-1.57-3.02-1.27-1.08.27-1.1,1.46-2.06,1.81-.55.2-1.18.1-1.74,0-.52-.1-1.18-.18-1.64-.46-.76-.45-.64-1.63-.9-2.38-.16-.45-.39-.87-.74-1.2-.19-.18-.41-.31-.62-.46-.07-.05-.15-.1-.22-.15-.15-.16-.16-.14-.04.06-.03-1.28-2.03-1.29-2,0,.03,1.09.78,1.32,1.46,1.97.54.52.45,1.59.7,2.27.36.99,1.1,1.6,2.07,1.94,1.11.38,2.43.64,3.59.47.97-.13,1.88-.62,2.42-1.45.04-.07.23-.54.31-.56-.21.06.28.27.32.3.48.29.87.73,1.34,1.05.81.55,1.93.84,2.84.36s1.23-1.5,1.27-2.49c.09-2.01-.13-4.05-.15-6.07-.01-1.29-2.01-1.29-2,0h0Z" style="fill: #6c130f;"/>
    <path d="M266.52,699.04c-1.13-1.1-2.47-1.94-4.01-2.3-1.44-.34-2.93-.33-4.39-.42-.54-.03-1,.48-1,1,0,.57.46.97,1,1,.69.04,1.38.07,2.08.11.31.02.62.05.93.08.06,0,.23.03.08,0,.07,0,.13.02.2.03.16.03.32.06.49.09,1.27.28,2.26.86,3.23,1.81s2.34-.51,1.41-1.41h0Z" style="fill: #6c130f;"/>
    <path d="M254.76,682.98l.38,1,.1.24c.06.12.15.21.26.28.06.06.14.1.22.13.12.06.25.09.39.09l.27-.04.24-.1c.12-.06.21-.15.28-.26.09-.1.15-.21.18-.34.03-.15.05-.3.05-.45s-.03-.3-.05-.45c-.01-.07-.03-.13-.05-.19-.05-.14-.11-.28-.18-.4-.06-.12-.15-.21-.26-.28-.1-.09-.21-.15-.34-.18-.13-.04-.27-.05-.4-.02-.13,0-.26.05-.37.12l-.2.16c-.12.12-.21.27-.26.44l-.04.27c0,.18.05.35.14.5.03.04.05.09.07.13l-.1-.24c.04.09.06.18.07.27l-.04-.27c.01.09.01.18,0,.27l.04-.27s0,.03,0,.05h1.93l-.38-1c-.03-.13-.09-.24-.18-.34-.07-.11-.16-.19-.28-.26-.11-.07-.24-.11-.37-.12-.13-.03-.27-.02-.4.02l-.24.1c-.15.09-.27.21-.36.36l-.1.24c-.05.18-.05.35,0,.53h0Z" style="fill: #6c130f;"/>
    <path d="M256.41,685.74c2.35,2.28,4.01,5.34,5.55,8.2.72,1.33,1.4,2.68,2.04,4.05.12.26.24.52.36.78.06.13.11.26.17.38.02.05.11.27.04.1.1.24.22.5.28.76.27,1.26,2.2.73,1.93-.53-.17-.81-.65-1.63-.99-2.38-.66-1.41-1.36-2.8-2.1-4.17-1.62-3.01-3.39-6.21-5.86-8.61-.92-.9-2.34.52-1.41,1.41h0Z" style="fill: #6c130f;"/>
    <path d="M225.57,690.79c-1.19-3.97-2.81-7.74-4.17-11.64-.36-1.03-.64-2.07-.66-3.15-.04-2.06,1.43-2.9,3.33-3.04,1.28-.09,1.29-2.1,0-2-2.16.16-4.42,1.02-5.12,3.28-.44,1.42-.18,3.09.22,4.49.45,1.56,1.12,3.06,1.71,4.58,1.03,2.64,1.95,5.31,2.76,8.02.37,1.23,2.3.71,1.93-.53h0Z" style="fill: #6c130f;"/>
    <path d="M270.86,157.9c.72,4.06,1.81,7.98,3.12,11.89.46,1.37.69,3.07-.85,3.87-1.17.61-2.58.38-3.82.13-1.1-.22-2.24-.5-2.96-1.44-.77-1.01-2.51-.02-1.73,1.01,1.42,1.87,3.57,2.38,5.82,2.62s4.75-.51,5.61-2.81c.49-1.31.28-2.64-.15-3.92s-.89-2.65-1.28-3.99c-.76-2.6-1.36-5.24-1.83-7.9-.22-1.27-2.15-.73-1.93.53h0Z" style="fill: #6c130f;"/>
    <path d="M284.27,182.36c.06.04.13.09.19.14l-.2-.16c.23.18.43.39.61.62l-.16-.2c.2.26.36.54.48.83l-.1-.24c.12.29.2.58.24.88l-.04-.27c.02.18.03.37.03.55-.01.52.47,1.02,1,1s.99-.44,1-1c.03-1.56-.78-3.02-2.05-3.89-.21-.14-.54-.16-.77-.1s-.48.24-.6.46c-.27.51-.1,1.05.36,1.37h0Z" style="fill: #6c130f;"/>
    <path d="M251.66,179.95c-.76.75-1.4,1.64-1.84,2.62-.11.25-.18.49-.1.77.06.23.24.48.46.6.23.12.51.18.77.1.23-.08.49-.23.6-.46.25-.56.57-1.1.94-1.59l-.16.2c.23-.29.47-.57.74-.83.37-.37.39-1.05,0-1.41s-1.01-.39-1.41,0h0Z" style="fill: #6c130f;"/>
    <path d="M153.52,619.4c.94-.45,2.25-1.04,2.94.07-.16-.25.06.19.09.3.07.24.14.48.2.73.46,1.76.81,3.55,1.13,5.34,1.05,5.83,1.69,11.75,1.77,17.67.02,1.29,2.02,1.29,2,0-.09-6.74-.89-13.51-2.2-20.12-.3-1.5-.53-3.15-1.11-4.58-1.05-2.56-3.78-2.11-5.82-1.14-1.16.55-.15,2.28,1.01,1.73h0Z" style="fill: #6c130f;"/>
    <path d="M195.63,602.75c-5.27-22.77-9.11-45.92-10.47-69.28-1.34-23.07-.25-46.39,4.61-69.03,2.72-12.65,6.6-25.05,11.77-36.91.51-1.17-1.21-2.19-1.73-1.01-9.27,21.27-14.42,44.06-16.31,67.14s-.55,47.16,2.78,70.47c1.88,13.15,4.41,26.21,7.41,39.15.29,1.25,2.22.72,1.93-.53h0Z" style="fill: #6c130f;"/>
    <path d="M203.01,426.17c-3.57-1.6-7.05-3.45-10.52-5.27-1.8-.94-3.6-1.88-5.34-2.91-2.2-1.3-3.98-3.15-5.33-5.31-.68-1.09-2.41-.09-1.73,1.01,1.44,2.31,3.34,4.39,5.67,5.81,1.71,1.04,3.5,1.97,5.28,2.9,3.61,1.9,7.23,3.83,10.96,5.5,1.17.52,2.18-1.2,1.01-1.73h0Z" style="fill: #6c130f;"/>
    <g id="d" data-name="wEeU1v.tif">
      <g>
        <path d="M443.18,212.75c11.26,3.2,20.98,9.1,25.33,20.47l3.22,8.41c1.02-.36,2.14-.49,3.24-.32l-2.61-6.89c-2.2-5.8-5.41-10.61-9.17-15.34.33-2.63.7-5.51.21-7.99-1.2-6.06-8.79-5.15-9.55-7.79-.87-2.99,3.95-5.61,2.06-11.07-2.64-7.62-14.98-3.85-11-13.58,2.11-5.17,1-10.53-3.45-13.97-6.42-4.98-12.21-6.27-11.5-15.24.44-5.51-2.65-9.81-7.97-10.95-1.66-.36-3.55-1.15-4.91-1.92l-1.58-18.05c-1.45-16.5-19.17-26.8-33.99-28.06-6.58-.56-12.69.94-18.7,3.25-9.23,3.56-16.03,10.8-18.95,20.29-1.5,4.89-2.66,9.58-3.81,14.61-.36,1.59.59,2.58,2.19,3.58l-6.02,5.22c-7.43,6.45-.32,12.6-2.7,18.33-2.85,6.87-11.57,13.47-3.62,21.74,8.09,8.41-9.84,7.55-3.47,19.03l-11.21.52c.06.41.07.82.06,1.23,2.75.39,5.46.9,8.15,1.51,7.4-.17,18.8-.04,22.28,3.1.09.7.23,1.38.39,2.07.79-.68,1.76-1.18,2.8-1.44-.04-1.6.34-3.16,1.35-4.38,1.64-1.98,4.44-2.27,7.01-2.36l.48,3.67c-.88.22-1.93.28-2.18.76-1.8,3.47,3.2,11.07,10.04,13.44,8.86,3.06,18.68,2.17,26.97-2.3,3.2-1.72,5.79-4.62,8.26-7.1.84-.22,2.38.65,2.74,1.37.31.64.1,2.41-.37,2.98l-4.09,4.98c-3.23,3.93-3.51,8.93-1.52,13.55.68,3.31,1.39,3.31,4.12,4.01.93.6,1.87,1.51,2.13,2.3.76,2.34-5.17,4.92-6.08,13.37-1.67,15.54,16.77,10.77,8.05,20.32-2.38,2.61-2.95,5.97-.5,8.72,2.28,2.55,7.62,5.55,9.54,3.15.39-.49.42-1.86.19-2.56-1.12-3.34.9-6.87,4.31-7.07.46.64.65,2.21.46,3.22-.89,4.77,1.07,9.31,5.33,11.24.86.39,2.59.25,3.28-.18.68-.43.93-2.49.62-3.32-2.73-7.27,6.09-6.53,6.53-14.5.83.43,2.18,1.41,2.58,2.15,1.1,2.02-3.53,5.87-.94,6.51,2.47-1,3.84-3.93,3.58-6.42-.34-3.11-5.26-4.83-3.84-6.45,1.18-1.35,6.39-1.67,8.63-5.99,5.2-10.04-8.83-18.06-7.87-21.34,1.19-4.1,7.03-5.45,7.74-9.37.38-2.09-.32-3.97-1.5-5.62l-3.16-4.45c-.34-.49-.29-2.19.15-2.57.43-.38,1.65-.71,2.3-.53ZM355.04,101.9c7.58-6.14,17.55-9.17,27.36-8.23,6.56.63,12.37,3.41,17.83,6.71,7.91,4.8,12.23,12.76,12.61,21.9l.46,11.26c-8-4.54-15.36-8.33-24.04-10.89l-.16-6.04c-.29-10.54-10.93-14.36-20.52-13.01-3.42.48-6.93.95-9.99,2.49-4.35,2.2-6.91,6.71-7.32,11.5l-.43,5.08-7.04,4.01c1.77-8.89,4.4-19.23,11.25-24.79ZM385.01,121.69c-10.45-1.49-20.34-1.38-30.83.58-.34-1.28-.31-3.22.33-4.42,2.8-1.97,35.75-5.03,30.5,3.84ZM357.44,113.8c2.36-1.27,5.38-3.21,8.12-3.18l8.6.09c3.83.3,7.73.68,10.77,3.96-8.43-2.65-18.26-1.59-27.49-.86ZM367.21,212.25c-2.33-1.04-4.71-2.29-6.13-4.02-.16-5.3-.38-10.01-1.08-15.35,13.89,4.61,25.22.02,35.72-8.99l-.28,6.56c-.2,4.64.94,9.17,1.48,13.99-5.05,8.66-20.29,10.83-29.71,7.81ZM404.25,177.35c-1.23.16-1.88-1.31-1.91-2.05-.04-.99.41-2.45,1.81-2.52.67-.03,1.39,1.39,1.42,2.06.04.7-.49,2.4-1.32,2.51ZM405.52,170.11l-5.01-.26c-1.53,2.85-2.54,5.7-4.28,8.27-8.83,13.04-30.63,20.27-41.89,6.13-5.34-6.7-8.71-14.42-9.16-23.11-.57-11.14.91-21.94,4.23-32.57.47-1.51,1.78-2.9,3.41-3.18,7.26-1.21,14.41-2.24,21.78-1.75,5.57.37,11.59.36,16.58,2.91,5.55,2.84,4.1,14.72,8,21.01,3.13,5.04,3.39,8.63,4.69,8.92,2.19.48,1.62-4.89,6.38-5.28,1.33-.11,3.17,1.41,3.36,2.85.87,6.52-1.37,14.21-8.08,16.05ZM440.58,257.48c3.93-9.57-2.44-10.25-3.66-17.04,3.76,2.91,11.31,13.41,3.66,17.04Z" style="fill: #6c130f;"/>
        <path d="M365.63,159.23c.82,3.13,4.94,1.49,7.68,2.15,2.23.54-3.88,4.81-8.88.93-1.99-1.54-2.5-4.53-.53-6.45,5.19-5.06,3.36-10.84,4.94-12.75s2.93,8.54-2.53,13.63c-.46.43-.83,1.91-.68,2.48Z" style="fill: #6c130f;"/>
        <path d="M387.52,147.49c-.82,1.24-2.04,3.06-3.22,3.14-1.92.13-3.14-1.39-3.67-3.15l-1.52.4c-.34.09-1.38-.81-1.08-1.22,2.22-3.02,8.08-3.6,11.45-.59l3.58,1.28c-1.37,2.26-3.41,1.12-5.54.14Z" style="fill: #6c130f;"/>
        <path d="M360.94,146.48c-.46,1.38-1.6,3.06-2.87,3.29-2.02.36-3.27-1.32-3.44-3.36-1.37.66-2.77,1.34-3.98.28,3.22-4.05,10-4.73,13.36-.29-.1,1.13-1.79.87-3.07.09Z" style="fill: #6c130f;"/>
        <path d="M380.98,171.69c.85,3.25-17.27,4.53-19.44.45-1.08-2.03,9.19,1.52,17.85-1.17.42-.13,1.49.34,1.59.72Z" style="fill: #6c130f;"/>
        <path d="M393.56,140.27c.41,2.26-4.13-3.21-9.56-2.1l-5.07,1.04c-.5.1-1.7-.52-1.86-.94-.93-2.46,7.52-2.95,10.39-2.51,1.82.28,5.7,2.37,6.09,4.52Z" style="fill: #6c130f;"/>
        <path d="M364.28,138.76c-3.17.95-7.26-3.38-13.05.7-.31.22-1.68.3-1.63-.02.91-5.53,12-5.1,14.98-2.36.34.31.11,1.56-.3,1.68Z" style="fill: #6c130f;"/>
        <path d="M407.89,157.99c2.82-.45-2.07,7.44-2.66,5.74-.1-.29-.38-1.18-.26-1.46l1.45-3.35c.16-.38,1.05-.86,1.47-.93Z" style="fill: #6c130f;"/>
      </g>
    </g>
  </g>
</svg>