<?xml version="1.0" encoding="UTF-8"?>
<svg id="a" data-name="Layer 1" xmlns="http://www.w3.org/2000/svg" width="766.54" height="546.11" viewBox="0 0 766.54 546.11">
  <g id="b" data-name="Nw4tVw">
    <g>
      <path d="M317.04,519.88c-43.94,17.38-90.8,22.37-137.6,21.67-50.19-1.85-91.79-22.53-112.69-69.39-31.01-1.7-52.1-31.5-58.55-58.74-2.13-10.94-.89-21.59,3.01-32.15,4.42-11.99-17.73-13.14.84-71.99,5.72-18.13,15.57-33.42,29.5-46.22,12.71-11.68,24.44-23.26,39.1-32.78,31.65-20.55,65.35-36.3,100.19-50.57l13.62-5.58,66.61-28.22c15.51-6.57,30.44-12.13,45.54-19.55l51.01-25.07c55.35-27.21,103.94-62.63,160.62-86.1,29.25-12.11,73.52-18.43,97.78,6.18,20.73-5.94,50.91-5.5,70.46,1.47,19.41,6.93,33.45,21.51,39.09,41.48,7.48,26.51-3.07,42.71.45,44.6,11.82,6.34,20.34,14.92,26.65,26.38,12.79,23.24,11.46,49.09,2.37,73.56-5.84,15.73-14.56,29.07-23.86,42.99-15.59,23.35-33.85,43.37-55.82,60.9l-27.27,21.75c-21.85,17.43-43.19,33.97-66.7,49.26-22.36,14.53-43.5,29.17-66.85,42.06l-68.94,38.05c-24.09,13.3-48.12,24.2-73.69,34.32l-54.84,21.69ZM16.16,370.93c8.01-12.98,15.82-23.56,24.9-34.38,15.7-19.55,32.66-37.11,53.31-51.41,19.56-13.55,39.06-25.09,60.45-35.63,55.47-27.33,138.02-58.04,187.75-87.28l89.38-52.55c56.03-32.94,113.21-68.88,176.81-86.81-20.62-18.52-59.96-13-83.35-4.16-19.24,7.28-37.14,16.01-55.01,26.06l-21.81,12.27c-28.09,15.8-54.67,32.85-83.73,46.99l-67.27,32.75-64.83,27.22-67.57,28.53c-30.74,12.98-59.73,28-87.25,46.69-11.31,7.68-20.14,16.94-30.19,26-14.31,12.9-24.82,28.37-30.45,46.91s-11.56,40.31-1.13,58.79ZM142.18,403.73c33.43-25.37,82.73-48.34,121.63-66.23,49.99-22.98,98.57-46.96,146.01-75.03,24.12-14.27,46.74-29.4,69.84-45.12l52.44-35.7c37.86-25.77,77.03-48.09,119.66-64.97,18.88-7.47,46.43-14.2,66.33-9.73,7.45-17.05,4.37-42.41-5.63-57.3-22.69-33.78-74.83-29.4-109.12-19.04-26.75,8.08-51.46,18.96-76.39,31.77-37.35,19.18-72.84,40.24-108.65,62.33-46.25,28.52-92.91,55.18-142.65,77.08l-92.43,40.71c-26.33,11.6-50.84,24.64-74.91,40.18-23.79,15.36-43.62,33.9-61.27,55.92-12.43,15.51-30.65,35.78-33.37,55.75-2.33,17.04,3.37,33,13.26,46.7,7.02,9.72,15.3,18.24,26.8,22.48,16.49,6.08,34.69,2.68,49.35-6.87,4.41-23.38,21.21-39.34,39.09-52.91ZM258.98,528.95c19.26-3.56,37.56-7.26,55.69-14.42l50.87-20.09c30.25-11.95,58.5-25.46,86.97-41.07l42.78-23.45c27.68-15.17,53.37-31.82,79.85-49.01s49.78-34.84,73.64-54.4l33.06-27.11c21.28-17.45,43.28-47.2,57.23-70.95,9.01-15.34,15.16-31.76,16.63-49.57,1.86-22.55-5.96-44.85-23.61-58.98-21.82-17.47-62.65-4.25-86.09,5.44-40.06,16.56-76.69,38.12-112.5,62.39l-76.36,51.75c-25.01,16.95-50.14,31.85-76.65,46.39-34.68,19.01-69.57,35.52-105.18,52.69l-74.94,36.15c-21.72,10.47-41.28,23.1-60.26,37.8-10.33,8-18.76,16.87-25.19,28.22-10.1,17.82-8.68,40.06,4.7,55.65,1.03,1.2,2.32,2.72,2.09,3.75-.19.86-1.45,2.4-2.32,2.51s-2.7-.69-3.62-1.26c-8.93-10.37-13.73-22.73-13.29-37.2-9.43,4.89-17.98,7-29.08,8.39,34.02,72.88,118.99,68.68,185.57,56.38Z" style="fill: #641d12; stroke: #6c130f; stroke-miterlimit: 10; stroke-width: 9px;"/>
      <path d="M89.69,370.04c7.05-2.07,9.6-6.81,10.54-13.16,2.03-13.67,13.17-23.07,27.13-21.83,20.22,1.79,33.73,11.2,56.33,7.19,12.26-2.18,24.03-7.47,32.16-16.78,16.73-19.14,10.34-42.08,24.27-54.95,11.88-10.98,29.94-2.08,43.66,2.9,20.94,7.59,44.54,5.15,62.58-8.44,19.79-14.91,23.84-38.27,34.38-58.61,6.51-12.58,20.35-18.75,34-15.96,22.18,4.53,35.47,12.9,61.23.26,13.32-6.54,22.85-17.91,28.13-31.93l10.12-26.88c3.56-9.45,10.61-17.74,20.27-21.05,16.56-5.67,31.37,11.64,58.67,6.85,17.43-3.06,31.17-13.84,39.85-29.25,6.16-10.95,11.26-21.96,16.11-33.64,1.55-3.72-.52-9.32-2.81-12.02s-6.19-4.29-10.07-4.42c-6.55-.22-12.51,3.07-15.03,9.21-4.29,10.45-8.84,20.59-15.07,29.89-13.87,20.72-31.53,11.47-49.58,6.36-16.14-4.57-31.79-1.59-45.72,7.6-11.87,7.83-19.64,19.8-24.55,33.33l-8.98,24.7c-5.68,15.63-21.14,22.88-37.38,18.58-8.38-2.22-16.7-5.19-25.48-6.05-27.64-2.7-52.11,12.4-62.63,37.65l-12.69,30.44c-6.25,14.99-27.19,23.7-44.64,17.48l-21.25-7.58c-7.67-2.73-16.64-3.05-24.91-2.22-22.38,2.25-39.68,18.56-44.83,40.09-1.78,7.44-2.81,14.62-5.27,21.84-3.76,11.07-15.55,16.17-27.04,15.18-10.01-.86-19.24-3.66-29.05-5.85-25.28-5.65-50.3.63-63.7,24-4.84,8.43-8.22,17.49-6.38,27.29.69,3.69,3.26,7.42,5.63,8.86,3.46,2.11,8.29,2.02,12,.93Z" style="fill: #feffff; stroke: #d02027; stroke-miterlimit: 10; stroke-width: 9px;"/>
      <path d="M479.49,327.71c2.59-1.29,6.07.06,6.91,2.22s-.07,5.96-2.21,6.98-5.46.25-6.61-1.62c-1.38-2.24-1.07-6.1,1.91-7.58Z" style="fill: #641d12;"/>
      <path d="M231.45,427.66c2.65-1.45,5.97-.09,6.95,2.19s.45,5.85-2.17,7.06c-1.77.82-5.14-.08-6.47-1.82-1.49-1.96-1.18-5.86,1.69-7.43Z" style="fill: #641d12;"/>
      <path d="M284.73,377.58c2.53-1.47,5.89-.99,7.37,1.53,1.02,1.74.49,5.24-1.72,7.08-1.67,1.39-5.55.92-6.78-1.05-1.42-2.28-1.17-6.23,1.13-7.57Z" style="fill: #641d12;"/>
      <path d="M334.36,410.6c2.8-1.52,6.06-.26,7.11,2.19.92,2.15.14,5.49-2.46,6.99-1.64.94-5,.13-6.3-1.68-1.45-2.01-1.08-6.01,1.66-7.5Z" style="fill: #641d12;"/>
      <path d="M656.59,173.72c2.62-1.59,5.9-.61,7.28,1.73,1.19,2.02.68,5.48-1.58,6.83-1.96,1.17-5.31.78-6.61-.51-2.03-2.01-1.9-6.34.91-8.04Z" style="fill: #641d12;"/>
      <path d="M520.37,255.58c2.86-1.56,5.89-.21,6.97,2.34.89,2.1.26,5.37-2.41,6.82-1.62.88-4.94-.01-6.2-1.69-1.56-2.08-1.21-5.91,1.64-7.47Z" style="fill: #641d12;"/>
      <path d="M692.8,189.52c2.4-.63,5.19,1.43,5.67,3.41.63,2.6-.88,5.79-2.96,6.3-2.97.73-6.01-.68-6.56-3.23s.94-5.72,3.85-6.48Z" style="fill: #641d12;"/>
      <path d="M577.97,259.65c2.48-.84,5.67,1.11,6.12,3.01.62,2.64-.6,6.02-2.57,6.71-2.7.95-6-.05-6.7-2.26-.91-2.89-.08-6.37,3.14-7.46Z" style="fill: #641d12;"/>
      <path d="M369.94,358.66c2.33-.66,5.65,1.19,6.1,3.16.49,2.15-.76,5.95-2.6,6.49-2.98.88-5.88-.1-6.65-2.24-1.09-3.03-.29-6.43,3.16-7.41Z" style="fill: #641d12;"/>
      <path d="M647.85,231.63c2.57-.89,5.57.8,6.17,2.95.69,2.47-.33,5.46-2.73,6.4-2.09.82-5.3-.19-6.17-2.21-1.13-2.61-.27-6.12,2.73-7.15Z" style="fill: #641d12;"/>
      <path d="M89.69,370.04c-3.71,1.09-8.54,1.17-12-.93-2.37-1.44-4.93-5.17-5.63-8.86-1.84-9.8,1.54-18.85,6.38-27.29,13.4-23.36,38.42-29.64,63.7-24,9.81,2.19,19.03,4.99,29.05,5.85,11.49.98,23.27-4.12,27.04-15.18,2.45-7.21,3.49-14.4,5.27-21.84,5.14-21.53,22.45-37.84,44.83-40.09,8.27-.83,17.24-.52,24.91,2.22l21.25,7.58c17.45,6.22,38.4-2.49,44.64-17.48l12.69-30.44c10.52-25.24,34.99-40.35,62.63-37.65,8.78.86,17.11,3.83,25.48,6.05,16.24,4.3,31.7-2.95,37.38-18.58l8.98-24.7c4.92-13.53,12.68-25.5,24.55-33.33,13.93-9.19,29.58-12.17,45.72-7.6,18.05,5.11,35.7,14.36,49.58-6.36,6.23-9.3,10.78-19.44,15.07-29.89,2.52-6.14,8.47-9.43,15.03-9.21,3.87.13,7.85,1.82,10.07,4.42s4.36,8.29,2.81,12.02c-4.85,11.68-9.95,22.69-16.11,33.64-8.68,15.41-22.41,26.19-39.85,29.25-27.29,4.79-42.1-12.52-58.67-6.85-9.66,3.31-16.71,11.6-20.27,21.05l-10.12,26.88c-5.28,14.02-14.81,25.39-28.13,31.93-25.76,12.64-39.06,4.27-61.23-.26-13.65-2.79-27.49,3.38-34,15.96-10.53,20.34-14.58,43.7-34.38,58.61-18.04,13.59-41.64,16.03-62.58,8.44-13.72-4.98-31.78-13.88-43.66-2.9-13.92,12.87-7.54,35.81-24.27,54.95-8.13,9.31-19.9,14.6-32.16,16.78-22.59,4.01-36.1-5.39-56.33-7.19-13.97-1.24-25.1,8.16-27.13,21.83-.94,6.35-3.5,11.1-10.54,13.16Z" style="fill: #d81f26;"/>
      <path d="M52.97,286.19c-1.7-.91-2.55-4.76-2.01-6.38.79-2.38,3.3-4.52,6.16-3.72,3.04.85,4.08,4.48,3.3,6.52-1.06,2.79-3.54,5.68-7.46,3.58Z" style="fill: #641d12;"/>
      <path d="M373.56,113.66c2.48-.96,5.96,1.2,6.25,3.05.4,2.51-.87,5.77-2.65,6.32-2.86.89-5.88-.11-6.48-2.11-.82-2.76-.23-6.06,2.88-7.27Z" style="fill: #641d12;"/>
      <path d="M156.63,215.33c2.29-1.07,5.77-.4,6.86,1.53,1.15,2.03.65,5.81-1.47,7.01s-5.93.67-6.96-1.12c-1.42-2.47-1.09-6.18,1.57-7.42Z" style="fill: #641d12;"/>
      <path d="M497.83,44.58c2.48-.98,5.58.75,6.15,2.89.65,2.44-.34,5.1-2.92,6.35-1.63.79-5.06-.25-5.86-2.08-1.07-2.44-.04-6.09,2.63-7.15Z" style="fill: #641d12;"/>
    </g>
  </g>
</svg>