<svg xmlns="http://www.w3.org/2000/svg" viewBox="0 0 500 383" width="500" height="383">
  <path d="M 393 20 L 390 21 L 387 21 L 384 21 L 381 21 L 378 21 L 375 21 L 372 21 L 369 21 L 366 21 L 363 21 L 360 21 L 357 21 L 354 21 L 351 21 L 348 21 L 345 21 L 342 21 L 339 21 L 336 21 L 333 22 L 330 22 L 327 22 L 324 22 L 321 22 L 318 22 L 315 22 L 312 22 L 309 22 L 306 22 L 303 22 L 300 22 L 297 22 L 294 22 L 291 22 L 288 22 L 285 22 L 282 22 L 279 22 L 276 22 L 273 22 L 270 22 L 267 22 L 264 22 L 261 23 L 258 23 L 255 23 L 252 23 L 249 23 L 246 23 L 243 23 L 240 23 L 237 23 L 234 23 L 231 23 L 228 23 L 225 23 L 222 23 L 219 23 L 216 23 L 213 23 L 210 23 L 207 23 L 204 23 L 201 23 L 198 23 L 195 24 L 192 24 L 189 24 L 186 24 L 183 24 L 180 24 L 177 24 L 174 24 L 171 24 L 168 24 L 165 24 L 162 24 L 159 24 L 156 24 L 153 24 L 150 24 L 147 24 L 144 24 L 141 24 L 138 24 L 135 24 L 132 24 L 129 24 L 126 25 L 123 25 L 120 25 L 117 25 L 114 25 L 111 25 L 108 25 L 105 25 L 102 25 L 99 25 L 96 25 L 93 25 L 90 25 L 87 25 L 84 25 L 81 25 L 78 25 L 75 25 L 72 25 L 69 25 L 66 25 L 63 25 L 60 25 L 57 26 L 54 26 L 51 26 L 48 26 L 45 26 L 42 26 L 39 26 L 36 26 L 33 26 L 30 26 L 27 26 L 24 26 L 21 26 L 20 29 L 20 32 L 20 35 L 20 38 L 20 41 L 20 44 L 20 47 L 20 50 L 20 53 L 20 56 L 20 59 L 20 62 L 20 65 L 20 68 L 20 71 L 20 74 L 20 77 L 20 80 L 20 83 L 20 86 L 20 89 L 20 92 L 20 95 L 22 95 L 25 92 L 28 90 L 31 87 L 34 85 L 37 83 L 40 80 L 43 78 L 46 75 L 49 73 L 52 71 L 55 68 L 58 66 L 61 63 L 64 62 L 67 62 L 70 62 L 73 64 L 74 66 L 77 66 L 79 63 L 81 60 L 83 57 L 85 54 L 87 51 L 88 48 L 90 45 L 93 42 L 95 43 L 97 46 L 98 49 L 101 51 L 104 52 L 107 53 L 110 54 L 113 54 L 116 53 L 119 51 L 121 49 L 124 46 L 127 44 L 130 43 L 133 43 L 136 42 L 139 41 L 142 41 L 145 39 L 148 37 L 151 36 L 154 35 L 157 35 L 160 37 L 163 39 L 166 40 L 169 41 L 172 42 L 175 42 L 178 43 L 181 43 L 184 45 L 187 47 L 189 50 L 190 53 L 191 56 L 192 59 L 192 62 L 193 65 L 194 68 L 196 71 L 197 74 L 198 77 L 200 79 L 203 79 L 206 79 L 209 80 L 212 80 L 215 81 L 218 81 L 221 83 L 222 86 L 222 89 L 222 92 L 222 95 L 222 98 L 222 101 L 222 104 L 222 107 L 224 109 L 227 110 L 230 111 L 233 111 L 236 112 L 239 112 L 242 113 L 245 115 L 247 117 L 250 119 L 253 122 L 256 124 L 259 127 L 262 130 L 265 133 L 268 136 L 269 139 L 269 142 L 269 145 L 269 148 L 269 151 L 268 154 L 268 157 L 267 160 L 265 163 L 264 166 L 262 168 L 260 171 L 257 174 L 255 177 L 253 180 L 251 183 L 249 186 L 248 189 L 247 192 L 246 195 L 246 198 L 246 201 L 249 204 L 252 206 L 255 207 L 258 207 L 261 207 L 264 206 L 267 205 L 270 203 L 273 202 L 276 202 L 279 203 L 282 205 L 285 208 L 282 211 L 282 214 L 285 217 L 288 219 L 291 221 L 294 223 L 297 224 L 300 226 L 303 227 L 306 229 L 309 230 L 312 231 L 315 232 L 318 232 L 321 233 L 324 233 L 327 233 L 330 233 L 333 233 L 336 234 L 338 233 L 339 230 L 340 227 L 341 224 L 341 221 L 341 218 L 341 215 L 341 212 L 341 209 L 341 206 L 342 203 L 342 200 L 341 197 L 340 194 L 339 191 L 338 188 L 335 185 L 333 182 L 333 179 L 332 176 L 332 173 L 331 170 L 330 167 L 329 164 L 328 161 L 328 158 L 327 155 L 327 152 L 327 149 L 328 146 L 328 143 L 328 140 L 329 137 L 329 134 L 330 131 L 330 128 L 331 125 L 331 122 L 331 119 L 331 116 L 332 113 L 332 110 L 333 107 L 333 104 L 334 101 L 333 98 L 331 95 L 328 93 L 326 90 L 325 87 L 324 84 L 323 81 L 325 80 L 328 82 L 331 82 L 334 79 L 336 76 L 339 73 L 342 70 L 345 68 L 348 66 L 351 66 L 354 65 L 357 64 L 360 62 L 363 61 L 366 59 L 369 58 L 370 55 L 372 56 L 372 59 L 371 62 L 372 65 L 375 66 L 374 68 L 371 68 L 368 69 L 365 69 L 362 69 L 359 70 L 356 70 L 353 71 L 350 72 L 348 75 L 347 78 L 348 81 L 348 84 L 348 87 L 347 90 L 347 93 L 347 96 L 347 99 L 348 102 L 350 104 L 353 105 L 356 105 L 357 107 L 356 110 L 354 112 L 351 114 L 348 115 L 345 117 L 342 120 L 339 122 L 336 125 L 334 127 L 335 130 L 338 131 L 341 131 L 344 131 L 347 130 L 350 128 L 353 127 L 355 129 L 358 132 L 357 135 L 354 136 L 351 137 L 348 138 L 346 140 L 345 143 L 343 146 L 343 149 L 346 152 L 349 153 L 352 153 L 355 153 L 358 152 L 361 155 L 363 158 L 365 161 L 362 163 L 359 163 L 356 163 L 353 163 L 351 166 L 349 169 L 348 172 L 347 175 L 347 178 L 350 180 L 353 180 L 356 181 L 359 182 L 360 185 L 360 188 L 359 191 L 358 194 L 357 197 L 356 200 L 356 203 L 355 206 L 355 209 L 357 212 L 360 213 L 363 214 L 366 214 L 369 214 L 372 212 L 375 210 L 377 207 L 380 204 L 383 204 L 386 206 L 387 209 L 389 212 L 390 215 L 391 218 L 393 221 L 394 224 L 396 227 L 397 230 L 397 233 L 396 236 L 394 239 L 393 242 L 391 245 L 393 248 L 396 250 L 399 252 L 402 254 L 405 255 L 408 254 L 410 257 L 410 260 L 410 263 L 410 266 L 409 269 L 408 272 L 406 275 L 404 278 L 403 281 L 401 284 L 400 287 L 398 290 L 397 293 L 396 296 L 395 299 L 394 302 L 393 305 L 392 308 L 391 311 L 390 314 L 389 317 L 389 320 L 388 323 L 388 326 L 387 329 L 387 332 L 386 335 L 386 338 L 385 341 L 385 344 L 384 347 L 385 350 L 386 353 L 388 356 L 390 359 L 393 362 L 396 362 L 398 359 L 399 356 L 400 353 L 400 350 L 401 347 L 401 344 L 402 341 L 402 338 L 403 335 L 403 332 L 403 329 L 404 326 L 406 323 L 409 320 L 412 318 L 413 315 L 414 312 L 416 310 L 419 312 L 422 313 L 425 312 L 427 310 L 428 307 L 428 304 L 428 301 L 428 298 L 428 295 L 428 292 L 429 289 L 430 286 L 430 283 L 432 280 L 434 277 L 436 274 L 437 271 L 439 268 L 440 265 L 443 262 L 446 260 L 449 260 L 452 259 L 455 258 L 458 257 L 461 256 L 463 253 L 463 250 L 460 248 L 457 247 L 454 245 L 453 242 L 452 239 L 451 236 L 451 233 L 454 231 L 457 229 L 460 227 L 463 224 L 466 221 L 469 219 L 472 216 L 475 213 L 477 210 L 478 207 L 479 204 L 476 203 L 473 201 L 470 200 L 467 199 L 464 198 L 461 197 L 458 196 L 455 195 L 452 194 L 449 193 L 446 192 L 443 191 L 440 191 L 437 189 L 434 188 L 431 188 L 428 187 L 425 186 L 422 185 L 419 184 L 416 183 L 413 182 L 410 181 L 407 179 L 406 176 L 405 173 L 405 170 L 405 167 L 405 164 L 405 161 L 405 158 L 405 155 L 405 152 L 405 149 L 405 146 L 405 143 L 405 140 L 405 137 L 405 134 L 405 131 L 405 128 L 405 125 L 405 122 L 405 119 L 405 116 L 405 113 L 405 110 L 405 107 L 405 104 L 405 101 L 405 98 L 405 95 L 404 92 L 404 89 L 404 86 L 403 83 L 403 80 L 402 77 L 402 74 L 402 71 L 401 68 L 400 65 L 400 62 L 399 59 L 399 56 L 398 53 L 397 50 L 397 47 L 396 44 L 396 41 L 395 38 L 395 35 L 394 32 L 394 29 L 394 26 L 394 23 L 394 20 Z" fill="none" stroke="#6b2f1a" stroke-width="8" stroke-linecap="round" stroke-linejoin="round"/>
</svg>
