<svg xmlns="http://www.w3.org/2000/svg" viewBox="0 0 500 215" width="500" height="215">
  <path d="M 457.0 20.0 L 402.3 22.4 L 283.8 24.3 L 228.2 23.8 L 159.6 20.0 L 158.1 22.9 L 158.6 27.2 L 156.2 31.0 L 157.2 35.3 L 155.7 35.8 L 153.3 34.4 L 147.6 37.7 L 141.8 47.8 L 138.5 50.2 L 136.1 49.7 L 135.1 47.3 L 131.3 46.4 L 129.8 48.3 L 127.4 47.8 L 122.6 49.7 L 118.8 55.5 L 113.5 58.9 L 111.6 57.9 L 112.1 53.6 L 110.2 51.7 L 108.3 52.1 L 102.0 56.5 L 100.6 60.3 L 98.2 58.4 L 94.8 59.8 L 95.8 63.2 L 91.0 69.4 L 86.2 68.4 L 84.3 69.9 L 81.9 69.9 L 80.9 71.8 L 78.0 71.8 L 74.7 76.1 L 71.8 76.1 L 64.1 81.9 L 60.3 81.9 L 58.4 80.4 L 56.9 81.4 L 49.7 81.4 L 46.9 83.8 L 44.5 83.8 L 42.1 86.7 L 39.2 87.6 L 36.8 90.0 L 37.3 92.9 L 35.3 96.3 L 36.3 97.2 L 34.4 99.1 L 27.7 100.6 L 26.2 98.7 L 22.4 101.1 L 20.0 116.9 L 83.3 118.8 L 99.1 114.0 L 102.0 115.0 L 105.9 112.1 L 111.6 110.7 L 112.6 109.2 L 118.3 109.2 L 120.7 106.3 L 121.2 108.3 L 134.2 107.8 L 188.8 111.6 L 191.2 114.0 L 189.8 115.9 L 190.8 118.8 L 196.5 115.0 L 204.2 126.0 L 203.2 133.2 L 262.2 134.6 L 321.2 194.1 L 331.8 190.8 L 344.3 190.3 L 349.5 191.7 L 350.5 194.1 L 352.9 194.6 L 353.4 189.8 L 359.6 173.0 L 366.8 163.4 L 375.9 155.7 L 385.5 150.5 L 396.1 142.3 L 397.0 143.3 L 405.2 140.4 L 419.1 139.4 L 419.6 138.0 L 422.0 138.5 L 421.5 135.6 L 422.4 133.2 L 423.9 137.0 L 423.4 139.0 L 425.3 139.4 L 424.4 140.4 L 420.0 139.9 L 425.3 141.8 L 426.3 146.2 L 434.4 132.2 L 450.7 115.5 L 461.3 108.3 L 472.8 103.5 L 477.6 103.5 L 479.5 93.4 L 480.0 77.6 L 478.6 71.8 L 461.3 37.7 Z" fill="none" stroke="#6b2f1a" stroke-width="8" stroke-linecap="round" stroke-linejoin="round"/>
</svg>
