<?xml version="1.0" encoding="UTF-8"?>
<svg id="a" data-name="Layer 1" xmlns="http://www.w3.org/2000/svg" width="1234.16" height="444.81" viewBox="0 0 1234.16 444.81">
  <g id="b" data-name="C4jpdW.tif">
    <g>
      <path d="M1160.67,361.05c-7.21-26.16-27.07-46.31-53.42-52.69-24.62-5.96-51.28-2.37-71.79,12.63-18.24,13.35-28.18,33.86-32.68,55.41-.9,4.31-2.89,7.86-7.75,7.89l-98.43.68c-31.64.22-62.56,1.77-94.05.1-6.58-.35-12.1-3.34-19.51-3.34h-414.31c-4.6.01-7.96-.83-11.63-2.39-2.86-17.85-10.41-32.78-22.59-45.42-14.05-14.58-31.2-23.15-51.68-24.78-38.65-3.08-73.9,22.51-83.46,61.4l15.26-.73c6.01-22.14,22.12-40.01,44.52-45.8,20.14-5.21,40.99-1.41,57.86,10.35,28.98,20.21,34.37,60.81,11.73,87.89-24.83,29.7-75.23,30.47-101.69.07-10.25-11.78-14.34-26.79-14.09-42.58-5.23-1.53-9.66.6-14.63.6l-178.23-.06c-6.95,0-16.34-3.86-17.86-10.41-3.23-13.96-1.54-27.72-2.21-42.05-.2-4.2,1.23-10.11,5.75-11.5,8.45-2.6,16.57-2.14,26.33-2.33l-1.06-29.06-.71-33.17-.82-21.93-.94-55.27-1.26-47.75-.97-42.91-.77-17.31-.21-51.39c-.05-12.04,18.7-13.83,27.2-14.25l18.37-.91,642.88.15,34.5.68c29.41.58,45.18,12.05,67.23,30.04,5.8,6.33,12.22,13.35,12.9,22.44,1.35,18.02.46,35.47.42,53.76l56.88.86,43.45.68c14.12.66,26.34.54,35.73,11.82l37.59,45.13,31.55,38.7,20.16,3.01,60.81,9.32,20.12,2.81,39.82,6.69c29.49,4.96,40.06,28.17,40.95,55.79.49,15.36.88,29.74-.39,44.95l10.97,2.27c3.87.8,6.82,6.86,7.03,10.96.58,10.97,1.11,21.77-.06,32.35-.92,8.32-7.86,13.42-15.36,14.17-25.81,2.57-41.83,1.95-68.76,1.77-3.68,31.82-28.9,53.05-60.75,55.64-32.83,2.67-64.29-17.51-68.98-51.99-4.48-32.9,14.36-62.22,47.2-70.45,37.55-9.41,79.14,15.61,82.23,56.19l12.78,1.53c.54.06,2.37-.45,2.35-.85-.18-3.86-1.94-11.69-3.5-17.36ZM36.78,106.93l-.07,29.16,2.98,89.84,1.26,68.11.61,19.88,154.83.08c2.83,0,5.05,2.32,5,4.23-.04,1.64-1.78,5.15-4.3,5.16l-185.68.45c-2.93,5.04-1.25,9.27-1.17,14.09l.43,27.05c.09,5.3,11.61,5.92,16.07,5.93l162.72.06c9.38-43.96,48.3-74.95,93.25-71.2,41.49,2.85,72.32,30.85,82.97,71.51l385.43.06c1.42-16.49-1.42-28.59-.63-47.57l-389.77-.03c-2.91,0-5.39-1.05-5.98-2.52-.69-1.75-.86-6.32,1.8-6.32h404.74s.58-52.34.58-52.34c.14-12.62,1.07-24.88-.51-36.8.59-2.2,1.08-4.96,1.07-7.9l-.2-109.78-.03-97.15c-8.19-.6-14.62-1.28-22.11-1.32l-102.9-.55H81.91s-25.33.9-25.33.9c-4.34.15-21.79-.47-21.87,7.09-.2,18.27.25,35.43.7,53.5l1.38,36.4ZM794.4,121.07c0-6.73,5.29-11.38,10.16-12.71,4.86-1.33,9.28-1.21,14.82-1.38.7-16.44,1.14-32.53,0-48.84-.53-7.56-4.23-13.62-9.5-18.76-11.06-10.79-23.91-19.35-38.23-25.43l-.03,305.82c-3.26,3.95-7.22,4.14-12.31,4.24l1.71,47.84,34.68.04-1.1-30.67-.2-220.13ZM1169.51,301.74c-.5-9.6-.81-18.49-.25-27.69.77-12.69,23.3-9.59,33.43-11.2-2.84-14.8-15-24.82-29.71-27.18l-55.7-8.94-53.19-7.89-35.6-5.76-38.31-46.99-31.81-38.35c-5.2-6.27-13.38-9.14-21.89-9.26l-73.8-1.04c-17.69-.25-34.68-.89-52.31-.68-3.91.05-6.68,3.39-6.68,7.4l-.2,203.48,1.7,47.55,165.18-.67,23.14-.67c4.11-17.71,10.82-34.76,23.17-48.46,4.29-4.76,8.55-9.32,14.01-13.04,32.21-21.91,75.81-22.18,108.21-.33,6.92,4.67,11.13,11.19,17.37,16.81l48.87-.59c1.6-1.59,1.6-6.32-.03-7.33l-19.51-.7c-10.51-.38-15.56-8.48-16.08-18.47ZM1206.06,312.51l-.03-39.66c-9.68-.31-17.94-.42-27.08,2.04-.14,10.23-.03,19.71.52,29.52.52,9.21,18.67,7.03,26.59,8.1ZM1224.64,368.49c.48-8.7.41-16.92-.24-25.72-.19-2.54-2.73-5-5.28-4.99l-57.42.23c7.09,13.85,11.11,25.82,11.47,40.79l22.67-.19,19.59-1.33c5.02-.34,8.92-3.92,9.19-8.79ZM1091.73,413.65c13.39-2.65,23.06-13.41,25.88-26.21,4.27-19.36-14.3-40.39-35.84-38.92-9.42.65-18.05,5.4-24.67,13.63-8.6,10.7-8.15,26.42-.26,38.03,7.15,10.51,20.64,16.27,34.89,13.45ZM287.68,413.45c14.99-4.46,25.18-17.97,23.38-33.08-2.07-17.41-16.39-29.29-33.46-29.45-10.68-.1-20.17,4.48-25.86,12.02-6.63,8.78-8.19,19.28-4.89,29.53,5.47,17,23.08,26.26,40.84,20.99Z" style="fill: #bc1c1a;"/>
      <path d="M743.39,81.64l.19,109.26c0,2.93-.46,5.68-1.03,7.86-.52.04-1.43.12-1.9.13-1.39-1.26-4.52-1.24-5.91.04l-277.08-.48-74.12-1.05-30.75-.72-75.3-1.17-75.24-.12-57.95,1.32-55.73,1.81-37.92.43-2.85-89.41.07-29.03,116.71-.47,78.96-.09,189.47.28,304.46.19c2.42,0,4.39.67,5.92,1.22Z" style="fill: #ee0c07;"/>
      <path d="M759.35,225.88l-6.16.04c1.44-1.28,4.71-1.3,6.16-.04Z" style="fill: #bc1c1a;"/>
      <path d="M937.71,233.91l-67.17-7.3-18.75-2.63c-4.39-.62-7.75-4.82-7.89-9.44l-.96-30.62c-.26-8.46-.49-16.5.07-24.98.43-6.53.02-12.99,1.19-19.45.99-5.44,7.83-8.81,13.49-8.99,22.57-.71,44.81-2.26,67.39-.13l8.98.85c8.01.76,13,4.6,17.05,10.88,11.97,18.61,22.25,37.63,32.56,57.22,4.74,9,9.39,17.22,13.16,26.71,1.13,2.84.23,7.26-1.62,9.26-1.56,1.7-5.4,3.43-8.34,3.15l-49.15-4.55ZM918.59,222.09l20.7,2.01c-2.55-18.37-3.74-35.75-4.39-54.03l-.83-23.14c-.06-1.71,0-4.46-1.05-5.16-5.94-3.97-66.6-1.79-78.91-1.15-1.23,3.94-1.39,7.37-1.5,11.41-.38,13.31-.46,26.14-.14,39.34l.47,19.8c.03,1.24,1.97,3.72,3.36,3.87l62.3,7.06ZM987.71,228.65c-7.51-16.29-14.49-30.02-22.44-44.64-6.53-12-12.26-23.59-21.28-35.32-1.12,11.91.14,22.19.69,33.25l1.21,23.97,1.26,14.1c.13,1.5.81,4.08,1.75,4.86s3.62.88,5.22,1.01l33.58,2.78Z" style="fill: #bc1c1a;"/>
      <path d="M980.56,364.72c-1.24,1.73-4.59,1.81-5.9,1.14-1.76-.89-2.39-3.97-1.34-5.91l7.45-13.8c6.77-12.54,10.55-25.98,11.47-40.4,1.14-17.8.33-34.94-.74-52.92-.1-1.74.79-4.32,1.52-5.43s4.74-1.87,5.33-.64c2.4,5,2.51,11.52,2.76,17.12l1.16,25.98c1.2,26.9-5.71,52.6-21.71,74.85Z" style="fill: #bc1c1a;"/>
      <path d="M861.46,261.59c-9.41.44-18.13.43-26.99.1-4.23-.16-6.76-3.91-6.82-7.26s2.49-7.1,6.61-7.2c9.09-.23,17.84.01,26.92.75,3.59.29,6.03,3.59,6.41,6.69.31,2.55-2.15,6.73-6.14,6.92Z" style="fill: #ee0c07;"/>
    </g>
  </g>
</svg>